<svg version="1.1" xmlns="http://www.w3.org/2000/svg" viewBox="0 0 538.0000000000001 433.56303407951066" width="1614.0000000000005" height="1300.689102238532">
  <!-- svg-source:excalidraw -->
  
  <defs>
    <style>
      @font-face {
        font-family: "Virgil";
        src: url("https://excalidraw.com/Virgil.woff2");
      }
      @font-face {
        font-family: "Cascadia";
        src: url("https://excalidraw.com/Cascadia.woff2");
      }
    </style>
  </defs>
  <rect x="0" y="0" width="538.0000000000001" height="433.56303407951066" fill="#ffffff"></rect><g transform="translate(283 10) rotate(0 62.66346153846149 28.74038461538461)"><path d="M0 0 C0 0, 0 0, 0 0 M0 0 C0 0, 0 0, 0 0 M-0.699083496597583 6.520674025316827 C0.6906242676432073 4.517640359128052, 3.854570233104185 1.7969930132535188, 5.583859937223143 1.0423841375706009 M-0.48373017941134666 6.6406479221331995 C1.281957442350486 4.7125511023582245, 2.8176231238392337 3.1685867989086027, 5.14456932540471 0.04526105000052988 M-0.7360008723009719 12.682071753263056 C0.6893046932105138 8.547058064318602, 2.9693150792477834 6.978615271648151, 9.366603219461572 -0.997382472912991 M-0.38213637907992726 12.475024026304066 C2.8498804216643476 7.907243160456533, 6.708782131171922 3.412012988788896, 11.186731459897889 -0.7870883715257286 M-0.06396960192827983 20.28366220081287 C4.608476215506659 12.977338563971724, 6.24786487916807 7.7319454050780045, 17.18626142060705 1.0629994596284797 M-0.9059593696659665 18.595583734941357 C3.2157958697316054 14.322121363872377, 6.822190084680873 10.716677270184864, 15.383326732091088 -0.3973498943331668 M-0.3254641534575011 23.480205639912842 C6.681061982422376 19.17421381527685, 13.134731035054585 9.229797700757418, 22.38649402959075 0.25052417015428574 M1.179995828512988 23.538995337388574 C6.042679105840138 17.113022432613626, 11.684796786525869 10.591716863885491, 20.744137562157476 0.06148469859505923 M1.0918955198069469 32.02913207537328 C6.583505843110018 21.88273785706427, 17.478350961054087 10.055816768247805, 25.807267875086875 0.5641745528218092 M0.21204291475465453 30.664033596169403 C8.374597765800651 20.924037488105892, 16.6588676830794 10.369145220117858, 25.788497555677207 0.5020863287162722 M-2.234750010175677 38.70289257150267 C7.916453063655252 27.89048604224952, 16.950712436077406 17.848118473546553, 31.195454433045185 0.4767702167167549 M0.18696967781516705 37.53395157754545 C11.960632051160974 22.68156173391268, 24.04273823429462 9.057165967109704, 31.990542592896915 0.17733441956930207 M-0.26146329644610944 41.02589131760948 C9.745993757319207 30.748961815354235, 19.237924037727094 20.935860097619198, 37.32798593845342 0.044422216815920734 M-0.6787095310493356 42.13290078527831 C13.63178285889585 28.556586820047187, 26.101790544390553 13.686396053298985, 36.32614900060122 0.37359515308407154 M1.2418128959833794 48.85111436867051 C14.917919536056944 31.463381800341658, 28.457235657249452 14.910809122336993, 42.94782761726134 -1.8186435877949947 M-0.26068088505424925 47.97380990129791 C14.059353971739144 32.29163078445887, 27.98036822136396 16.40759770617273, 43.177655784036745 0.2167948277994043 M0.971168793062553 54.389662583771454 C9.826867170615394 43.29733203001756, 23.8026338302289 28.032598920871862, 47.20300545445669 0.010090107860808217 M0.7218321210470648 54.659167724143074 C16.762645779716312 36.216711995852535, 33.135360940268946 18.671773485246653, 46.74164239498812 -0.4461534993547751 M0.4959324667506735 57.29679952722081 C15.457980596573718 45.93655089715565, 24.13696843310282 30.69195938022181, 54.58257842598921 -1.863744587130963 M1.0820235260107438 58.49832107007542 C19.224495224821847 37.9009033077126, 36.346851965480454 19.25054332888613, 52.933650963701965 0.7587233451603659 M5.91434692198801 57.720322727881495 C19.785422229990367 44.7081051167646, 36.80474984796712 25.070258243213715, 59.35566626684667 -0.0012241177935159442 M7.789931989073931 58.08709603241098 C21.076901088323293 42.98086018527229, 35.61760167353616 25.844946348762278, 57.79596406696291 -0.3861147067252553 M11.63653883578128 60.40544990117586 C31.71115320225421 36.47434684778531, 51.5769658312517 15.718408918500927, 62.5074217029788 1.1446898749588499 M11.724159529040222 57.943934203525245 C33.21287488769863 34.44674990450887, 52.817544464711 12.051999551398104, 63.402326960017575 -0.8836476064728132 M17.976549818118226 59.21493272708068 C31.096579240477496 42.641003298450784, 47.029527136320056 24.2711703199503, 68.17805821937337 0.5793271961029305 M18.23265278519423 59.56125645284811 C34.06087730490053 39.76076027145992, 51.44923725953299 19.835308518770525, 68.26572534465059 0.3591314528476133 M22.151954469948606 56.93213768968169 C37.63707181374218 44.598051261641515, 50.151503249834605 30.435137544303462, 72.59882229198011 -1.9588675452755524 M24.10107107528259 58.73979376641844 C36.95577332523732 42.7788643047466, 49.83096838857037 27.09192526960846, 75.24310760110858 0.33728939477487074 M28.722888151260165 58.61122271895566 C50.56929491892646 36.53110805465063, 70.05887005385047 12.597167324389396, 80.53102115578679 1.3518417058001688 M28.960564163589922 59.47001388866612 C43.132566739045835 41.51104493989916, 57.587357595766605 24.652783619040605, 79.94316255617616 0.8293799012388519 M31.871960184012146 59.60667012921107 C46.72278192299344 41.70881897737276, 64.65997567525844 25.119566442341238, 86.20199503674314 -0.30869419158418054 M33.536435463872344 59.492904260852754 C49.337981882828146 41.35264290708314, 64.53508579147282 25.100886287860327, 84.63104171509997 0.2035167707784069 M37.12357676516381 59.1499153597564 C60.527564926060464 38.608149643283355, 77.81142708780501 15.415729446285063, 89.74414491983691 -1.0523329324518187 M38.336214952385994 58.40785076173996 C56.39981928274689 39.18952434356831, 74.96681856084524 18.34782488841769, 90.63613702966461 0.2988005603234427 M45.06326387970291 59.925975715568455 C56.83291730679355 45.3585696089359, 67.48331596760845 30.077790254471665, 94.1309047810179 -1.0078174077170274 M43.337732080915494 58.78051644825766 C63.13593735723287 35.81128972687438, 82.56614340438284 13.145295496176637, 96.25680313011677 0.23139194341280245 M47.617580503579184 58.102983305732934 C59.94064262387841 43.53897802781897, 74.16558247311619 31.666006899377287, 101.61576935527378 1.0294009375969821 M49.237778979707464 58.70362449394467 C68.67718475334115 36.67439823123351, 88.01812237965933 15.615143250271686, 101.16813509324098 -0.7240616480236 M52.49314637178039 58.68236168522663 C69.33149533896128 40.07684877669294, 87.32229369316235 22.191232926490954, 106.66826636855436 0.871985462575914 M53.859888225546534 58.67838483073093 C65.99819409695698 45.595444558148, 79.20440945976378 32.62952751464438, 106.32669067428392 -1.3283526654469355 M60.112614210256275 60.77364921313524 C75.66101380979713 41.05255419415321, 91.3146913526705 20.597076512529235, 112.41298430584736 0.29089097219655713 M60.059055073679325 59.42056750715524 C80.66088849671921 36.701595850021945, 99.42869535721465 12.29737358638237, 110.37826807503022 0.5037131980727096 M64.0536975039946 60.94467569443559 C85.57965790213947 33.3376777456131, 104.57305619070235 11.587703255119798, 114.90948561411204 1.0448966557674098 M64.12951522589047 58.741929330147556 C78.62134107373214 41.40496336039375, 93.41465812359422 25.996549777786598, 116.90656914673599 0.2640999462969589 M71.98514272894509 58.49638573821334 C84.36160384776382 43.338480383958, 101.64894307328727 26.147084494716367, 122.87162961530765 0.45723482759692047 M71.70946706242658 59.356287223246675 C88.34307052666841 40.08361033569781, 104.20534573959804 20.2641133044282, 122.12127230315735 -0.04057997951261427 M74.1057571200955 58.81301539944532 C93.03727404026465 37.90072010063517, 111.62393188395043 16.855798447746373, 126.73083639043143 1.7469292478846796 M76.18884941007228 59.76094486838254 C85.85668456573806 47.15558270772271, 96.05304034743251 35.14770103552556, 126.89004640458843 0.9735226202967056 M80.08038090339562 58.63691553721722 C98.50564260815452 39.47987945192261, 117.69037859908153 17.2963192959295, 126.2917638664901 5.077166382053015 M80.61406377407422 58.04276606409397 C91.76936776341378 44.3136430211342, 104.28415710702299 32.08080552732097, 126.36297784483281 6.647114963100371 M87.47891506383316 57.41872845650583 C99.89789290017426 42.93544478552862, 109.47055056757819 30.883777062855888, 124.98039810640495 11.320699598519305 M86.095752106217 58.75960136731088 C101.78830677535 41.481639121534016, 115.86592439991487 25.059646942417608, 127.18941084110867 12.574416481768885 M90.71229357735785 58.59221126639687 C98.4213292963994 51.16887730821937, 107.39665632335233 39.88719547026075, 127.0027859321352 21.18357371159206 M91.71351903674724 58.74636145157211 C102.75839825519063 46.51948764821995, 114.99879363851939 33.70267686333231, 126.64543005717209 19.258133367563886 M97.47151117895751 60.92441252186714 C105.98521660083455 50.54487648909935, 110.85052600661511 39.51517496388025, 127.65677104064017 23.498786660579732 M96.92370964244961 59.99644374880759 C107.03944624151093 47.32051255400193, 119.38970140132204 34.61048090510299, 125.91434671927928 24.934370249246946 M101.66359559458184 59.79049558200231 C112.9005333828742 48.691857762669315, 119.27112342427759 38.3976660756933, 125.05131691690755 30.802918250459108 M103.46413167857068 59.46780580755612 C108.88832147940442 52.02725523847968, 116.78320057804969 42.3723738074472, 125.7747715292148 30.68050893374798 M107.85063530921859 58.523915251779215 C114.96041645155658 51.47920239522543, 124.14568330426656 41.613376644127015, 128.3864200368871 37.36566309031593 M107.7618333468951 59.96439193474765 C113.93145518892874 51.10353299377619, 122.06583574975814 43.40050902072835, 125.8492778672253 36.97599134460585 M112.18575179881752 57.69124114028352 C118.15421786126039 56.03744305690952, 117.2720006989833 52.53039337756947, 126.3921376355666 42.54000723512694 M112.8378255276695 57.94220655392098 C117.917132186695 53.13548555319244, 121.35666223036455 48.852893058435356, 127.01217956009538 44.58374616375044 M118.61238606910045 58.69345640686863 C119.96132728399853 55.633328146811024, 123.76508313966659 54.4077912247458, 127.01529357517822 49.280506514824474 M118.53002541868771 58.66250033357703 C120.8848849834991 57.061863435904215, 122.30994044193832 53.93968140314752, 126.43310947968378 49.47203290227011 M124.11647433640672 58.897464006301625 C124.51544303716469 58.04168182795859, 125.71764416640312 56.80774574255027, 126.83703540878584 55.980596894459765 M123.98110881207748 58.66823910931186 C124.55996731547104 57.85026907725365, 125.18859442476524 57.55797713548048, 126.47417091800114 55.74876222597991" stroke="#82c91e" stroke-width="0.5" fill="none"></path><path d="M-0.9339156169444323 -1.0407455246895552 C36.685282508149506 -1.8382976913747664, 77.86038692901981 0.5081139540376787, 125.79883611474465 -0.28575131110846996 M0.5769691029563546 0.875568806193769 C28.77076059193528 -0.06434257282570988, 57.12136760978383 -1.1164408172543445, 126.23610024705808 0.89117959048599 M124.34686363015602 -0.44955488853156567 C124.76294515430686 19.074218599521554, 126.63829235136268 37.95031943437643, 124.80695063147972 57.890855238558 M125.27606277719418 0.922471790574491 C126.14967458873066 15.96026121912918, 125.88100113897595 29.946444469400177, 125.34354706660191 57.93737502188349 M123.50837475333641 58.33464138281459 C78.73796459518618 59.97166382551855, 30.518944131249825 56.694582276350914, 0.891780911013484 56.63712476265544 M125.89262672320287 56.56147880644465 C85.91686793553745 55.393340307203864, 43.757409540022906 56.017765271393394, 0.7318979958072305 56.92892484159136 M1.454121170565486 57.36379359734172 C1.640734961493693 40.395610082183524, -0.024548182026662257 22.731536140389593, -1.1881515998393297 -1.265875844284892 M0.6043037632480264 57.827724976250174 C-0.5633132878599617 42.416971999186515, -0.8888505224047157 28.305870168057908, 0.7101810732856393 -0.8494114289060235" stroke="#000000" stroke-width="1" fill="none"></path></g><g transform="translate(483.71153846153857 18.480769230769248) rotate(0 22.144230769230774 19.31730769230768)"><path d="M0 0 C0 0, 0 0, 0 0 M0 0 C0 0, 0 0, 0 0 M-0.3765542275877545 5.731018398751609 C1.9911814482617043 3.579123011337018, 3.271943398603532 2.47138938286991, 5.317093938174194 0.7808440457877927 M-0.22771126103120543 6.529857049931876 C1.8089827287435951 4.264156761846245, 3.950188947240988 2.1323647618607966, 5.379954009833282 0.6993631016311459 M1.29993085945953 10.742695564448415 C2.5792379474376688 7.919034184499498, 6.919675774226547 3.2242538231134033, 9.366182269108426 1.0829230303957824 M0.1701029070745813 12.017605990588248 C3.9684879918446225 9.274780003162487, 6.128272828411938 4.716363809573918, 10.059627784741057 -0.8085918669507145 M-1.6320392964920263 19.99143591420787 C3.4484019048317416 11.294841668842064, 9.214827918950958 9.60207852701875, 13.745970554187377 -1.2174134844052622 M-0.8075679122051458 18.049626826216155 C4.871465818163621 12.179691946112623, 10.674387812125415 6.461465294231838, 16.594559408261855 1.0151615447294882 M-0.47644122669480105 23.665903402208446 C5.243907483819256 19.798859909179875, 9.144499854471418 12.957517190800232, 22.205765953564907 0.3255663266568902 M0.06784922650077085 23.110369605659603 C8.267230314292837 14.325890041131535, 15.889154772700238 4.694024887506778, 20.4264260738137 -0.18976914378111331 M-1.7595559944818362 29.613085841525546 C8.633902834348282 20.70353627373845, 13.467839682134564 12.959634708020427, 26.17411414035818 0.6002454640355648 M-0.1442196657369479 29.51301068602895 C10.691399502029492 18.26278834169215, 20.55019099136121 5.878056925108197, 26.681548895921917 0.9833312811341823 M1.7313160541373769 36.6778830269364 C7.183142633782195 25.76229697076262, 15.936835680117174 16.776137373016173, 30.08227379754821 -1.8656858577147837 M-0.9566608724277934 37.34366079960142 C10.766442997202637 23.734558953293853, 20.243715637102728 11.510890453976252, 31.721850620067514 0.14711397152982997 M1.2395516601248744 40.37856601254991 C15.770748982280143 26.044206595999732, 28.674735473418885 12.772344345052975, 35.79976749215399 -0.5881991031486073 M2.5545664098902705 39.45555193798593 C12.54523045022534 28.2998015829886, 22.60708813758426 18.03983377250854, 36.75376787576948 -0.03568159964862261 M5.446791448480649 40.18974417336608 C18.40447384045268 29.57745790668153, 29.066132469330334 15.62371481347137, 41.882853907156516 -1.1646040577114576 M6.158016868717237 39.75200441368247 C17.239140634098383 28.48886896495696, 28.640356852962007 16.197960981856504, 42.076723408508826 -0.8899042803467268 M11.12899895723318 40.78765562505323 C23.693059199196313 30.281087856716415, 32.50306734585827 18.774924116580323, 47.01393755159378 0.27354697448775767 M12.122818104581583 39.43171727985937 C22.959563219934545 26.82422207543673, 34.849785553059355 12.764937942925922, 45.52253578982353 0.8191045628266096 M15.780696753401454 39.03132890305691 C23.99844297852084 30.852911496697132, 31.166752807067176 24.159881960138225, 44.593981963494244 9.777492109117361 M16.8429067470023 40.96993000946217 C23.305739595089307 34.21843698669686, 30.003859082570273 27.072314417515315, 46.04783262024206 8.602543983039709 M21.583143519966484 39.69845422193156 C33.2677997309255 29.875904710864013, 41.30318424610907 22.44453062134912, 46.647040970791465 14.78887365961794 M23.805205541460396 40.85429375454532 C31.89024137824334 28.71394317773425, 41.926365499946066 19.225104222342114, 46.638581790197975 14.455767231233159 M28.155861823947255 39.52306011712273 C35.30063065390118 31.358578085492347, 40.92126521479089 27.32689535336539, 45.35513714050443 20.479220161435038 M29.34115111747486 40.62254798805436 C34.840620613967616 34.03531141770277, 41.2498470978547 25.03319816572241, 46.84496992921026 20.197763780352503 M35.71467612789155 39.20758227049007 C35.181882199434796 39.115700052686506, 37.7625165084874 34.957255462517196, 47.53075507235744 25.932448943919752 M34.83122920648338 39.841238976406 C37.586836515480535 36.7314404388348, 40.54501803562315 31.631751169652855, 46.31773866814592 26.617601249582385 M38.59402501945014 39.79728113462198 C41.62657770002746 39.15275603949164, 42.67251523159565 36.39826479092653, 46.997397570615014 32.21262062292955 M38.81445172045942 40.8145655532645 C40.36375518953218 38.48390445054109, 42.28659091467526 37.61815857658117, 46.3770681890895 32.49304500472209" stroke="#82c91e" stroke-width="0.5" fill="none"></path><path d="M1.6221819519996643 0.34500497579574585 C18.76309168986403 -0.5406863484073144, 33.807382775384646 0.42946936753506837, 42.426598461774674 -1.9925747513771057 M0.503989189863205 0.062183886766433716 C13.90424229772045 -0.3112533525262887, 28.93239457549957 -0.09779910600529262, 44.41910153856644 0.123445063829422 M45.48615351548561 1.7894229292869568 C45.434790188767586 15.760409024529723, 42.94696479509083 28.68641220961624, 46.17697420945534 39.029756926573214 M44.18778592577347 0.28749993443489075 C43.93053337238729 14.731892810475358, 43.26668544910848 31.34574979784395, 45.07221871843704 39.37744998244136 M43.132525356916275 40.439196013487276 C34.70862967870556 39.76285473970837, 23.895146598151094 38.95237080721325, 1.719515860080719 37.384697341001925 M43.459311308769074 38.72387789992183 C29.121946702152485 38.80943386719201, 13.027715640457771 39.41223137543176, 0.2925567328929901 38.64066886214107 M-1.3195618987083435 38.06220283416599 C1.049054911635243 26.54493617512857, -0.2499277086040148 14.963155355934902, 0.31278711557388306 -1.453144133090973 M0.8683700263500214 37.72415732649654 C-0.572880504813332 28.739915928416508, -0.7832982523108906 17.4661542666646, -0.5744066536426544 0.8164220154285431" stroke="#000000" stroke-width="1" fill="none"></path></g><g transform="translate(10 19.48076923076922) rotate(0 52.5 20.5)"><path d="M0 0 C0 0, 0 0, 0 0 M0 0 C0 0, 0 0, 0 0 M-0.3238790280790875 6.015573881615989 C1.8135683437455423 4.698394561482983, 4.714402314266526 1.830692803747266, 4.7584089692258305 0.4987079392967039 M-0.5094424612494061 6.2830913171666785 C1.475984928059222 3.7509936912278734, 4.004574633751151 1.6634347678111072, 5.268954163374848 0.22577470651243264 M-0.7562818518746985 12.898906749903738 C3.6478043751753972 10.316781992271576, 5.653989279034951 6.9513742107292575, 11.494182814610136 -1.4027450566098332 M-0.23032696162353883 12.46741406363207 C3.8191713418573636 8.123979736169105, 8.000380404816738 3.3699737687938884, 10.126100076687468 -0.1245873217389224 M1.476478231088235 19.241009740997725 C3.5047194199083727 12.619880028665264, 10.226976157901078 6.784853177819096, 13.66764039500006 1.7074723846209219 M0.04613707675130563 19.243148743082457 C4.752094350770408 13.14580360790572, 8.461477487118634 7.146695834770798, 16.05783203943022 0.6483406728995016 M-0.45293422767899294 22.372252894281505 C5.983631081602757 16.001216023006684, 14.922724651206506 8.470477217231036, 21.324529758000637 -1.8268297562212226 M1.0297638254425738 23.68997512543118 C6.167963744565541 16.92657165683284, 10.516954105473078 12.235652991520439, 21.955488881373668 -0.7989854166120764 M0.1456152806570188 30.135708069194308 C9.683241233296052 21.32139674206627, 16.169818352169518 11.92233710892275, 26.03086546310446 1.8433457495656551 M0.8458874533464567 30.973755961049548 C7.690442008093224 23.04129257724758, 14.26465134732527 13.194452098371553, 26.190525415029736 0.7888851346459926 M-0.9097048399132213 35.958306310513365 C8.428751291582042 24.940014741534164, 15.673852554219184 14.759790844850329, 30.698374943292535 -2.0472796334639902 M0.7101373019534627 37.358336357214796 C9.049875522334364 26.4740110238548, 16.78846347389711 17.415261350778795, 31.915880010879434 0.1398378537281637 M1.7928328435913095 42.574769082793125 C10.774730032411352 31.9328543650594, 18.580572762884568 22.19998925229658, 38.55204951558386 -1.1826461198646108 M0.5254517417446145 40.82160184098137 C12.998866560566176 27.301245699601548, 25.702101435606664 12.896630643615424, 36.691504923441755 0.46934658857998457 M6.570632851123136 42.518189109919724 C20.18596095973746 25.661760869495446, 28.748224199322046 13.672852361176865, 44.37861661295943 -0.20303224508175788 M7.194196230172437 40.54605919873541 C18.197810519127657 29.46226385544888, 28.217489428573053 18.11151543851101, 42.7328385231977 0.44279686625590386 M12.149832325758208 40.195383658675354 C23.45869219361761 24.312042285975927, 37.63337805615441 12.62845817557941, 47.27806755243826 -0.667378223669882 M11.12121884781288 41.99418975975911 C20.692888668893893 32.95712604080884, 27.289075935255454 22.62702097420744, 46.66233306466627 1.2131625347014712 M18.09859967148703 41.283283773837226 C26.01587800617567 29.152245014273447, 39.78527522744326 16.16188287879108, 53.91212976700133 -1.0909625910745255 M15.647148936156448 41.30483863132967 C26.998707479711733 30.455323813097657, 36.611165802179286 18.81854288205395, 53.757926918328465 -0.616670879028856 M20.92260329230011 41.52132050018258 C33.82595085607011 26.566977105737585, 43.17332863891751 17.1773073258023, 59.25579457366766 -0.9077255618501461 M22.14386583669365 41.085600920724346 C35.990199261057725 26.214187199486947, 50.97253422247744 8.857357466540165, 57.70457233870329 0.04377047301046488 M26.096834505216425 42.97555362315696 C35.4467897645343 33.04964552155662, 46.69273577087793 19.203009124626842, 61.84578940541823 -0.5079456714422932 M27.04632180394346 41.67695047588867 C37.056377259614976 30.632071279857815, 46.83556637628499 19.075196163714367, 62.84270769627173 -0.2651278821261158 M34.65802074321701 42.75570460731482 C44.30093446343092 25.114263411950198, 57.512135076680565 12.964308507930376, 68.53210557927206 -1.2005631344054208 M33.444955208386915 40.86927282387709 C43.20199681810345 31.038229590407248, 53.150378095699416 18.57384422810453, 67.9197852455528 -0.5153920964930521 M35.95615332332083 41.0528332381017 C46.968222189693 33.34013059200811, 53.810843616436856 20.42784626619203, 73.72647052821013 -1.2508564861850573 M36.83721830454298 42.94054181263516 C47.43185392683826 30.473468889681335, 56.97908017533868 18.29337753796069, 74.3387433570275 -0.2291366430358721 M42.90295967850891 41.101660980072054 C51.83965042871549 31.46338422476517, 57.647301277340816 25.030076761213238, 80.15387556925145 0.15723405866431506 M43.37604946289268 41.61864296921733 C52.380838413024556 31.641894294673683, 60.24095221004988 21.575950466084223, 79.90953428521482 -0.44088767380905836 M48.723431125800225 41.21824761867143 C60.55439478792729 26.742517620573572, 76.57936504606751 8.343003563121194, 86.10104813537703 -1.1165700353028285 M47.621400937954995 41.11905014156915 C56.63385241146868 32.9829297678562, 66.54956459580904 22.74063132230043, 85.09759640059576 -0.7352596617581355 M54.2042950981758 42.76231461845428 C60.88994212415622 33.5192089746183, 67.5222773944231 23.829746042220744, 90.16797954360584 1.8687910173590438 M54.78871110021094 41.10714885674507 C61.29463609322827 31.875635804986615, 70.14049522755604 21.98002090977295, 90.77538195768932 -0.20927875893757175 M60.44554291265462 42.174921764866156 C68.8747771147665 31.506554769881504, 82.92669829806346 16.231076113593108, 94.51639722691894 -0.9019613187955997 M58.50043220417951 41.735912962690634 C68.12539007480173 29.77321698144713, 79.52007530889342 18.954291302146544, 96.47082932697654 -0.5100594382928989 M64.1089020022177 42.94079052246151 C78.47806174847953 23.977680142040487, 93.029786099879 11.137682776906239, 101.62129250233525 -0.36276725832122025 M65.03450262034171 40.60822798646031 C75.75588268424221 29.7656357420705, 86.20231357753718 15.851773379650638, 100.11889076297635 -0.797127851878578 M70.16936368388403 43.62598067668589 C84.23394084030903 26.335697693435804, 99.382484650329 10.205896292940487, 104.86333377384533 0.3508042435594092 M69.07587460321653 41.81456777599963 C76.33520265262032 33.063663083877834, 85.51056950242504 24.798333255221923, 105.6539456071793 -0.02538889241738218 M75.1636553906346 41.84021369209374 C85.50244141541724 28.827496731032365, 99.02299608516829 15.17499748495947, 106.65615818452508 4.9580704536284586 M75.96498652328498 40.89531785836304 C84.3598785545754 31.22804069604558, 93.77045495959351 21.561742754342973, 106.1370919401613 7.111388769372859 M79.94176843948843 42.27454935413063 C88.18020171682396 30.849185085614426, 98.94526402283755 20.699489448772532, 105.50390637028912 14.410785774880992 M79.44929063506605 41.87845208149612 C86.60977956449058 33.752069152157475, 93.56776207418775 26.72597525977357, 105.81368133533695 11.558123598987208 M84.91543026342652 40.663709127350984 C93.20180579341509 33.80230612105351, 100.61976128175428 24.987357183306568, 103.63156964815637 18.02500999276255 M85.93172530904076 42.241855972453294 C93.28879840770453 32.269345317782, 100.96244742723414 24.401357010565185, 104.7436660472252 18.030289444371206 M90.80963217946783 43.823752797200356 C97.1305384403245 34.5918383644638, 101.03361262891616 28.976707804309232, 106.16981642211738 24.915174152050348 M90.22224279972806 41.95100337918011 C95.6414823584788 35.929661534859875, 101.11570228902652 28.400246350899216, 104.98642541731658 25.447981412802072 M97.47722521940742 41.566640179339856 C100.6635006551828 38.71211702549215, 104.39021891321724 32.83441272798902, 105.32567257406602 31.847525170906106 M95.98985111931833 42.131454779688326 C99.25861867117598 37.424901851409885, 102.77036126584157 34.72735730754961, 105.63771415772328 30.406809890730898 M101.8622526216319 42.16372739681954 C102.49391857407576 40.67061956435939, 103.84576454363437 37.97437416992886, 104.88776866843871 37.36823492250195 M101.16519172964601 41.73741034576649 C102.72532676211283 40.28907720445876, 103.64046193645373 39.07768775705679, 105.52250909557513 37.32339322468987" stroke="#15aabf" stroke-width="0.5" fill="none"></path><path d="M-1.7167072892189026 0.8224421143531799 C41.29418994486332 -1.169281716644764, 83.48276051878929 1.9661228701472282, 103.21579355001448 -1.4295472502708435 M-0.7105641067028046 0.36000534892082214 C22.522779181599613 0.09682407528162007, 44.65800845623016 -1.1008068069815635, 105.40852788090704 0.04933926463127136 M104.46019357442854 -0.995968759059906 C104.40508378475903 9.836776295304299, 106.61107934445141 22.336574572324754, 103.33013337850569 42.86831384897232 M105.50153782963751 -0.2674255669116974 C104.09317653566598 15.41011261045933, 105.91136711031197 30.41183902025223, 105.6270079910755 41.30273720622063 M104.93634980916976 40.54163843393326 C77.93818889558314 39.80443322211504, 54.34817007184027 41.43727433234453, -0.7972870469093323 39.156958639621735 M105.16020348668097 40.18250557780266 C81.83665691316126 42.713021884858605, 57.33101195096969 41.22077430337667, -0.17181536555290222 41.30048939585686 M0.3113707900047302 39.17940431833267 C-2.1457480236887934 26.729889664053918, 0.7483578875660897 8.029459482431413, 1.8706416487693787 1.7430277466773987 M0.6062531769275665 41.44710347056389 C0.15150654166936872 25.026033303141595, 0.3746653780341148 9.356885743141174, 0.6341281235218048 -0.0013494789600372314" stroke="#000000" stroke-width="1" fill="none"></path></g><g transform="translate(295.25 25.27884615384614) rotate(0 51.59134615384619 14.74038461538462)"><text x="0" y="20.480769230769237" font-family="Virgil, Segoe UI Emoji" font-size="22.677514792899416px" fill="#000000" text-anchor="start" style="white-space: pre;" direction="ltr">Knot API</text></g><g transform="translate(485.5961538461536 24.33653846153843) rotate(0 19.31730769230768 14.605769230769226)"><text x="0" y="20.211538461538453" font-family="Virgil, Segoe UI Emoji" font-size="22.677514792899416px" fill="#000000" text-anchor="start" style="white-space: pre;" direction="ltr">DB</text></g><g transform="translate(24 24.695054945054913) rotate(0 34 15.5)"><text x="0" y="22" font-family="Virgil, Segoe UI Emoji" font-size="24.065934065934094px" fill="#000000" text-anchor="start" style="white-space: pre;" direction="ltr">Client</text></g><g transform="translate(293.38070117181314 194.43521836904472) rotate(0 50.243658232658106 8.37394303877636)"><text x="50.24365823265809" y="11.747886077552707" font-family="Virgil, Segoe UI Emoji" font-size="12.882989290425161px" fill="#000000" text-anchor="middle" style="white-space: pre;" direction="ltr">Message Broker</text></g><g><g transform="translate(342.3390325432007 168.73751952310525) rotate(350.25459692348977 8.718966280829875 -37.49024563590612)"><path d="M0.8702544283121825 0.8515090573579072 C3.806971942078561 -11.73767339913357, 14.874304259774538 -63.26052379003707, 17.569933287823144 -75.83200032917014 M-0.13200072616338732 0.2529473671317102 C2.7205524566436714 -12.152654826698784, 14.280096442831013 -61.77605547099353, 17.03858437905604 -74.5751754260545" stroke="#000000" stroke-width="1" fill="none"></path></g><g transform="translate(342.3390325432007 168.73751952310525) rotate(350.25459692348977 8.718966280829875 -37.49024563590612)"><path d="M-1.7099345845127418 -27.557866877091257 C-2.9104516851595896 -19.66851742073476, 0.3636551765901155 -12.177865996722481, 2.5607948593795298 0.9286571092903613 M-3.7860589667180493 -28.1579203094888 C-1.8179916662403366 -20.341820678989535, -1.471552762746045 -11.957238601807664, -0.12599940393120046 0.6827728370204567" stroke="#000000" stroke-width="1" fill="none"></path></g><g transform="translate(342.3390325432007 168.73751952310525) rotate(350.25459692348977 8.718966280829875 -37.49024563590612)"><path d="M18.337244432614188 -23.172594269703517 C11.21757475869999 -16.4350342052888, 8.561678947584198 -10.241556725841818, 2.5607948593795298 0.9286571092903613 M16.26112005040888 -23.77264770210106 C12.175041493398101 -17.365205741295526, 6.4936797435436 -10.299190683709845, -0.12599940393120046 0.6827728370204567" stroke="#000000" stroke-width="1" fill="none"></path></g><g transform="translate(342.3390325432007 168.73751952310525) rotate(350.25459692348977 8.718966280829875 -37.49024563590612)"><path d="M22.269537872303314 -43.495474610314226 C18.90565512080969 -53.146486537261964, 19.86920766967733 -63.25284384118799, 18.729124810123388 -74.49802737412205 M20.193413490098006 -44.09552804271177 C19.45543083031845 -54.201750864729675, 17.45320961254195 -63.70438850038396, 16.042330546812657 -74.74391164639195" stroke="#000000" stroke-width="1" fill="none"></path></g><g transform="translate(342.3390325432007 168.73751952310525) rotate(350.25459692348977 8.718966280829875 -37.49024563590612)"><path d="M2.25041524783175 -48.00709646195583 C4.797073307738787 -56.46874112520284, 11.682329382579729 -65.24055008113754, 18.729124810123388 -74.49802737412205 M0.17429086562644258 -48.60714989435338 C5.482777109032759 -57.266850345725786, 9.499920527655533 -65.41293017732424, 16.042330546812657 -74.74391164639195" stroke="#000000" stroke-width="1" fill="none"></path></g></g><g><g transform="translate(252.65088586413367 48.100248360985894) rotate(350.25459692348977 -59.182265678546344 -8.821005746099553)"><path d="M-1.0387189507484436 0.7975284218788146 C-21.0561538878642 -2.316950224629111, -99.42564224777742 -15.140088123038744, -118.98134622786192 -18.43953991407792 M0.6168148707691579 0.17062689802609388 C-19.12616230738349 -2.8033688402925345, -96.75956134800798 -14.088975352386344, -116.74480412255039 -17.155574421317155" stroke="#000000" stroke-width="1" fill="none"></path></g><g transform="translate(252.65088586413367 48.100248360985894) rotate(350.25459692348977 -59.182265678546344 -8.821005746099553)"><path d="M-29.179564461691317 4.902157409179817 C-19.725412282393524 3.96160486904294, -9.058578507540101 1.5873098487991681, -2.318263840675354 -0.11385324001312269 M-31.50640238879436 6.10857821821035 C-23.280656976115736 5.0855075119475135, -17.5768537561431 3.7998978372287873, -0.4806053459644317 1.4993449509143828" stroke="#000000" stroke-width="1" fill="none"></path></g><g transform="translate(252.65088586413367 48.100248360985894) rotate(350.25459692348977 -59.182265678546344 -8.821005746099553)"><path d="M-25.893409432856853 -15.354228929757971 C-17.69095480137569 -8.350205723566727, -8.317569006308844 -2.7514800682861456, -2.318263840675354 -0.11385324001312269 M-28.220247359959895 -14.147808120727438 C-20.674442009535206 -10.410724240966225, -15.742194933962375 -6.94033816806893, -0.4806053459644317 1.4993449509143828" stroke="#000000" stroke-width="1" fill="none"></path></g><g transform="translate(252.65088586413367 48.100248360985894) rotate(350.25459692348977 -59.182265678546344 -8.821005746099553)"><path d="M-86.0208085185713 -24.66038664599438 C-99.7122405634429 -21.540935343538646, -112.21491922865187 -19.345692971199256, -118.0243490124773 -18.066956083209092 M-88.34764644567434 -23.453965836963846 C-93.89026612241976 -21.676759325165733, -102.0073354580079 -20.236588985991716, -116.18669051776638 -16.453757892281587" stroke="#000000" stroke-width="1" fill="none"></path></g><g transform="translate(252.65088586413367 48.100248360985894) rotate(350.25459692348977 -59.182265678546344 -8.821005746099553)"><path d="M-89.04400520704739 -4.363089186267702 C-101.58732581794987 -9.206592628506964, -112.90005829532065 -15.000473764963907, -118.0243490124773 -18.066956083209092 M-91.37084313415043 -3.1566683772371693 C-96.29544775560807 -6.148889180566263, -103.70270091993962 -9.474320108632867, -116.18669051776638 -16.453757892281587" stroke="#000000" stroke-width="1" fill="none"></path></g></g><g><g transform="translate(438.0955774820135 66.07493212447352) rotate(75.22099916712834 5.667773329188435 -26.193625145150598)"><path d="M-0.034599459171295255 0.2495063424110413 C2.229782177674373 -8.174025891771311, 10.900633844075601 -42.2513346838474, 12.84744956295252 -51.09929318756101 M-1.5119029045756907 -0.6651067731622606 C0.7221632368385544 -9.347918977573286, 10.254374913446481 -44.10617508206403, 12.277747724095956 -52.636756632712235" stroke="#000000" stroke-width="1" fill="none"></path></g><g transform="translate(438.0955774820135 66.07493212447352) rotate(75.22099916712834 5.667773329188435 -26.193625145150598)"><path d="M-2.283183176995958 -25.21840361391837 C-0.3302844881339566 -20.8608706034859, -2.593257554752701 -12.047990101686489, 1.1884401082992553 1.592467713356018 M-2.2699799435155046 -25.885120278947895 C-1.6290667403150776 -21.105184474897424, -1.2473013810451627 -16.445674272803686, -0.04831946492195138 -0.02889124751090999" stroke="#000000" stroke-width="1" fill="none"></path></g><g transform="translate(438.0955774820135 66.07493212447352) rotate(75.22099916712834 5.667773329188435 -26.193625145150598)"><path d="M15.482677766396675 -20.691703735826103 C13.220715531148581 -17.41859408979358, 6.721828621942606 -9.68501454255783, 1.1884401082992553 1.592467713356018 M15.495880999877128 -21.35842040085563 C12.547935387993178 -17.421021501389454, 9.298059517852266 -13.686845003236638, -0.04831946492195138 -0.02889124751090999" stroke="#000000" stroke-width="1" fill="none"></path></g><g transform="translate(438.0955774820135 66.07493212447352) rotate(75.22099916712834 5.667773329188435 -26.193625145150598)"><path d="M15.2682105443008 -24.75784506260064 C16.22007055886969 -33.12130412936065, 12.707951738881112 -37.02790513661381, 13.500787291566507 -51.29379526176726 M15.281413777781253 -25.424561727630167 C15.355565192989792 -31.5251985479144, 14.666381192083263 -37.77067725295817, 12.2640277183453 -52.915154222634186" stroke="#000000" stroke-width="1" fill="none"></path></g><g transform="translate(438.0955774820135 66.07493212447352) rotate(75.22099916712834 5.667773329188435 -26.193625145150598)"><path d="M-2.4823084559922854 -29.34433632134284 C2.6804764238856973 -36.60912038962511, 3.400613467321131 -39.42216438471237, 13.500787291566507 -51.29379526176726 M-2.469105222511832 -30.011052986372366 C1.190203760270692 -35.25685903646048, 4.129524837181937 -40.564781672217606, 12.2640277183453 -52.915154222634186" stroke="#000000" stroke-width="1" fill="none"></path></g></g><g><g transform="translate(348.4091008988007 322.0176277596867) rotate(350.5482302579449 8.536228770389528 -44.200965132521674)"><path d="M0.04654410593211655 0.33053744919598094 C3.2847108110907444 -14.449763337260178, 15.483093953193606 -73.99841288420404, 18.46061650857196 -88.7324677142393 M-1.3881589677929878 -0.5415343353152275 C1.7918759114417195 -15.16320429529815, 14.547359123067439 -73.13439790437961, 17.603506368024803 -87.49606206602269" stroke="#000000" stroke-width="1" fill="none"></path></g><g transform="translate(348.4091008988007 322.0176277596867) rotate(350.5482302579449 8.536228770389528 -44.200965132521674)"><path d="M-3.7149403607489857 -29.069217423326016 C-4.2882772760859 -23.475070352106435, -2.244772806548122 -17.367621543926248, -1.8649775691330432 1.2677603788673877 M-4.194641772659341 -28.73607174807662 C-2.4613836252844656 -19.829192229941, -0.3910639286461177 -9.572065670659484, 0.514669524691999 1.21262640748173" stroke="#000000" stroke-width="1" fill="none"></path></g><g transform="translate(348.4091008988007 322.0176277596867) rotate(350.5482302579449 8.536228770389528 -44.200965132521674)"><path d="M16.377325332808937 -24.89538684634821 C11.399489452683524 -20.208773344471794, 9.036732801101563 -15.016651243491912, -1.8649775691330432 1.2677603788673877 M15.89762392089858 -24.56224117109881 C10.905929038154703 -17.114524743488012, 6.257356742310209 -8.253135094585282, 0.514669524691999 1.21262640748173" stroke="#000000" stroke-width="1" fill="none"></path></g><g transform="translate(348.4091008988007 322.0176277596867) rotate(350.5482302579449 8.536228770389528 -44.200965132521674)"><path d="M22.205263169369662 -57.482127875474276 C19.822940061664077 -64.91423957867883, 20.03237437665168 -71.83629337481874, 15.691984692959643 -86.55883913635128 M21.725561757459307 -57.14898220022488 C20.57585833948974 -68.13655432002282, 19.849494195491932 -77.74747876992743, 18.071631786784685 -86.61397310773694" stroke="#000000" stroke-width="1" fill="none"></path></g><g transform="translate(348.4091008988007 322.0176277596867) rotate(350.5482302579449 8.536228770389528 -44.200965132521674)"><path d="M2.150518919225913 -61.83267214569676 C4.164391665829398 -68.31848217357276, 8.771858598499362 -74.28645570987726, 15.691984692959643 -86.55883913635128 M1.670817507315558 -61.499526470447364 C7.233776492374782 -70.96896054912274, 13.2137570985753 -79.12505469238293, 18.071631786784685 -86.61397310773694" stroke="#000000" stroke-width="1" fill="none"></path></g></g><g stroke-opacity="0.9" fill-opacity="0.9" transform="translate(278.1279171273927 338.68513150138125) rotate(0 61.09343537217012 33.57807134958969)"><path d="M0.42604425735771656 1.5823469143360853 L123.65477266151476 1.0934439282864332 L123.81873305875826 66.78192196844252 L-0.008893398568034172 65.86290042160185" stroke="none" stroke-width="0" fill="#7950f2"></path><path d="M1.414528189226985 0.6902221757918596 C45.100244402786856 0.13283717945728368, 88.40613693165434 0.7301891477457053, 122.59867541853356 -1.7765720169991255 M0.11078886780887842 -0.11056199762970209 C30.17161262740148 1.604907031870684, 62.579284874848085 1.1859903594024985, 123.01985848590749 -0.8487268099561334 M122.37209050718712 0.7431723792105913 C123.74501040967789 15.799013337754678, 120.34674272331085 28.177091311069272, 122.76719223324227 67.85473348630698 M122.405257112235 -0.27163535449653864 C122.30028101457775 26.45946633373343, 121.65854257001102 50.877151540945334, 121.8662417297067 68.07297732086958 M122.52945314709115 67.95130588544639 C78.45009332679024 68.01497129217705, 37.67779947023443 66.7936396361979, -1.2915536183863878 66.57142956985267 M121.70631412312406 66.20747997017683 C88.83218214935137 66.84645308601868, 56.71243040171393 66.56395952451241, -0.8089539846405387 68.13835011573615 M1.5889476519078016 67.24824794067176 C-2.1160428827583897 44.77020797616416, 1.6968901449859035 25.812281002989565, 1.0121827702969313 -0.925494996830821 M0.7140636602416635 67.72308622451605 C0.868397405727714 42.23457163992677, -0.4590500384728018 18.06710102353818, 0.3894056538119912 -0.9996848413720727" stroke="#000000" stroke-width="1" fill="none"></path></g><g stroke-opacity="0.9" fill-opacity="0.9" transform="translate(287.4551591689469 345.2142009304683) rotate(0 61.09343537217012 33.57807134958969)"><path d="M0 0 C0 0, 0 0, 0 0 M0 0 C0 0, 0 0, 0 0 M-0.7597554929228374 5.822739408959739 C1.3476962627850897 5.192362168792391, 2.7341342217734774 3.8931294010270534, 5.27917312938208 0.7054828416404538 M-0.5291018850775311 6.103043709744804 C0.9055386712131458 4.554189097062897, 2.6777509919377636 3.028924369214344, 4.680349427046722 0.48654741159055764 M-0.8460035315621985 11.543706554591237 C2.5853248749368305 6.938596083387574, 7.805199247773757 2.7763188021608824, 9.442742384922635 0.7162734980776668 M0.008088565720211216 12.22333447378832 C3.8460607760237857 8.77546015318833, 6.999315051857123 4.715039394385009, 10.964124979031217 -0.6245262865826725 M-0.75188480602114 17.9288454343571 C4.670671659085133 12.579114465341133, 8.778915946166004 8.082103473527916, 17.143378920390685 -0.9181684845197031 M-0.011800545319006872 18.53619378702777 C6.754014153781536 11.009080243418579, 11.100703496430766 3.8992121220524396, 16.421281136109908 0.6996864980948141 M1.108741797711632 26.03567452514088 C7.8167632231896516 14.999648730871742, 16.45574847688437 5.903529269794873, 21.74655734589126 1.8668653121381524 M-0.5872558278777387 24.53428970062649 C8.420728993494365 14.581697869328918, 16.93913080458845 5.326271045752435, 21.931730946803356 0.38175493983323605 M0.4035803685476438 30.368465637553683 C7.521433407574372 22.93239463302896, 16.081329275761497 13.447189753482895, 27.305432113495083 -1.5498732445749699 M-0.03333923122385585 29.82246506749486 C9.839336049194713 19.57798009189191, 19.52897686184973 8.462281770103345, 25.576435449209423 0.052145022341305136 M-2.0492006895225963 35.35414981637274 C11.983931964657437 22.39199038005411, 20.916391396174728 11.425853351716182, 33.73173065618316 1.0663373098953848 M0.3655785861331502 37.16456499491011 C9.206133340813663 24.937343908645317, 21.17958981582608 13.781077442725088, 32.00833301380912 -1.0612577273265238 M-0.49393297250857415 43.482158106375266 C7.557245837595056 32.2714538832656, 16.98622583523619 21.7353674423938, 37.250444290974485 1.0315567609947642 M-0.6436230343162066 41.79318459014945 C9.837649709782607 31.457507164104825, 18.576913549513183 22.319877960563534, 36.28737589512144 0.7570205387752971 M-0.20562516339131065 47.56855029300682 C17.361516247740717 31.605544101811677, 32.95896018424719 12.346016185198224, 41.64830045085006 0.7055065732776171 M0.749008161947053 48.67379770115845 C12.112714713087975 34.739517803332916, 26.469940233597637 19.715426079976034, 42.12900246362739 0.6723653477012164 M1.102450170810208 55.47304784082185 C13.876630713381516 39.11777754617269, 29.97190577271685 21.053842168870382, 47.025290452828884 1.529246532189493 M1.0089105454039426 54.22178985499154 C13.239468236463543 39.849663721741635, 28.5833158552525 23.15688169108705, 47.65566497384596 0.3377505473967837 M-1.9697156528850286 62.136710535265905 C12.584615893758887 48.1697112033109, 22.19851849973456 34.64496791456364, 53.04314172989196 -0.012501897715150534 M1.0085363705734522 61.34013489959429 C10.471642954928145 49.55977020827756, 20.939719134820518 36.496701105284984, 53.64530179625815 -1.1439383350835435 M0.08354576951348491 66.29896942111621 C18.196481102914376 45.50222681735363, 38.87951441117705 22.267933906782766, 59.67684559905828 -0.3536789309907711 M-0.38023502105391316 67.13642794224391 C11.42895319217692 53.69561500491858, 25.140230252842763 39.59251116009467, 57.282865185382974 -0.18222745179422262 M2.329638957958281 71.74291722225891 C24.694880892969866 46.988351637446115, 43.83625087124394 21.81012424467759, 62.463129493308855 -0.8845631030829182 M3.369961827974379 69.16817576932655 C19.92862908306657 49.765001541062176, 38.18661145892203 28.554669222611004, 64.40879351170142 0.2632687243191967 M8.837114258458865 68.84240414391675 C32.88905711590455 42.614731409953876, 53.359670769745875 15.47290968484473, 69.25198472966268 0.08590537145395416 M8.881388201167834 69.98989264856496 C22.32663016930927 53.320253351054575, 35.979485155813606 38.77782221129969, 69.27053902973249 -0.27947595879773957 M11.98778590106268 71.05261871220364 C27.120872760943186 51.71724562278506, 39.94876387741036 37.33801124734247, 75.45513874110075 -0.7075520428256823 M13.183319266073894 70.64368116857304 C36.40081575925554 43.65956433286802, 59.49614780867738 18.536729899028273, 74.77104010995718 -0.8325759740905596 M17.693381318750763 68.608282391674 C41.099993602293324 44.13676640681412, 59.7266291748239 23.682559492609606, 80.79758284464208 0.5511244395236901 M19.9286933931736 69.35742685640521 C37.203603377494424 47.7852150392015, 56.360289949784644 25.600174044483147, 80.2202490068945 0.06944252638625414 M24.17889182854208 70.82545496777337 C35.588270021482614 54.29344431203699, 46.95321239409478 41.13730677026885, 84.56604447326765 -1.2783437169434535 M23.177462836985914 70.84660356000703 C48.16186931374811 41.42124091865483, 70.56693239105712 13.394975073725895, 85.58360409102545 -0.658034930312823 M29.231044863417655 70.06385790505622 C53.54847142688451 42.34507236025043, 77.5456509970632 16.771819729900464, 90.36051494399646 -0.25489672678158115 M29.645065967991858 69.27659680643295 C55.05004286155909 41.425222548669964, 78.06267665815972 14.199906807035198, 89.233557616869 0.38796550375774075 M34.949831740396476 69.7645509889681 C48.59917826353896 53.15435183422716, 64.94603302257124 34.18726793330513, 97.34272168980957 0.6061868745637753 M34.453955040710426 69.30038044362851 C50.26200880690092 50.95147061763707, 65.24083566328144 33.13514005817593, 96.19804795490623 0.0603293556524136 M38.99697989245956 68.41225568406345 C60.459444779239774 49.40311892347391, 76.08320944781315 25.58563456200674, 100.98765602772588 1.3709668725381547 M39.38206842562263 69.02083999864819 C61.369279177714205 43.68029025265875, 81.93675973188502 19.783460791480984, 99.91202735965604 -0.30046952668326554 M43.34748063662588 71.57303177578783 C58.643340118805995 56.06185248361964, 70.8592759524392 37.31983066564621, 104.33204539072645 1.1491647316960112 M44.61435837724745 69.0284493194375 C59.85147491869366 54.50988418556916, 72.81447109583459 39.55535476413919, 106.46593420159948 0.0959543838051573 M49.538061405876455 67.85660072869568 C74.56587805603021 42.549057815164815, 98.27463174573947 14.798653598464277, 110.72588109583027 -1.8681597625171165 M50.99126326606589 69.36359393305092 C63.814419213386664 55.75578163060046, 76.03604455319169 40.90763318950519, 110.35722073525555 0.5275749350632211 M55.41871351723028 68.95402232823257 C78.37969003639355 43.29793695160456, 100.99925908688792 16.591177466605018, 114.42483154702785 2.30842443467602 M55.760235346596964 70.554247687434 C72.78930232197882 51.577403517885614, 89.86047852242679 31.428408560185353, 116.08276630211475 0.47698723436817403 M62.40116440366836 69.60001803895292 C82.75131519390976 47.493261133255004, 100.00923778257112 23.746051587332808, 120.62206514830967 -0.26915163194738057 M60.824212989321666 68.57829610964117 C83.15050729976558 45.15005021874751, 104.65107468156741 20.120562766439072, 121.17070024366757 0.8955363889972148 M68.21040538220967 71.6106476463023 C80.73838288413744 51.824110473528975, 98.45441774065702 31.06623235172836, 123.51189612972323 3.041800563726561 M66.49314844875897 69.90121304761799 C89.17374044477347 44.815078815162124, 111.85916527800694 18.539725828105546, 125.24404772746149 1.7315749875642226 M74.13316388583526 67.84563261483515 C87.13362661600254 54.84511280818758, 101.61530572075677 35.6674029889441, 123.5064338662685 9.172921646697851 M71.73248009538993 68.43838402841891 C88.17743160884343 50.36835212819808, 104.59904734251862 32.5314223671055, 126.2373790659965 8.628657717569205 M77.76943123156408 70.24603272999703 C91.50413439495426 53.21333141485472, 104.59089898530968 37.566541095500156, 123.923464819917 14.854223501298144 M77.9146601837335 70.59278289998947 C89.06835164441578 56.42011500866707, 100.77201171525905 44.02335104766196, 124.08469165874413 15.434960525843813 M83.62487582338665 70.55127903656516 C93.15263982638595 56.46206227483244, 104.98745083428562 45.6714311448395, 125.70615739465927 22.3876371723047 M82.41156805528018 70.97200476960693 C97.27841264542118 54.530944552741246, 110.36319504153812 36.55156351479228, 124.4391148471949 20.97682851966531 M87.14266606529347 68.56330257931677 C96.016975230343 59.866477383728224, 108.61657436770547 45.622407623210876, 126.73517999448578 28.13759370449474 M87.6263330515205 69.65239474454847 C98.41290243641089 56.86474989205312, 110.33269234224113 42.491064650082734, 124.98502797283928 26.549356806310918 M94.73529327430354 68.41066314369739 C102.81228146423237 57.62269155120735, 112.66290497164245 46.19766799800588, 125.86052393641555 34.79515288331378 M92.02515742697345 69.44317667275966 C101.79805602298846 58.78928423392302, 110.98640154319473 48.69452098255405, 124.4698832901963 33.18051923372615 M98.37698488339788 71.2655821942615 C106.84749250628833 62.67146943874934, 113.35297162016485 51.306789411065594, 125.49391665342958 40.095036173316316 M97.72972955212003 69.60348608129496 C108.43873709965692 58.74754522603881, 118.75743974550338 47.32564119438995, 126.29661916974695 39.3482013289655 M104.35523220959544 71.3816195164546 C107.06077163003782 64.99951543690509, 112.98207188144511 59.895972538007584, 124.36034946254682 44.853303359947866 M104.26875168147922 70.88004681809988 C110.22943950598952 61.678985031379, 116.31628573131894 53.14825318209237, 124.27518786601019 46.01787693997449 M108.51926268587727 68.05599657483123 C112.97918555605528 63.226734654923746, 115.83315498627654 60.537016645179364, 124.09049076775784 49.68438548798567 M108.82641218553204 70.46949441022895 C112.37175184168836 66.00214646444834, 115.60075020825165 62.79696492304484, 124.21496872047658 52.359641174030365 M113.18507696895256 69.71660934088823 C116.11933874665377 65.94447497730391, 120.64941165648831 63.623791103792534, 125.24582763510051 55.55034929158474 M114.00307080505743 69.1970719590604 C117.35019100787721 65.32975282079214, 122.137306995223 61.33213635592787, 124.99429742144648 57.035405997357614 M120.46537238752278 69.61601560256054 C120.98507556213377 66.96361858542633, 123.14220221611419 65.06120836732266, 124.32146409576518 63.17808032430374 M119.82599997913273 69.67049020669032 C121.31182560656981 67.44936948175662, 123.11382156573326 66.0300473821069, 125.12940881078822 63.47741920150482" stroke="#7950f2" stroke-width="0.5" fill="none"></path><path d="M-1.1003437638282776 1.306176245212555 C36.28001128779674 0.998722059093986, 75.9942896792655 1.5608844583859782, 122.62937938224542 0.3344603180885315 M0.45757248997688293 -0.5183363258838654 C40.527620928755816 0.788128937082411, 81.67143035386287 0.9943066485692275, 121.98179694067704 0.8824233710765839 M121.70971690665948 -0.692898690700531 C122.89619894165764 17.62660929222555, 122.69106168885003 31.95692049780788, 120.34625827323663 66.95155005401107 M122.21933813940751 -0.7663727104663849 C123.20982885418081 19.98263970733187, 122.49139833507681 41.133965357552, 121.2349450195955 66.74948354309531 M121.53841220390069 65.413937138972 C85.62160454341179 67.58470261361593, 46.26918897276663 69.20680153634542, 1.5407561659812927 68.99703078216048 M122.03767176520097 67.17222066467734 C76.41339906772434 66.5188523115163, 30.77890298157584 66.64916332378436, 0.5807938873767853 66.65788026398154 M-0.014648497104644775 68.05853896087142 C-1.0335096444330465 45.464235296665194, -2.1130365456781637 20.96276610511523, 0.6237239241600037 -0.22245687246322632 M-0.24660632014274597 67.22246308868857 C-0.10973554044866585 40.336329836724445, 0.8580522021660802 14.280244192182188, 0.5151553452014923 -0.9363317787647247" stroke="#000000" stroke-width="1" fill="none"></path></g><g stroke-opacity="0.9" fill-opacity="0.9" transform="translate(295.8496770063457 356.4068913803313) rotate(0 61.09343537217012 33.57807134958969)"><path d="M0 0 C0 0, 0 0, 0 0 M0 0 C0 0, 0 0, 0 0 M0.3169000856904437 5.864174650658958 C2.1306079360916246 4.34268720821903, 3.5622421067958947 2.788193803844186, 4.523455661120361 -0.1324276197853273 M0.10804639983457826 6.687904702176445 C0.38365079090932513 5.306462622362971, 2.2369224909941527 3.7954227530387357, 5.025481110396332 0.33803438058469826 M1.457405281914364 12.190541881739675 C3.3220092680258286 6.605401443602001, 7.726867836167214 4.228943894214039, 10.172030104649199 0.9637924189761047 M0.04718005741942988 12.808730286776601 C3.229949995055456 8.889846145499163, 5.680945908561858 5.553408250400957, 11.148870767605436 0.4394339795306088 M1.397029531137063 20.172814397980147 C3.14073270650779 12.580768023932547, 8.76537049043506 7.1749015235023705, 16.062923140361388 0.40087372129084375 M0.42079184664876657 18.20354646341937 C5.1313272228474585 11.301815403052458, 10.146667752089554 6.292114078698122, 14.885550774171431 -0.5406146341073343 M0.7343407051823352 25.320537043451427 C6.159038799855674 17.118137408873118, 14.675179420438095 6.379414666497233, 21.006067386174465 1.6760198226361993 M-0.40570103356621523 24.365765912174343 C7.285354490257119 15.088188241848593, 16.154856039944676 6.018685891591524, 20.93207236220863 -0.1377820322126624 M-1.162104903669153 29.17469046055173 C5.539642586839395 21.8007502828331, 10.688279429314361 17.441637550832034, 24.361939224090786 1.104862320610577 M0.6999123404314176 30.609080439198962 C9.337130914885254 20.849380216723326, 15.951081159508526 12.328387510843385, 26.853083016958447 1.1068878354516567 M-0.34913889142689314 35.03720569405829 C11.21008509945272 27.24661475558498, 18.957610379441007 12.639513665880646, 33.16726608709136 1.7971226797684317 M-0.10923868986782637 37.25983515177046 C9.948701906832666 25.55243452496856, 20.302864191386092 13.129918071181088, 32.739021108901895 -0.01621950405992223 M0.05390714589962897 44.27251378874831 C10.859477255524876 29.521038563376795, 24.309206653719084 12.754854686437369, 38.77203929219519 1.943860685555311 M-0.6487747829734332 43.11312515716605 C11.698670985536664 27.423232195749314, 25.117121026803666 14.935943866961786, 37.087338892557966 -0.22913020280185137 M-2.1029754746706075 48.57167453006737 C13.204112818463004 35.12184558436874, 28.06489775354798 16.711069639099918, 44.08798627238326 -1.220202197474336 M0.32875631563357643 48.6969243033313 C12.001486852318621 34.73563205677851, 24.773936985641217 18.874688126892863, 43.05097473840766 -0.8039587337196821 M-1.408059320156589 54.669409382569896 C14.936004152852078 35.37192303463856, 32.54981189369884 14.773798376985063, 48.34009834467459 0.6209938161250399 M0.7262929764342161 53.98911811732064 C18.97581152520107 33.73504402137368, 37.74779543757691 13.394121717583452, 48.18988090096998 -0.5252312488678648 M-0.13635307353932546 60.38177813170145 C18.352040717414326 42.66689830419388, 32.99824438914763 19.983954168073247, 54.31510294205016 -1.1728298090921037 M0.8537874539474757 61.45518044707964 C14.158237432245835 43.09700093518617, 30.244728361150354 25.868561707321106, 52.719495750725926 -0.7275622211919419 M-1.657188330828312 67.32321182223926 C12.617071213392656 52.57699587092824, 27.760994820662745 35.97039221124502, 57.112991381528985 -0.1606132876802242 M-0.9793809103361397 67.76520639988551 C23.02777309151361 40.73398138880437, 45.46314010473737 15.340750566632977, 57.2622715421945 -0.25797780274637105 M4.221839427928984 70.15180317806946 C19.934348901538844 49.271023222977824, 39.30437319685449 29.917061266808773, 63.39549109609206 1.1423648449151287 M3.1916533410359023 70.0392027621244 C26.42718487870165 42.67060463178796, 48.979677156030164 17.06143501048608, 63.09614664585669 -0.5135924664767018 M8.694280548742068 70.1164024044148 C30.72311585581461 43.61522818646236, 55.550401754912265 12.985843112301808, 68.13759340275838 -0.697835625860499 M7.426651491573107 70.39418380151906 C21.397697924831814 53.60800834435062, 36.25878395821331 37.36046526011731, 67.90607331623151 -0.403932364437388 M15.266949261658382 71.54719802738919 C31.638277131805335 50.042451971812895, 47.614446169861864 34.60794845518473, 73.87602573450896 -2.0714932354526354 M14.192388708822918 69.43475210668339 C27.306877430043208 53.64313023746182, 41.65741744625504 37.853711333360884, 74.03248992379996 0.611388030426042 M20.976572999658966 67.55391151154704 C38.99209652082518 48.69695024109775, 54.79105806396127 29.31097262757327, 79.46077940836278 -0.28754819841576307 M18.579303363266373 68.95129320467181 C40.76853768477268 46.194767250465105, 60.078742967376854 21.742680522300297, 80.22284872308103 -0.4396574339408943 M23.173143079762784 70.32760264233391 C43.2790198412264 46.398127243539975, 61.973529795850226 24.08135782249152, 83.30358185730086 -1.6112790501954066 M24.084847709422437 69.22178094342988 C39.01843200301134 52.370280582942556, 52.09310161697762 36.97056318149914, 85.88008808455572 -1.0791832304837214 M30.768386934950858 71.10299288430427 C45.62095615964919 49.60672824355471, 59.36140844556097 34.16455335352113, 88.12942439834217 -1.2266260053460343 M28.86196011777213 69.97410085001205 C47.01801068140161 49.344017957164546, 64.8071395818884 31.05140716205318, 90.81416026274303 -0.3417155112569077 M32.98729588224218 68.19614202290364 C49.56188987834868 53.28832773761141, 59.42789551166018 41.37641879918408, 96.22503446446777 0.7261324006868222 M35.47059284283445 69.42372677236386 C56.10992227835777 44.218758197005855, 76.67712923061907 20.37358952789821, 95.490503628124 0.18813125079401516 M38.61659735461776 70.9667715226865 C51.92976278262472 55.01627263333329, 66.67665453190608 40.48477803464954, 102.19040337269658 -0.8119440466512984 M41.1261842550904 69.23604423753979 C64.8234545608687 41.82756522306174, 87.62893914284025 14.57989923609236, 100.78157043521756 -0.586669096385414 M44.756282669096585 67.85594116909837 C65.18310925292678 47.51580078661002, 84.67349221781649 25.76253532438126, 108.18725855600965 0.14386611719405806 M45.45118660905897 69.56402709348535 C62.025109558001354 50.68706100316504, 79.44221504673834 31.70318248047259, 106.21529905450475 -0.31323102574074113 M52.06807925865966 70.34837242669373 C64.21495671273874 53.995248174203, 74.14624180119662 42.136129670707355, 112.69059133142598 0.6596226776684304 M50.723538275221166 70.01056086725502 C72.39404500117931 45.764931084111986, 94.02861508954769 20.100760975798465, 111.72664174050458 -0.15108068932642738 M57.52697844032598 69.01012508091812 C70.47553703201572 52.625082606971944, 86.12270061857382 36.076053597866924, 117.08107010293605 1.599756679549067 M55.62819150809599 70.66611940679435 C71.74047773956167 52.672181269685524, 87.335140460199 33.59738491815323, 117.24997783470752 0.9448770201347756 M61.669707647076564 69.45092059632597 C79.13801621323702 49.66846286094316, 92.56252520524768 31.5665704234285, 121.67686327453038 -0.10880083238683369 M61.50558467816444 69.07108823915777 C83.288378140356 43.68197135699138, 106.03664818826286 17.60462563400069, 121.75093667860409 -0.5115127900799337 M65.34625819593037 68.36181875836284 C83.20321410436047 50.21606120797172, 105.09888235119945 27.792357991165694, 123.79728507625643 3.0516386679746077 M66.1031700399455 69.25344121229084 C85.74751899985819 48.19787798002717, 105.41514226969744 25.539616653438934, 124.29004343974177 2.990602468643324 M72.96835751986846 69.4775410315832 C87.97430678683729 49.79363550215146, 107.94987377981224 30.95032056148856, 126.9794448831142 6.887715805633398 M71.8238859639202 68.69106385324801 C86.41058490327572 53.98905017427612, 98.08642647799596 38.26131909361027, 126.23936843062053 8.657277483804556 M77.26099693590979 71.61414720143257 C88.77492647511549 55.532644727960424, 100.11512336271034 41.66682041100272, 125.6661291570752 15.00444246492119 M77.47768470460753 69.34943000997482 C87.0433586734429 59.706482017800035, 95.71497515246162 47.29952411348606, 124.97040905071191 13.899188202235415 M81.85484484804485 69.38606831268821 C97.91579020774593 52.05741668452649, 108.7528313781426 36.909020838453046, 123.92550630212997 20.578749690615247 M81.87394560349796 69.39863478974853 C95.66959854160322 55.38482608374762, 108.65229583831352 41.224475239222144, 125.57379464150642 21.105179731213163 M89.31806966026417 69.47023541012732 C96.90036138158696 58.24831916532588, 104.65126450720177 49.60736137604199, 126.76324472226898 26.850068527492787 M86.85329800208203 70.47752329984633 C101.68402542055486 52.82645865356234, 117.81999697835853 34.949478279526225, 125.17140454449455 27.13284717801502 M93.18816268958675 70.87020827919544 C102.42235786927763 60.83650541290317, 113.68063341514126 48.15661175614028, 124.15433573451125 31.38445876099933 M92.31944415487872 70.95781938821376 C98.68290351097481 61.9705770069448, 105.39765542989808 54.76048717277308, 123.94819101419532 32.5726643905865 M96.56435136899358 69.63320838444704 C107.06875207293042 60.31239116292737, 116.07648636951582 51.77657652498225, 125.63550677183778 38.79164185568936 M97.83157243236906 69.66115858190531 C108.29899853536745 57.541837367835214, 118.26439845871532 46.30474368607562, 124.74459242108972 39.4650168959821 M104.85912701550365 70.88779551132765 C107.61022337813895 63.0168893545644, 113.87852417235572 54.16976399260329, 125.05674915126752 44.76267759700841 M104.35588508907199 70.89676472886649 C112.90217200977654 61.31354135407375, 120.38637157872948 49.739963125320706, 124.80806101969671 44.337878542147344 M109.04671706209797 68.80619112439177 C115.17893419998194 64.33467492632855, 120.01527501166095 57.776540995403025, 123.17373127679105 52.78699702973372 M108.51407049546856 69.4237733561518 C113.98641395557185 63.788236710742886, 119.14073036493673 58.76608770808812, 125.38547615150685 51.92384443635947 M114.36066538600579 70.54508891699908 C116.58445224424526 67.11156842250402, 117.52006944356482 63.12228467611458, 123.90887332754436 58.228969248554954 M114.29285075424566 69.56499922422763 C116.09022664769033 66.30682214799143, 118.39415619563275 64.29652708286898, 124.82291709231438 56.53553846272017 M119.74363929426106 69.23787076613475 C121.381347751854 68.39971259982843, 123.35509418806143 66.44515914554142, 125.06267045562846 64.35027728475296 M119.61976447498233 69.67646936318447 C121.57993386831582 67.5264720839218, 123.79489214616292 65.19391390465492, 125.07100045507534 63.247680584561465" stroke="#7950f2" stroke-width="0.5" fill="none"></path><path d="M1.5086535811424255 0.2170153260231018 C46.78072427310873 -1.423059729528702, 94.49999955491879 -0.9257166661742098, 121.46603786002862 0.6758413910865784 M0.37399056553840637 0.8985891044139862 C33.639134148903445 0.6014870291104527, 68.14014809359661 0.3937853460660191, 122.67012663733232 -0.7547893822193146 M123.97118007194268 -1.6044473052024841 C122.12043577950772 16.71038389013412, 122.5289459876376 33.11023705812698, 120.82366382133233 67.79476218169661 M122.51557799231279 -0.9724331200122833 C122.21369309015788 17.10166118135171, 121.55660290308512 32.822209340137576, 122.52770586859452 67.60842557495566 M122.9093724394964 67.03546957915755 C82.7261931300078 68.97613760748193, 43.47068716036296 66.04122969427392, -0.7590599656105042 66.57254271453353 M121.45396777044999 67.19669004028769 C78.40638576654877 65.56058550605742, 35.38568974897565 66.71061087379424, 0.15572026371955872 67.92899270599814 M-0.9521599411964417 65.44362120574446 C-1.370261916810667 44.041335028897294, -1.718953857118284 22.556102074706367, -1.7462826371192932 1.1908236145973206 M0.46748021245002747 66.89347787445517 C1.421108347484287 52.28457430578326, 0.20414267213028314 37.87485896953322, -0.5125183761119843 0.22546669840812683" stroke="#000000" stroke-width="1" fill="none"></path></g><g stroke-opacity="0.9" fill-opacity="0.9" transform="translate(238.30882352941194 185.7183620199171) rotate(0 117.84558823529403 15.389949368561943)"><path d="M0 0 C0 0, 0 0, 0 0 M0 0 C0 0, 0 0, 0 0 M-0.25613610890227057 5.6340254657465145 C1.4851135715847605 4.248983134284394, 2.916586594272654 2.5874475542326434, 4.294483106168455 -0.0666277032497114 M-0.18266969357150292 6.331359897230856 C0.9936459781023068 4.750247169873942, 2.068187516514648 3.786325987306067, 5.123510670619553 0.3229359157231861 M-0.8788170344103468 11.60311057162243 C2.5626492241217873 8.233397564040756, 5.3702267165438 5.759278961699643, 11.915388619852198 1.0226797829463843 M0.22027756134976018 11.598342507749377 C2.871625743377085 8.767226117748807, 6.722907941522781 4.703696640782722, 11.016782119077575 0.3882808911695841 M0.3544340235600014 17.04506814563709 C3.0434657233020648 12.635376332623533, 8.027539471102195 9.092498759307881, 15.914479499220331 -1.1221277986723015 M-0.9064819831913571 19.368506250810498 C4.296935109671994 13.746670021443695, 9.967229777039167 6.7191635392295925, 14.632193767003198 -0.3367076519015262 M-0.17732419984421988 22.34390650661206 C3.1329960805139025 20.296782333959275, 10.28836258473342 12.379835283212016, 23.03976093632903 -1.9026206662714955 M1.0470269259250973 24.997098517320214 C7.799838062771219 16.653664411010126, 14.635775547998476 7.85278315491102, 20.450402058007086 -0.8450361449108001 M1.3525843015452281 31.737315363947502 C6.3958737089653495 21.983401030465554, 12.938828521171633 14.642914978908745, 28.018396109950157 1.935199638271028 M-0.05727852689573609 30.248723690163544 C10.094991796460219 18.9981210083845, 19.925535295954873 8.219307639632081, 26.323253262464316 -0.30519135072708714 M3.0515952446401418 32.974197880838034 C9.445593999350377 23.420430683122504, 17.61278115430161 15.666506948329317, 31.847256496033467 -0.38584727595902635 M2.432684592054814 33.538086934488234 C9.502674076826178 26.887453408047584, 15.1114652239405 18.443783439716714, 31.099883260621525 -0.8392938458115573 M6.245468989428259 32.593086987260435 C15.313108974859206 25.6858247359578, 22.82791677322798 16.60990130653447, 38.553274329566705 1.9403496460151395 M8.140253547061361 33.73846849472419 C15.835206443490158 24.2770140010825, 22.080556345308374 16.499463150296936, 37.13116837926333 -0.5359774482342878 M14.414262770897313 31.196968738191515 C23.135649185124652 23.647159831007862, 33.44036584516157 11.013976457592353, 44.12941483649962 -1.421983736720776 M14.564742164908512 32.98779705280134 C22.784201482218997 23.872437768987965, 31.19400983085007 14.777806530910667, 42.174447623636354 0.3556841405435449 M16.87983069903504 34.76578231360806 C25.365654329920623 26.370987889178284, 35.54621646415548 16.767129935436913, 48.97370400181997 1.399669880810027 M17.73769083488088 32.5323997281496 C28.489655608197562 21.446471893964315, 39.04136963429177 9.282867539470065, 47.80130044552523 0.3076039774518655 M25.117559874791205 32.95008169759578 C33.97661646847908 22.65426703430706, 40.54727251191448 12.790490597637994, 54.82520080147749 1.7609426076932557 M24.503352624725103 32.55191375680781 C32.040268177543226 22.143477611389315, 42.03776578383382 12.929455371234859, 53.302268975176574 0.3187552360295065 M31.195398158153537 32.42121232013147 C39.872210323498244 21.583048872207705, 46.47461685998929 13.303881368372952, 57.20302497045995 1.8507579989057028 M29.926471048725787 34.04071313320588 C38.86428686230892 23.402497073563037, 47.68367754007224 12.060731241079168, 58.09463578937502 0.7965978482063854 M34.709826400071805 32.14613441530083 C40.65858343076582 25.331077979766075, 49.20191087584277 19.162306202709473, 62.342329234717084 -0.033845586466931366 M34.197002299629574 33.61398196838264 C44.42279324637535 22.572348673433297, 54.60056031655225 10.827221614481491, 63.627146143367185 -0.6368481374786725 M41.224886210533754 32.73759966308065 C45.569094732921855 25.66592154520478, 54.15116319038111 18.862133660996484, 67.63332707923665 1.8624616565521492 M40.037893016721085 33.38914113176801 C45.8423621617613 25.940129887370766, 54.25910334388063 16.45129527478218, 67.7877857389377 -0.2635759140957461 M45.20815219048914 31.72897454755666 C55.47918247801994 19.849354407951772, 68.65532913249223 9.545146647760308, 74.5572649799684 -1.9718756629513337 M45.60980251774695 33.79192160940083 C53.11638886605853 23.716423014604125, 61.38949544740428 15.769065440081164, 74.80850295633319 -0.46351855810598863 M52.46975969992569 32.924416998705624 C58.511144447940765 25.377149398832415, 63.02416276587819 20.16271960390446, 81.12545017190007 -0.9651214900006124 M49.918880566991774 33.437791145711 C62.55042895017965 21.384359822238864, 72.65576600717772 8.02265016254108, 79.67298662233827 -0.8331223875795075 M55.09837708979318 33.67369975061327 C60.68059209180945 24.68379557180624, 69.49827765449795 17.51120268383039, 86.81522288098142 0.8125750344900382 M55.72148960720221 31.938027601737375 C65.53362833829235 21.903603536164503, 74.86283410302462 11.262295002717462, 86.02138824219958 -0.37927360397745247 M61.90023347007934 34.22238698325637 C73.29877790942271 22.202850346402776, 82.24594877883106 8.923882279683003, 89.0089840922002 -0.0006437845025999422 M60.93198252766285 33.78114559690985 C68.60127980163035 25.52007543235765, 74.88798281126718 17.75062953938375, 90.55809976770172 -0.6378716503699167 M64.67903191274344 33.74136726094342 C72.02959227621676 26.445425538551127, 80.4689044779912 15.992597876547318, 95.93016778150619 -0.7835208378928087 M66.87136586712985 33.893679447490044 C74.89992133667538 22.869749221463174, 85.25028676751569 10.299760421177755, 94.95647582909137 0.13224414678194307 M71.95527236474472 31.903482272982906 C76.98433539507269 24.94066567948761, 85.14592195132121 15.047834783418661, 99.08226868388707 -1.581507570703799 M70.95537272685932 33.74806190723957 C77.82752886560128 27.00578565686063, 83.90306117076562 18.980254870344822, 100.26661150315309 -0.16927878059195933 M76.68557456107092 32.4601555743516 C83.90136035917055 24.53567047714848, 93.65479952948374 12.415646558352496, 106.18481452529264 0.16805937615013278 M76.3825356836359 34.47050290808832 C84.86325444368708 24.144973248658154, 92.46954347100124 15.536228960383578, 106.82006454513353 0.3217671160472051 M80.5425912276718 33.270925524135215 C87.36819157870032 25.064253473529238, 94.82655900780199 20.17442133360649, 109.61239379071064 0.9861348076457759 M83.38284999270618 33.401772498575134 C93.19628264856314 20.344893366385655, 104.74271241202337 6.924952679809067, 110.63763315681733 0.31557614362935027 M86.35403584953512 33.65362192731055 C96.02662393809587 23.435591344701496, 102.2663544506473 15.704412840784435, 114.67456892710032 1.3814979130916285 M87.62555135585482 32.97862748562994 C94.58095221755238 24.965195076557798, 103.59527408991129 15.060957993546676, 116.6780191894606 -0.0708876940839005 M95.03865490261063 31.659189392963313 C101.14010685666501 24.449346712804104, 106.77818754328662 16.57656338585611, 123.33519925642094 1.4273810067961392 M92.12383815332845 32.53988479279157 C99.71548029968832 26.045976264196895, 105.01609342105213 19.430446217534303, 122.52590105681946 -0.20601195583097365 M98.04525562188604 35.421863976070284 C111.2246301981944 19.643144274890787, 121.16146078106334 6.202033429050225, 127.93176388866021 2.3380982687361254 M97.64264921191165 33.207848101989924 C108.9785185817202 22.981069215706132, 118.0736821289625 9.510886502740512, 127.08000664817854 1.1643429778180732 M102.28867823331115 32.43399653571719 C112.20713431525249 21.968256967703, 123.86687217339956 7.792596851231405, 133.45527492476793 -1.501421317002709 M104.60338603685108 33.69438121176386 C111.27664508035123 24.240400006805206, 118.58909293663183 15.498647672648033, 132.80177653128447 -0.5223731570979311 M110.58882372187368 32.8962293768808 C120.23236122877381 18.452686782270494, 130.79091469005616 6.278720631765992, 135.98930522473185 -1.1854573204436036 M109.49169057993136 33.182334679043265 C118.30218868663938 22.336666268169562, 127.46927998674907 11.625150836553594, 137.1231417204219 0.2360261338508991 M114.6066260635234 34.992319608646845 C125.57649610412719 21.612482105529974, 137.1039506353871 5.4281576540691745, 141.64596063950168 -2.0126745075007904 M114.76216747139911 33.13161917736701 C125.80456618641614 20.219368974371, 135.88747854899185 7.9184298506740625, 143.3512459083374 -0.18746253829654336 M119.28307999324804 32.239315785992105 C128.56395724285122 20.55237103786962, 140.6080109965179 9.48446749833548, 149.00490777906518 1.86405380180247 M119.24616178803896 34.16063213866498 C129.4265401230294 23.65260354233512, 138.1017209381296 11.496174488106021, 148.07622323431562 -0.6676058041103943 M123.77521323699736 34.76238126800228 C137.91017094859237 21.192645946812988, 149.0872810279356 6.5353992353096295, 152.04934624437215 -1.2875309084480904 M124.05648128509753 33.85233111147601 C131.70194744834595 25.964317587535835, 136.77484403771126 18.192406725463094, 154.07592051610322 -0.5208601775517963 M129.89511427975913 32.64497085965418 C140.88850597599037 23.97689762698677, 146.82276623635133 11.324290285281801, 158.60503639541025 0.5711042917243105 M128.99517416435947 33.63566040273004 C140.36045189168493 21.1709823074436, 152.71486081412627 7.8802928097471, 159.72367501798476 0.3760545858091575 M135.04590459748306 33.203654170033495 C146.97787334554187 20.174566935923366, 156.5675612795652 8.769783376096022, 165.2762715831293 -1.4758928635946091 M136.45825130607136 32.591624435965876 C142.91960313321715 24.33030065188437, 149.37606217687397 16.192380100872544, 163.8930366827069 0.3922288470113102 M140.6607664251569 32.338292254117036 C145.15473302106108 25.13957172941459, 153.6399492696711 21.61100678945211, 167.88490591751702 0.0514168055719324 M139.84346403701784 34.33471439311346 C150.70008359942747 22.251435646883884, 160.04307747031794 11.014523019329904, 169.36554589955426 0.02398972548456868 M145.13891498873045 31.806860970990506 C149.759043773584 26.484633776416707, 157.66365963119532 20.516177986095766, 176.40632649952317 0.30358728330966755 M145.45502636244555 32.818981572711614 C157.00376766306806 20.145491625403178, 166.82469854004373 9.06967017292827, 175.73545573627348 0.7009744572677903 M152.2846262731914 34.57562762563067 C157.34123926490486 22.826686109341182, 164.44261735526038 15.856008573017988, 181.4084811891355 -0.5480360004046645 M150.9113927341391 33.21946403169024 C161.3791128957708 19.746855884001107, 172.9948068612971 6.38868086111842, 180.81750970714916 0.6675570367908392 M156.24320925448956 34.093974327123284 C165.21578625434267 23.885532856841056, 173.06885083523696 15.660973764407622, 184.9878508373038 -2.0364928114852887 M157.04998028234513 33.7382599435882 C165.52561089858403 21.47356977184719, 174.12582542174056 11.913891918290052, 185.55166400492797 -0.2110784249073845 M161.94003366761265 33.64457463044509 C174.26879956595684 19.68991854038577, 186.39779673528534 8.006713459372524, 191.20847705401576 1.9509685300445199 M162.33494658384828 32.485954240335374 C171.80932301173513 23.11444757122557, 179.58651248657605 13.101488665777865, 191.4108652688945 -0.5675110583970309 M166.01650223851044 31.618216894681836 C176.65256972794316 18.419417763779666, 190.43057998305449 5.921753089426218, 197.03793444022114 -1.5522854917294637 M166.76191189389516 33.28769197047063 C173.83904228397492 25.989447586547982, 180.34712462010904 17.525071755158905, 197.30577281679535 -0.7260098776391999 M173.26907845217062 32.863980924810306 C182.13981685008224 22.368939516397628, 189.8825964586896 15.24845109094904, 202.78635835590768 0.7579030531694997 M172.26573691427035 32.564604940923886 C180.0834374986488 24.150010609920592, 187.3521382222964 16.349803399361146, 200.99253641291517 -0.8211071382040274 M177.585258784543 33.96406132991618 C188.46646548967735 22.402292271752366, 199.533998579422 8.238062243842442, 207.04241715202517 -0.2686931011728575 M178.62524502522052 33.139885075233934 C186.43964843482965 21.962099064645166, 195.31784584209862 13.358642270449032, 205.9775185000006 0.008475020947344092 M182.38260047061527 34.58394416497629 C188.8503318738985 27.62557468392503, 194.77615569254078 18.25212598486825, 213.11233993856132 1.1134902252202465 M183.87100005353028 33.12021105533074 C192.3113576913676 22.280096300660375, 202.01936660177367 10.682939172527309, 212.92507196733624 -0.4987487807551787 M188.88863470734674 35.50193986929909 C198.71996584274163 20.952276293437563, 205.75191029241455 13.087710805414599, 215.95588881646592 0.8206320164345442 M187.53396947545576 34.45653125997589 C196.7104552925243 23.518391340100102, 205.13754271302483 13.167098948612459, 218.56226238266873 -0.9209538072727383 M191.86018956669665 34.18581200719305 C200.35729130847304 22.4776465732114, 208.8469742577039 15.194558640756199, 220.6253866457267 -1.7102972975532253 M194.3335973297531 34.05194250543096 C200.86235856339752 25.83562851679376, 207.31851603282897 17.879899179006316, 223.08664576028272 -0.27157856417547066 M197.30271290865275 34.369406008634996 C206.71380721540507 24.336272625002458, 210.23917093638445 18.52429051874983, 229.2016892772934 -0.24671248265728707 M198.86587713070693 33.86956878612591 C206.32145404912853 24.613106288617843, 214.97461106259664 16.654010823037893, 229.0709907929248 -1.1932514404244756 M204.7501855841648 34.08218210771061 C216.5538574045636 18.63091009104076, 226.51488202164006 8.86969888060952, 231.2332133211538 -0.4102368589009018 M203.85201507106387 32.49334421309955 C211.4428512371215 25.96728988544109, 217.81356031115607 16.336818193813684, 232.8710566198796 -0.07636406658988903 M209.70414920322048 34.99939198439668 C217.1003889287524 24.23493048981112, 221.78758271292168 16.33364277157822, 237.3597903202766 1.1075402182471947 M209.5462077901085 33.00943965578179 C215.52360643316462 25.946850309458103, 221.65134244236157 19.260064824920534, 238.2181970009127 1.2564212038126783 M214.5696783667696 33.71690212277893 C225.24430500840987 24.10721516943599, 231.09440065925975 14.007955136322106, 237.75169451868754 5.895239999654919 M214.64036460558748 33.81233610021148 C223.8845095410542 22.891414687930215, 233.09244606905355 12.210871587868517, 237.62713808434677 7.431597936104268 M219.0944084347999 35.101370452834146 C224.531115602374 30.2192774663975, 230.33297937850026 23.13031138433884, 236.26226441228889 12.79471231829406 M219.67188528178542 34.48625129081853 C224.257255207079 27.698743310741442, 229.18995557383855 24.392329452589415, 236.5173499578809 14.029083590209794 M227.1340069792955 31.72196825766088 C227.80828356952716 30.246772874035646, 232.29711709948762 26.502540101553592, 237.62610932727932 19.55264412760247 M225.89549403216455 32.66349729965524 C229.28943753495454 28.63586671458114, 233.67895046098283 24.57306404581009, 237.40461383703754 19.74383466587846 M230.26511041180413 32.95511332213377 C232.60640036362 30.582483184675716, 234.92135277800944 28.165491712969356, 236.19137576365034 25.908932481005678 M230.72098690516498 33.56932434359064 C232.20811389860862 31.40356384990074, 233.71435142393426 30.150015390839375, 237.33518056108738 25.51030956445996" stroke="#fd7e14" stroke-width="0.5" fill="none"></path><path d="M-0.7605676137743863 -1.0204769739851072 C61.59277878237824 -0.9959656562391689, 122.47630264946271 0.49866393035012313, 234.38299625444992 0.07269721981920302 M-0.0889269729608479 0.5980897833823491 C60.752521938913695 0.20551645264539012, 122.01140500183597 -0.26436135286615203, 235.56248743391876 -0.7721202985993779 M234.79016518055937 -0.7159809749573469 C234.67499186983838 5.33612025340498, 237.7629855512692 12.920236328569064, 236.63819163500807 32.148900455361876 M235.35244004170886 0.8538415720686316 C235.53575450682132 7.185040703146073, 235.4205234398791 14.687289905939823, 235.0052514795541 30.49465653629479 M237.32454032997873 30.768649689465846 C188.44615494760737 32.55218401923842, 137.67390893152992 29.911323124664346, 0.6193882142438049 31.573423723350842 M234.88752146105008 30.925993775856725 C188.63672540392997 30.166555127482916, 139.78559316377377 31.54570898172509, -0.7268639853044775 31.17131802234342 M1.7817044835537672 31.437024361020597 C0.09377903458997072 22.75440260084475, 1.1880173754446155 13.055577914033162, 1.1679961662739515 0.34294220991432667 M-0.40549619402736425 31.073116842223975 C0.20900480557838652 24.97618472072453, 0.3884724538461325 17.65155999516014, 0.34039576444774866 -0.7560543427243829" stroke="#000000" stroke-width="1" fill="none"></path></g><g stroke-opacity="0.9" fill-opacity="0.9" transform="translate(281.96643596756815 360.1377881969524) rotate(0 54.743735982343935 13.058138858173777)"><text x="54.74373598234392" y="18.116277716347557" font-family="Virgil, Segoe UI Emoji" font-size="20.08944439719042px" fill="#ffffff" text-anchor="middle" style="white-space: pre;" direction="ltr">Knot Agent</text></g></svg>