<svg version="1.1" xmlns="http://www.w3.org/2000/svg" viewBox="0 0 599.326923076923 275.4807692307692" width="1797.980769230769" height="826.4423076923076">
  <!-- svg-source:excalidraw -->
  
  <defs>
    <style>
      @font-face {
        font-family: "Virgil";
        src: url("https://excalidraw.com/Virgil.woff2");
      }
      @font-face {
        font-family: "Cascadia";
        src: url("https://excalidraw.com/Cascadia.woff2");
      }
    </style>
  </defs>
  <rect x="0" y="0" width="599.326923076923" height="275.4807692307692" fill="#ffffff"></rect><g transform="translate(225 11) rotate(0 70.66346153846149 127.24038461538461)"><path d="M-0.9339156169444323 -1.0407455246895552 C41.602023952319975 -1.8371691729423876, 87.69386981736075 0.5092424724700575, 141.79883611474463 -0.28575131110846996 M0.5769691029563546 0.875568806193769 C32.3695297783724 -0.09567426918701316, 64.31890598265808 -1.1477725136156478, 142.23610024705806 0.89117959048599 M140.53389282988357 -0.3637642854074014 C140.59338038906571 80.52885164307476, 142.11084655489051 160.89739323518802, 140.90617933711837 254.8125966613776 M141.28576867941015 0.7464323050804822 C142.51111104266244 67.62791218378038, 142.29370976875524 133.6584686719619, 141.34037463507624 254.850238862965 M139.5083747533364 255.3346413828146 C88.62893599204963 257.1052068330414, 34.30088692497674 253.82812528387373, 0.891780911013484 253.63712476265545 M141.89262672320285 253.56147880644465 C96.76656419175778 252.24571565705332, 49.45680205246359 252.87014062124285, 0.7318979958072305 253.92892484159137 M1.1766246169279218 254.3861165892579 C1.8033298509737155 179.93961478085998, 0.4558402603647177 104.93002247956615, -0.961411228522025 -1.0243030020536679 M0.48898172884952795 254.76151383402586 C-1.7428645942695387 191.2651398373849, -2.006278078403766 128.82039865008616, 0.5746539904781229 -0.6873143843728525" stroke="#000000" stroke-width="1" fill="none"></path></g><g transform="translate(443 10) rotate(0 73.16346153846149 127.24038461538461)"><path d="M1.807863175868988 -0.6366376280784607 C30.20072354129872 2.444031144604086, 57.431413496572205 1.0238937392085783, 145.63430369358787 -1.4302529692649841 M-0.6980995833873749 0.035010308027267456 C45.775008516070905 -0.4303982974416938, 90.66367447685731 -0.011390996111127372, 147.30718061786422 0.011758774518966675 M146.55135853036057 0.6166767936059827 C147.06565718693176 64.78543617447835, 147.96791969686436 131.74128259495643, 145.31504487393542 254.57148878804733 M145.71967435986235 0.3249097974127501 C145.0095967040881 75.24045232236998, 144.41014231989428 149.8256662866552, 145.72850006757992 255.21038753899575 M146.00195467930564 255.93124784414584 C108.45300254678489 254.6443492882584, 69.2223487541079 253.1982109063004, 0.20372384786605835 256.4346295732718 M145.7499572978569 253.76564793174083 C111.64242873380957 255.188208902014, 76.24147365609035 255.0118182541258, -0.5098757445812225 254.26870255057628 M-0.6267248429362466 254.9238642552062 C1.4077468407833043 193.99488316634253, -0.6543295696181866 136.52624006110503, -0.5403414055559841 1.4375825917045468 M-0.12079842593758541 254.26621121296813 C1.1978973399842847 185.89727901824028, 1.5235209657997717 116.43152364347445, -0.017099254057530943 -0.04932968799928266" stroke="#000000" stroke-width="1" fill="none"></path></g><g transform="translate(243.71153846153857 127.48076923076925) rotate(0 22.144230769230774 19.31730769230768)"><path d="M0 0 C0 0, 0 0, 0 0 M0 0 C0 0, 0 0, 0 0 M-0.3765542275877545 5.731018398751609 C1.9911814482617043 3.579123011337018, 3.271943398603532 2.47138938286991, 5.317093938174194 0.7808440457877927 M-0.22771126103120543 6.529857049931876 C1.8089827287435951 4.264156761846245, 3.950188947240988 2.1323647618607966, 5.379954009833282 0.6993631016311459 M1.29993085945953 10.742695564448415 C2.5792379474376688 7.919034184499498, 6.919675774226547 3.2242538231134033, 9.366182269108426 1.0829230303957824 M0.1701029070745813 12.017605990588248 C3.9684879918446225 9.274780003162487, 6.128272828411938 4.716363809573918, 10.059627784741057 -0.8085918669507145 M-1.6320392964920263 19.99143591420787 C3.4484019048317416 11.294841668842064, 9.214827918950958 9.60207852701875, 13.745970554187377 -1.2174134844052622 M-0.8075679122051458 18.049626826216155 C4.871465818163621 12.179691946112623, 10.674387812125415 6.461465294231838, 16.594559408261855 1.0151615447294882 M-0.47644122669480105 23.665903402208446 C5.243907483819256 19.798859909179875, 9.144499854471418 12.957517190800232, 22.205765953564907 0.3255663266568902 M0.06784922650077085 23.110369605659603 C8.267230314292837 14.325890041131535, 15.889154772700238 4.694024887506778, 20.4264260738137 -0.18976914378111331 M-1.7595559944818362 29.613085841525546 C8.633902834348282 20.70353627373845, 13.467839682134564 12.959634708020427, 26.17411414035818 0.6002454640355648 M-0.1442196657369479 29.51301068602895 C10.691399502029492 18.26278834169215, 20.55019099136121 5.878056925108197, 26.681548895921917 0.9833312811341823 M1.7313160541373769 36.6778830269364 C7.183142633782195 25.76229697076262, 15.936835680117174 16.776137373016173, 30.08227379754821 -1.8656858577147837 M-0.9566608724277934 37.34366079960142 C10.766442997202637 23.734558953293853, 20.243715637102728 11.510890453976252, 31.721850620067514 0.14711397152982997 M1.2395516601248744 40.37856601254991 C15.770748982280143 26.044206595999732, 28.674735473418885 12.772344345052975, 35.79976749215399 -0.5881991031486073 M2.5545664098902705 39.45555193798593 C12.54523045022534 28.2998015829886, 22.60708813758426 18.03983377250854, 36.75376787576948 -0.03568159964862261 M5.446791448480649 40.18974417336608 C18.40447384045268 29.57745790668153, 29.066132469330334 15.62371481347137, 41.882853907156516 -1.1646040577114576 M6.158016868717237 39.75200441368247 C17.239140634098383 28.48886896495696, 28.640356852962007 16.197960981856504, 42.076723408508826 -0.8899042803467268 M11.12899895723318 40.78765562505323 C23.693059199196313 30.281087856716415, 32.50306734585827 18.774924116580323, 47.01393755159378 0.27354697448775767 M12.122818104581583 39.43171727985937 C22.959563219934545 26.82422207543673, 34.849785553059355 12.764937942925922, 45.52253578982353 0.8191045628266096 M15.780696753401454 39.03132890305691 C23.99844297852084 30.852911496697132, 31.166752807067176 24.159881960138225, 44.593981963494244 9.777492109117361 M16.8429067470023 40.96993000946217 C23.305739595089307 34.21843698669686, 30.003859082570273 27.072314417515315, 46.04783262024206 8.602543983039709 M21.583143519966484 39.69845422193156 C33.2677997309255 29.875904710864013, 41.30318424610907 22.44453062134912, 46.647040970791465 14.78887365961794 M23.805205541460396 40.85429375454532 C31.89024137824334 28.71394317773425, 41.926365499946066 19.225104222342114, 46.638581790197975 14.455767231233159 M28.155861823947255 39.52306011712273 C35.30063065390118 31.358578085492347, 40.92126521479089 27.32689535336539, 45.35513714050443 20.479220161435038 M29.34115111747486 40.62254798805436 C34.840620613967616 34.03531141770277, 41.2498470978547 25.03319816572241, 46.84496992921026 20.197763780352503 M35.71467612789155 39.20758227049007 C35.181882199434796 39.115700052686506, 37.7625165084874 34.957255462517196, 47.53075507235744 25.932448943919752 M34.83122920648338 39.841238976406 C37.586836515480535 36.7314404388348, 40.54501803562315 31.631751169652855, 46.31773866814592 26.617601249582385 M38.59402501945014 39.79728113462198 C41.62657770002746 39.15275603949164, 42.67251523159565 36.39826479092653, 46.997397570615014 32.21262062292955 M38.81445172045942 40.8145655532645 C40.36375518953218 38.48390445054109, 42.28659091467526 37.61815857658117, 46.3770681890895 32.49304500472209" stroke="#fa5252" stroke-width="0.5" fill="none"></path><path d="M1.6221819519996643 0.34500497579574585 C18.76309168986403 -0.5406863484073144, 33.807382775384646 0.42946936753506837, 42.426598461774674 -1.9925747513771057 M0.503989189863205 0.062183886766433716 C13.90424229772045 -0.3112533525262887, 28.93239457549957 -0.09779910600529262, 44.41910153856644 0.123445063829422 M45.48615351548561 1.7894229292869568 C45.434790188767586 15.760409024529723, 42.94696479509083 28.68641220961624, 46.17697420945534 39.029756926573214 M44.18778592577347 0.28749993443489075 C43.93053337238729 14.731892810475358, 43.26668544910848 31.34574979784395, 45.07221871843704 39.37744998244136 M43.132525356916275 40.439196013487276 C34.70862967870556 39.76285473970837, 23.895146598151094 38.95237080721325, 1.719515860080719 37.384697341001925 M43.459311308769074 38.72387789992183 C29.121946702152485 38.80943386719201, 13.027715640457771 39.41223137543176, 0.2925567328929901 38.64066886214107 M-1.3195618987083435 38.06220283416599 C1.049054911635243 26.54493617512857, -0.2499277086040148 14.963155355934902, 0.31278711557388306 -1.453144133090973 M0.8683700263500214 37.72415732649654 C-0.572880504813332 28.739915928416508, -0.7832982523108906 17.4661542666646, -0.5744066536426544 0.8164220154285431" stroke="#000000" stroke-width="1" fill="none"></path></g><g transform="translate(505.71153846153857 208.48076923076925) rotate(0 37.144230769230774 18.81730769230768)"><path d="M0 0 C0 0, 0 0, 0 0 M0 0 C0 0, 0 0, 0 0 M-0.20274255346971248 6.994339750756614 C1.3279771893264876 4.091031719425155, 3.7019655283551103 1.061830758949056, 5.269193881335205 0.5972003709373289 M-0.3463290579290936 6.330182991971366 C1.3429067755134967 4.231083890790758, 2.926769138920068 3.1976965442087146, 5.01380584794516 -0.03855939993287982 M1.3934129723440516 11.217766613184988 C2.971102301459257 7.9054085990198955, 6.6612149287828695 5.532756336704766, 10.110674513828886 -0.7319320683285832 M-0.22968609248291383 11.402808350741445 C4.760561164647605 7.233046822613154, 8.02403803187544 2.9422908833518164, 10.346467508328093 0.43170540287045256 M0.7822491051116724 20.106869726349288 C3.3269453346120033 14.045487939805948, 9.79218391625741 9.223483593418953, 16.666282362773497 1.1538987762224844 M0.14776824130208688 19.081092773844176 C2.9037819548392805 13.580515972973734, 5.756585746723106 11.430266766182932, 15.004433907106002 0.06709525053622034 M-0.7941360099055554 24.221023035883068 C5.068281687893732 20.75396616632337, 10.216906287566518 15.431195224918673, 22.285574069524074 0.7431317916303399 M0.9900375681183551 24.063807828067898 C7.897303886736015 14.635118695054548, 16.62849346256447 5.333018017513105, 20.58104582717445 -0.5396546671003577 M1.3918158421804563 29.48301336704587 C8.115419728322543 18.852868255445014, 17.64493618504063 9.607672463756131, 27.688687118377896 -1.4475325463327824 M-0.3273837258527621 30.000664835561267 C10.385229751570828 19.110923641895532, 20.263619704542563 7.1211755443091675, 26.752849938955517 0.7559795560327114 M0.6582730653602162 35.81977176461493 C7.721991213801786 27.917495378943922, 12.569173655000679 20.829196612157126, 33.28734894231597 -1.6833727731124277 M0.661133700879244 35.905508903601515 C10.918268693066912 23.433175983316573, 23.544825684928725 9.90087908685405, 31.922784612930215 -0.5681165530101175 M1.8851401795862657 38.20189095247637 C13.887803623831045 30.82547701095402, 21.897681192179846 18.547059527687786, 35.8065508583573 -1.1483291032630483 M3.0767053057669145 40.24209681857477 C16.03320465591329 24.38794727257624, 28.883187843249296 10.116907179073014, 36.900802103617536 -0.5464691462832967 M8.297408501877587 40.94543071607575 C17.99869981447037 27.403173232498254, 29.32870381927536 15.95189166827534, 43.53302029948287 -1.9826800722301954 M8.479283343329232 40.22590242842659 C15.350694690842506 30.597946503022406, 22.820389578295813 21.89912509001275, 43.15234078149848 0.23630730326762261 M12.057569349253168 38.4289508408586 C20.166307822764157 31.536259163476544, 27.099927301891555 24.207266470707438, 49.066748582711696 0.7546341054316805 M12.460070068085184 39.54114958110251 C24.40336203484602 26.465908083049847, 36.13671244737533 13.6239398504534, 46.54985290109205 -0.3168133564118101 M20.26561403873199 41.09351111227048 C32.81121525053365 25.909323968074865, 44.45459528605552 8.36916902012118, 52.56946314102477 -0.951665105722963 M17.64151773455375 39.34081212454808 C28.758770155923646 29.081922536652577, 37.89509600775646 16.43083172087255, 53.621276832879246 -0.8529455982671372 M23.583270003295066 38.42383299486583 C38.95761932069382 23.617927686952527, 49.70645582379232 7.277032855823165, 58.516155291441095 -0.03551792024858358 M23.30156471321595 40.22777558581775 C33.99513859667908 26.369010528103598, 44.909037211574656 15.433683854314964, 57.30156483137907 0.46838442564718363 M28.985528559961384 38.985976274090206 C41.828525799940955 25.862470638663666, 52.99964718141663 15.893054086367073, 62.94355246694167 1.6127971264092693 M29.125163258590764 39.29251381285707 C43.15632703684036 25.07401019160726, 57.3449850839843 7.7524085131216225, 63.18115526707251 -1.062437757614397 M34.353058112721456 39.144371994720835 C44.40845166905956 31.41796074355456, 52.12211337377061 18.588704256594994, 70.2016459845455 1.1843398196961417 M34.796692712168706 39.83012191294326 C46.69789272601679 25.054396538401576, 59.00603781428805 10.411356480015392, 69.25750039447858 0.3325616998936667 M40.504027065565786 39.32595120153494 C54.80334304070428 25.50271874082113, 65.13177570510612 6.857514215593305, 76.20216327723357 -1.0861683758334948 M39.03178241544028 40.60444499335356 C51.98157726028018 25.115608276892647, 64.4855378588749 9.561426745459237, 74.18353858407828 -0.11873167477415336 M43.22592673551336 40.28427367997807 C53.697989640461344 27.913723226897247, 66.45879587693103 13.715973811807874, 79.20191857505337 4.381461065934197 M44.60913462292448 41.112206902033506 C51.288668389549066 30.779268445811724, 59.34909830131206 21.9638393557064, 77.05104500341908 1.5632847069959794 M51.867984555545185 39.81656089460467 C60.45855189426772 29.846524651147718, 68.09849015217145 17.555099569611556, 77.01946222401438 10.211078350221996 M49.9629377051023 39.30004316603755 C59.326218682655224 29.22427046265762, 68.80698096199562 18.078656261780683, 77.60728093601045 8.808125112926845 M54.09269184268025 40.8013726308603 C63.651041629820455 31.07924622825872, 73.26781836597038 20.526359012048246, 79.00325777305964 15.806066620693276 M54.93439391649274 40.60217763331124 C62.14468182115553 32.873121351915245, 68.57617396395548 25.729773841979757, 77.22317086829547 15.231086749181816 M59.12427602989958 39.1609303532994 C64.9383740531049 30.839559490554045, 74.47013323964921 24.31352205086495, 78.19079653920816 20.66998566279358 M61.020191627576814 38.90274583090903 C63.94020037592014 36.15994029558487, 68.35027689791771 30.6916758480043, 78.05241705479311 20.953893463706436 M66.40819849015992 39.92136401931978 C70.9704353559088 36.4267774733595, 75.0823004364847 28.725380936432817, 76.60241473247974 26.271931362594422 M65.23843245001356 39.64484011481739 C69.27966769958952 35.410911833690356, 73.59670602366738 31.314486950003207, 77.21688135644166 27.29033662870055 M72.33527287074627 40.28804576042801 C72.55059415463168 38.166222739696394, 75.55705193791404 36.34246410077004, 77.18814044681585 32.23792838684225 M71.65367145815195 40.00625842008501 C72.96695703589056 38.24529148250726, 74.42733023692315 35.743893552462076, 77.68650114474094 32.507177928899765" stroke="#fa5252" stroke-width="0.5" fill="none"></path><path d="M-0.3196278214454651 -0.7545689940452576 C24.62069810302212 -1.476179243641404, 49.34807236733346 -1.6420441880994119, 72.3285806499995 -1.410366952419281 M-0.4006809890270233 0.7279786765575409 C23.202092289064947 0.17678781990248438, 46.02706405348504 -0.2881770467356992, 74.1096557401694 0.8653106391429901 M72.85813692441356 0.8005552887916565 C73.68658512167634 10.41956766413954, 74.90478771261873 19.346258262143675, 73.2646978222407 39.53626968768924 M74.90383756389987 0.8161239326000214 C73.41145406927629 8.846078741722376, 74.70400987829728 18.754909283266606, 75.20240342846286 38.523587637222704 M73.78107050290477 37.36193802265018 C56.716028909098654 36.381945795319375, 34.6685044051363 37.30726737429887, 0.9049682021141052 37.354699634588655 M74.62427079906833 37.483434133804735 C51.63779782142778 37.62638496156493, 28.289538955115354 37.819928395708, 0.49719861149787903 37.908790998733934 M0.5487822890281677 35.90448906329959 C1.2840819177547325 22.698842121718005, 0.09664486025961533 9.882904652792668, -1.6365757584571838 0.8515635132789612 M0.3514390289783478 37.947983198440966 C0.8351298170536755 23.05936104867319, -0.1704711122065784 8.977349006327291, 0.44303467869758606 -0.2730245888233185" stroke="#000000" stroke-width="1" fill="none"></path></g><g transform="translate(10 77.48076923076923) rotate(0 52.5 20.5)"><path d="M0 0 C0 0, 0 0, 0 0 M0 0 C0 0, 0 0, 0 0 M-0.3238790280790875 6.015573881615989 C1.8135683437455423 4.698394561482983, 4.714402314266526 1.830692803747266, 4.7584089692258305 0.4987079392967039 M-0.5094424612494061 6.2830913171666785 C1.475984928059222 3.7509936912278734, 4.004574633751151 1.6634347678111072, 5.268954163374848 0.22577470651243264 M-0.7562818518746985 12.898906749903738 C3.6478043751753972 10.316781992271576, 5.653989279034951 6.9513742107292575, 11.494182814610136 -1.4027450566098332 M-0.23032696162353883 12.46741406363207 C3.8191713418573636 8.123979736169105, 8.000380404816738 3.3699737687938884, 10.126100076687468 -0.1245873217389224 M1.476478231088235 19.241009740997725 C3.5047194199083727 12.619880028665264, 10.226976157901078 6.784853177819096, 13.66764039500006 1.7074723846209219 M0.04613707675130563 19.243148743082457 C4.752094350770408 13.14580360790572, 8.461477487118634 7.146695834770798, 16.05783203943022 0.6483406728995016 M-0.45293422767899294 22.372252894281505 C5.983631081602757 16.001216023006684, 14.922724651206506 8.470477217231036, 21.324529758000637 -1.8268297562212226 M1.0297638254425738 23.68997512543118 C6.167963744565541 16.92657165683284, 10.516954105473078 12.235652991520439, 21.955488881373668 -0.7989854166120764 M0.1456152806570188 30.135708069194308 C9.683241233296052 21.32139674206627, 16.169818352169518 11.92233710892275, 26.03086546310446 1.8433457495656551 M0.8458874533464567 30.973755961049548 C7.690442008093224 23.04129257724758, 14.26465134732527 13.194452098371553, 26.190525415029736 0.7888851346459926 M-0.9097048399132213 35.958306310513365 C8.428751291582042 24.940014741534164, 15.673852554219184 14.759790844850329, 30.698374943292535 -2.0472796334639902 M0.7101373019534627 37.358336357214796 C9.049875522334364 26.4740110238548, 16.78846347389711 17.415261350778795, 31.915880010879434 0.1398378537281637 M1.7928328435913095 42.574769082793125 C10.774730032411352 31.9328543650594, 18.580572762884568 22.19998925229658, 38.55204951558386 -1.1826461198646108 M0.5254517417446145 40.82160184098137 C12.998866560566176 27.301245699601548, 25.702101435606664 12.896630643615424, 36.691504923441755 0.46934658857998457 M6.570632851123136 42.518189109919724 C20.18596095973746 25.661760869495446, 28.748224199322046 13.672852361176865, 44.37861661295943 -0.20303224508175788 M7.194196230172437 40.54605919873541 C18.197810519127657 29.46226385544888, 28.217489428573053 18.11151543851101, 42.7328385231977 0.44279686625590386 M12.149832325758208 40.195383658675354 C23.45869219361761 24.312042285975927, 37.63337805615441 12.62845817557941, 47.27806755243826 -0.667378223669882 M11.12121884781288 41.99418975975911 C20.692888668893893 32.95712604080884, 27.289075935255454 22.62702097420744, 46.66233306466627 1.2131625347014712 M18.09859967148703 41.283283773837226 C26.01587800617567 29.152245014273447, 39.78527522744326 16.16188287879108, 53.91212976700133 -1.0909625910745255 M15.647148936156448 41.30483863132967 C26.998707479711733 30.455323813097657, 36.611165802179286 18.81854288205395, 53.757926918328465 -0.616670879028856 M20.92260329230011 41.52132050018258 C33.82595085607011 26.566977105737585, 43.17332863891751 17.1773073258023, 59.25579457366766 -0.9077255618501461 M22.14386583669365 41.085600920724346 C35.990199261057725 26.214187199486947, 50.97253422247744 8.857357466540165, 57.70457233870329 0.04377047301046488 M26.096834505216425 42.97555362315696 C35.4467897645343 33.04964552155662, 46.69273577087793 19.203009124626842, 61.84578940541823 -0.5079456714422932 M27.04632180394346 41.67695047588867 C37.056377259614976 30.632071279857815, 46.83556637628499 19.075196163714367, 62.84270769627173 -0.2651278821261158 M34.65802074321701 42.75570460731482 C44.30093446343092 25.114263411950198, 57.512135076680565 12.964308507930376, 68.53210557927206 -1.2005631344054208 M33.444955208386915 40.86927282387709 C43.20199681810345 31.038229590407248, 53.150378095699416 18.57384422810453, 67.9197852455528 -0.5153920964930521 M35.95615332332083 41.0528332381017 C46.968222189693 33.34013059200811, 53.810843616436856 20.42784626619203, 73.72647052821013 -1.2508564861850573 M36.83721830454298 42.94054181263516 C47.43185392683826 30.473468889681335, 56.97908017533868 18.29337753796069, 74.3387433570275 -0.2291366430358721 M42.90295967850891 41.101660980072054 C51.83965042871549 31.46338422476517, 57.647301277340816 25.030076761213238, 80.15387556925145 0.15723405866431506 M43.37604946289268 41.61864296921733 C52.380838413024556 31.641894294673683, 60.24095221004988 21.575950466084223, 79.90953428521482 -0.44088767380905836 M48.723431125800225 41.21824761867143 C60.55439478792729 26.742517620573572, 76.57936504606751 8.343003563121194, 86.10104813537703 -1.1165700353028285 M47.621400937954995 41.11905014156915 C56.63385241146868 32.9829297678562, 66.54956459580904 22.74063132230043, 85.09759640059576 -0.7352596617581355 M54.2042950981758 42.76231461845428 C60.88994212415622 33.5192089746183, 67.5222773944231 23.829746042220744, 90.16797954360584 1.8687910173590438 M54.78871110021094 41.10714885674507 C61.29463609322827 31.875635804986615, 70.14049522755604 21.98002090977295, 90.77538195768932 -0.20927875893757175 M60.44554291265462 42.174921764866156 C68.8747771147665 31.506554769881504, 82.92669829806346 16.231076113593108, 94.51639722691894 -0.9019613187955997 M58.50043220417951 41.735912962690634 C68.12539007480173 29.77321698144713, 79.52007530889342 18.954291302146544, 96.47082932697654 -0.5100594382928989 M64.1089020022177 42.94079052246151 C78.47806174847953 23.977680142040487, 93.029786099879 11.137682776906239, 101.62129250233525 -0.36276725832122025 M65.03450262034171 40.60822798646031 C75.75588268424221 29.7656357420705, 86.20231357753718 15.851773379650638, 100.11889076297635 -0.797127851878578 M70.16936368388403 43.62598067668589 C84.23394084030903 26.335697693435804, 99.382484650329 10.205896292940487, 104.86333377384533 0.3508042435594092 M69.07587460321653 41.81456777599963 C76.33520265262032 33.063663083877834, 85.51056950242504 24.798333255221923, 105.6539456071793 -0.02538889241738218 M75.1636553906346 41.84021369209374 C85.50244141541724 28.827496731032365, 99.02299608516829 15.17499748495947, 106.65615818452508 4.9580704536284586 M75.96498652328498 40.89531785836304 C84.3598785545754 31.22804069604558, 93.77045495959351 21.561742754342973, 106.1370919401613 7.111388769372859 M79.94176843948843 42.27454935413063 C88.18020171682396 30.849185085614426, 98.94526402283755 20.699489448772532, 105.50390637028912 14.410785774880992 M79.44929063506605 41.87845208149612 C86.60977956449058 33.752069152157475, 93.56776207418775 26.72597525977357, 105.81368133533695 11.558123598987208 M84.91543026342652 40.663709127350984 C93.20180579341509 33.80230612105351, 100.61976128175428 24.987357183306568, 103.63156964815637 18.02500999276255 M85.93172530904076 42.241855972453294 C93.28879840770453 32.269345317782, 100.96244742723414 24.401357010565185, 104.7436660472252 18.030289444371206 M90.80963217946783 43.823752797200356 C97.1305384403245 34.5918383644638, 101.03361262891616 28.976707804309232, 106.16981642211738 24.915174152050348 M90.22224279972806 41.95100337918011 C95.6414823584788 35.929661534859875, 101.11570228902652 28.400246350899216, 104.98642541731658 25.447981412802072 M97.47722521940742 41.566640179339856 C100.6635006551828 38.71211702549215, 104.39021891321724 32.83441272798902, 105.32567257406602 31.847525170906106 M95.98985111931833 42.131454779688326 C99.25861867117598 37.424901851409885, 102.77036126584157 34.72735730754961, 105.63771415772328 30.406809890730898 M101.8622526216319 42.16372739681954 C102.49391857407576 40.67061956435939, 103.84576454363437 37.97437416992886, 104.88776866843871 37.36823492250195 M101.16519172964601 41.73741034576649 C102.72532676211283 40.28907720445876, 103.64046193645373 39.07768775705679, 105.52250909557513 37.32339322468987" stroke="#15aabf" stroke-width="0.5" fill="none"></path><path d="M-1.7167072892189026 0.8224421143531799 C41.29418994486332 -1.169281716644764, 83.48276051878929 1.9661228701472282, 103.21579355001448 -1.4295472502708435 M-0.7105641067028046 0.36000534892082214 C22.522779181599613 0.09682407528162007, 44.65800845623016 -1.1008068069815635, 105.40852788090704 0.04933926463127136 M104.46019357442854 -0.995968759059906 C104.40508378475903 9.836776295304299, 106.61107934445141 22.336574572324754, 103.33013337850569 42.86831384897232 M105.50153782963751 -0.2674255669116974 C104.09317653566598 15.41011261045933, 105.91136711031197 30.41183902025223, 105.6270079910755 41.30273720622063 M104.93634980916976 40.54163843393326 C77.93818889558314 39.80443322211504, 54.34817007184027 41.43727433234453, -0.7972870469093323 39.156958639621735 M105.16020348668097 40.18250557780266 C81.83665691316126 42.713021884858605, 57.33101195096969 41.22077430337667, -0.17181536555290222 41.30048939585686 M0.3113707900047302 39.17940431833267 C-2.1457480236887934 26.729889664053918, 0.7483578875660897 8.029459482431413, 1.8706416487693787 1.7430277466773987 M0.6062531769275665 41.44710347056389 C0.15150654166936872 25.026033303141595, 0.3746653780341148 9.356885743141174, 0.6341281235218048 -0.0013494789600372314" stroke="#000000" stroke-width="1" fill="none"></path></g><g transform="translate(253.25 11.278846153846146) rotate(0 34 15)"><text x="0" y="21" font-family="Virgil, Segoe UI Emoji" font-size="22.677514792899416px" fill="#000000" text-anchor="start" style="white-space: pre;" direction="ltr">Node 1</text></g><g transform="translate(478.25 15.278846153846146) rotate(0 40.5 15)"><text x="0" y="21" font-family="Virgil, Segoe UI Emoji" font-size="22.677514792899416px" fill="#000000" text-anchor="start" style="white-space: pre;" direction="ltr">Node 2</text></g><g transform="translate(245.59615384615358 133.33653846153845) rotate(0 19.31730769230768 14.605769230769234)"><text x="0" y="20.211538461538453" font-family="Virgil, Segoe UI Emoji" font-size="22.677514792899416px" fill="#000000" text-anchor="start" style="white-space: pre;" direction="ltr">DB</text></g><g transform="translate(515.5961538461536 212.33653846153845) rotate(0 30.5 15.25)"><text x="0" y="21.5" font-family="Virgil, Segoe UI Emoji" font-size="23.055473372781073px" fill="#000000" text-anchor="start" style="white-space: pre;" direction="ltr">knotd</text></g><g transform="translate(24 82.69505494505492) rotate(0 34 15.5)"><text x="0" y="22" font-family="Virgil, Segoe UI Emoji" font-size="24.065934065934094px" fill="#000000" text-anchor="start" style="white-space: pre;" direction="ltr">Client</text></g><g transform="translate(235.38070117181314 187.43521836904472) rotate(0 59.24365823265816 9.87394303877636)"><text x="59.24365823265816" y="13.747886077552735" font-family="Virgil, Segoe UI Emoji" font-size="15.190681598117486px" fill="#000000" text-anchor="middle" style="white-space: pre;" direction="ltr">Message Broker</text></g><g transform="translate(240.4184770515301 59.43521836904472) rotate(0 54.35294117647061 12)"><text x="54.35294117647059" y="17.000000000000007" font-family="Virgil, Segoe UI Emoji" font-size="18.18774958648258px" fill="#000000" text-anchor="middle" style="white-space: pre;" direction="ltr">restknot-api</text></g><g><g transform="translate(202.5871786945329 116.69644902300689) rotate(350.25459692348977 -35.79997519471783 -10.815799370618976)"><path d="M-1.0387189507484436 0.7975284218788146 C-13.262057059921341 -2.9818814328022505, -60.45515810806313 -18.464744163904438, -72.21676526020478 -22.429127163116753 M0.6168148707691579 0.17062689802609388 C-11.332065479440633 -3.468300048465674, -57.78907720829369 -17.41363139325204, -69.98022315489325 -21.14516167035599" stroke="#000000" stroke-width="1" fill="none"></path></g><g transform="translate(202.5871786945329 116.69644902300689) rotate(350.25459692348977 -35.79997519471783 -10.815799370618976)"><path d="M-29.690846783692947 0.3461766063273244 C-20.026060850697768 1.203307834305268, -9.157983652849733 0.6222709268676023, -2.318263840675354 -0.11385324001312269 M-32.01768471079599 1.5525974153578572 C-23.651289450060137 1.5985781113644755, -17.827442284016193 1.3826668992454179, -0.4806053459644317 1.4993449509143828" stroke="#000000" stroke-width="1" fill="none"></path></g><g transform="translate(202.5871786945329 116.69644902300689) rotate(350.25459692348977 -35.79997519471783 -10.815799370618976)"><path d="M-23.356546404447855 -19.172958648374273 C-16.144743680240783 -10.687822315150221, -7.769880575156307 -3.586024468644654, -2.318263840675354 -0.11385324001312269 M-25.683384331550897 -17.96653783934374 C-18.71593745651151 -13.329644073666167, -14.379320300980492 -8.962658676528967, -0.4806053459644317 1.4993449509143828" stroke="#000000" stroke-width="1" fill="none"></path></g><g transform="translate(202.5871786945329 116.69644902300689) rotate(350.25459692348977 -35.79997519471783 -10.815799370618976)"><path d="M-38.696396646656936 -24.30401097075243 C-52.61713855589096 -22.899999526005175, -65.34016962254776 -22.415351119962047, -71.25976804482016 -22.056543332247927 M-41.02323457375998 -23.097590161721897 C-46.71695294328763 -22.340063525612553, -54.96546494369666 -21.920281563779294, -69.42210955010924 -20.44334514132042" stroke="#000000" stroke-width="1" fill="none"></path></g><g transform="translate(202.5871786945329 116.69644902300689) rotate(350.25459692348977 -35.79997519471783 -10.815799370618976)"><path d="M-44.6441000059825 -4.6636233183839835 C-56.26427524910462 -10.93868894359324, -66.64625885239265 -18.184600875779637, -71.25976804482016 -22.056543332247927 M-46.970937933085544 -3.4572025093534506 C-51.35702541162937 -7.318568523032682, -58.20907649291292 -11.510152013715413, -69.42210955010924 -20.44334514132042" stroke="#000000" stroke-width="1" fill="none"></path></g></g><g><g transform="translate(337.44161842255653 98.58186466294595) rotate(350.5482302579449 -7.056570477284026 35.25103120724911)"><path d="M0.04654410593211655 0.33053744919598094 C-2.0091544269967434 11.973513132045845, -10.98623223724383 58.117969462326066, -13.302574919952963 69.80719110159683 M-1.3881589677929878 -0.5415343353152275 C-3.5019893266457673 11.260072174007874, -11.921967067369996 58.9819844421505, -14.15968506050012 71.04359674981345" stroke="#000000" stroke-width="1" fill="none"></path></g><g transform="translate(337.44161842255653 98.58186466294595) rotate(350.5482302579449 -7.056570477284026 35.25103120724911)"><path d="M-18.702560026354725 41.76788450011371 C-19.104484575534393 47.33452577987041, -16.889620109596382 53.41477187260578, -16.07120673556528 71.98081967948485 M-19.18226143826508 42.10103017536311 C-17.18788494552135 50.96889625506438, -14.856266774735195 61.184542724548244, -13.691559641740238 71.9256857080992" stroke="#000000" stroke-width="1" fill="none"></path></g><g transform="translate(337.44161842255653 98.58186466294595) rotate(350.5482302579449 -7.056570477284026 35.25103120724911)"><path d="M1.4927832555557057 45.41042648499665 C-3.3364696189559133 50.18608648478434, -5.550471329084836 55.46751817924198, -16.07120673556528 71.98081967948485 M1.0130818436453506 45.743572160246046 C-3.751192524044109 53.32961367877404, -8.172935688001592 62.32718715699941, -13.691559641740238 71.9256857080992" stroke="#000000" stroke-width="1" fill="none"></path></g></g><g><g transform="translate(356.69705740351264 190.28581655111444) rotate(350.5482302579449 47.85757391421964 -28.611569106868927)"><path d="M0.6190909981727599 -0.6584272027015686 C16.48416040282201 -10.003744033594149, 80.41296715044733 -47.81542403111467, 96.23017278556533 -57.192759904976 M-0.5150249571260066 1.6102945705410092 C15.12383808676589 -7.962262378437909, 79.57942348854932 -48.791527509570585, 95.41888897804364 -58.83343278427888" stroke="#000000" stroke-width="1" fill="none"></path></g><g transform="translate(356.69705740351264 190.28581655111444) rotate(350.5482302579449 47.85757391421964 -28.611569106868927)"><path d="M75.99492337569993 -34.64771702725035 C85.92990859270947 -45.10546330724068, 93.46634587691233 -54.798800205751256, 96.70239447740659 -58.73947303553391 M77.5003372953872 -34.81239980298621 C82.47461899137691 -41.42469796579734, 88.258473268809 -48.89668581132675, 95.41222371844395 -58.5721789207058" stroke="#000000" stroke-width="1" fill="none"></path></g><g transform="translate(356.69705740351264 190.28581655111444) rotate(350.5482302579449 47.85757391421964 -28.611569106868927)"><path d="M65.01532703871774 -51.98462755544905 C79.03359799145578 -55.79576517544077, 90.81525626808876 -58.78584867015443, 96.70239447740659 -58.73947303553391 M66.52074095840501 -52.14931033118491 C74.39532275410608 -54.070115764599905, 83.21560178372565 -56.74755355213044, 95.41222371844395 -58.5721789207058" stroke="#000000" stroke-width="1" fill="none"></path></g></g><g><g transform="translate(266.36406434536343 92.16695792298476) rotate(350.5482302579449 -2.395742498014897 15.777539080059135)"><path d="M0.4659307837486266 0.5448623299598694 C-0.2960171009407153 6.026741579230556, -3.451015747242028 26.55997032252912, -4.02037329990012 31.76976705226856 M-0.7485942841228097 -0.21468889215029785 C-1.7649696027201376 5.050528184743278, -4.808335411666314 25.152448897853763, -5.2574157797784125 30.192220847260156" stroke="#000000" stroke-width="1" fill="none"></path></g><g transform="translate(266.36406434536343 92.16695792298476) rotate(350.5482302579449 -2.395742498014897 15.777539080059135)"><path d="M4.28920938100395 14.98069579387533 C3.986672645340982 11.132476097443103, 2.95058330855897 3.8465183735001665, 0.6239944769695764 0.7735904858956169 M3.7997022727756464 15.673516244993003 C2.830028290526428 11.021978464511424, 1.795141591969092 6.805888046079905, 0.5858006879267901 0.36385430697371346" stroke="#000000" stroke-width="1" fill="none"></path></g><g transform="translate(266.36406434536343 92.16695792298476) rotate(350.5482302579449 -2.395742498014897 15.777539080059135)"><path d="M-6.176137541454929 13.443638145459804 C-2.8726276965187205 10.086518133857187, -0.2883052599463709 3.3322944888587136, 0.6239944769695764 0.7735904858956169 M-6.665644649683232 14.136458596577476 C-4.475939171467797 10.037679113331851, -2.3461666955073075 6.286385860714506, 0.5858006879267901 0.36385430697371346" stroke="#000000" stroke-width="1" fill="none"></path></g><g transform="translate(266.36406434536343 92.16695792298476) rotate(350.5482302579449 -2.395742498014897 15.777539080059135)"><path d="M-7.990568140037419 14.405836701378602 C-6.307408504422943 20.987319590116556, -5.075347534708209 24.156521476465706, -5.099352086557463 30.420949003195904 M-8.480075248265722 15.098657152496276 C-7.570934949961838 19.641246430692537, -6.623195603197844 24.564176337317438, -5.1375458756002494 30.011212824274" stroke="#000000" stroke-width="1" fill="none"></path></g><g transform="translate(266.36406434536343 92.16695792298476) rotate(350.5482302579449 -2.395742498014897 15.777539080059135)"><path d="M2.5044654101487973 15.725042220787103 C0.5692725640182441 21.890905073549053, -1.829348115749865 24.603737263859646, -5.099352086557463 30.420949003195904 M2.0149583019204944 16.417862671904775 C-0.24500623221489704 20.473321335776717, -2.47090312107276 24.99733127529461, -5.1375458756002494 30.011212824274" stroke="#000000" stroke-width="1" fill="none"></path></g></g><g><g transform="translate(546.1920621336005 136.4223730193175) rotate(350.5482302579449 -5.22330513077145 30.92345056559799)"><path d="M0.2552988409996033 -0.46964610815048213 C-1.3872503226958393 9.91350718534521, -8.286126252990304 51.768812086012545, -9.813038209654497 62.07558598497699 M-1.0698079968150704 -1.761814260268584 C-2.864213488461467 8.844532512705467, -9.357445045756265 52.92936648035269, -10.701909102542432 63.60871539146456" stroke="#000000" stroke-width="1" fill="none"></path></g><g transform="translate(546.1920621336005 136.4223730193175) rotate(350.5482302579449 -5.22330513077145 30.92345056559799)"><path d="M5.089685023537534 29.187648994379757 C4.208717887977895 21.766436155142316, 1.329484332592072 11.486654274384755, 0.7640649557113648 -1.8205228567123413 M5.5021030015858585 29.015867365055797 C4.138479953127807 19.450321097808494, 2.8433580069374096 11.902823028792131, 0.8001468360424042 -0.11207739710807796" stroke="#000000" stroke-width="1" fill="none"></path></g><g transform="translate(546.1920621336005 136.4223730193175) rotate(350.5482302579449 -5.22330513077145 30.92345056559799)"><path d="M-15.167064143443216 25.903731277404454 C-9.905786206648056 19.436161695381237, -6.6366629418141105 10.15311911004415, 0.7640649557113648 -1.8205228567123413 M-14.754646165394892 25.731949648080494 C-10.21360362099172 17.178045320077715, -5.605432653631848 10.587558073849356, 0.8001468360424042 -0.11207739710807796" stroke="#000000" stroke-width="1" fill="none"></path></g><g transform="translate(546.1920621336005 136.4223730193175) rotate(350.5482302579449 -5.22330513077145 30.92345056559799)"><path d="M-17.773834999251065 34.46320817053194 C-15.15042041663244 44.864573517814335, -14.415833488155716 52.43270038753003, -10.19314298783067 62.2578386429027 M-17.36141702120274 34.29142654120798 C-15.23068122802835 41.89450977654936, -13.05602393449238 51.48353067173238, -10.157061107499631 63.96628410250696" stroke="#000000" stroke-width="1" fill="none"></path></g><g transform="translate(546.1920621336005 136.4223730193175) rotate(350.5482302579449 -5.22330513077145 30.92345056559799)"><path d="M2.552676455036318 37.283302935706175 C-0.988191609410765 46.871953634987364, -6.423135848104553 53.584121399903154, -10.19314298783067 62.2578386429027 M2.9650944330846425 37.111521306382215 C-0.8289718588971073 43.83794337013967, -4.577937849441026 52.60512235448292, -10.157061107499631 63.96628410250696" stroke="#000000" stroke-width="1" fill="none"></path></g></g><g stroke-opacity="0.9" fill-opacity="0.9" transform="translate(450.4551591689469 90.82906588173466) rotate(0 65.59343537217012 17.2706388739565)"><path d="M0 0 C0 0, 0 0, 0 0 M0 0 C0 0, 0 0, 0 0 M-0.7597554929228374 5.822739408959739 C1.3476962627850897 5.192362168792391, 2.7341342217734774 3.8931294010270534, 5.27917312938208 0.7054828416404538 M-0.5291018850775311 6.103043709744804 C0.9055386712131458 4.554189097062897, 2.6777509919377636 3.028924369214344, 4.680349427046722 0.48654741159055764 M-0.8460035315621985 11.543706554591237 C2.5853248749368305 6.938596083387574, 7.805199247773757 2.7763188021608824, 9.442742384922635 0.7162734980776668 M0.008088565720211216 12.22333447378832 C3.8460607760237857 8.77546015318833, 6.999315051857123 4.715039394385009, 10.964124979031217 -0.6245262865826725 M-0.75188480602114 17.9288454343571 C4.670671659085133 12.579114465341133, 8.778915946166004 8.082103473527916, 17.143378920390685 -0.9181684845197031 M-0.011800545319006872 18.53619378702777 C6.754014153781536 11.009080243418579, 11.100703496430766 3.8992121220524396, 16.421281136109908 0.6996864980948141 M1.108741797711632 26.03567452514088 C7.8167632231896516 14.999648730871742, 16.45574847688437 5.903529269794873, 21.74655734589126 1.8668653121381524 M-0.5872558278777387 24.53428970062649 C8.420728993494365 14.581697869328918, 16.93913080458845 5.326271045752435, 21.931730946803356 0.38175493983323605 M0.4035803685476438 30.368465637553683 C7.521433407574372 22.93239463302896, 16.081329275761497 13.447189753482895, 27.305432113495083 -1.5498732445749699 M-0.03333923122385585 29.82246506749486 C9.839336049194713 19.57798009189191, 19.52897686184973 8.462281770103345, 25.576435449209423 0.052145022341305136 M-0.737082631541579 33.844730655927194 C12.826817186830283 21.414088999410275, 21.29359236672334 10.983660421881222, 33.73173065618316 1.0663373098953848 M1.6776966441141674 35.65514583446456 C10.10325863650373 23.910083314801238, 21.652372854980143 13.241966774648901, 32.00833301380912 -1.0612577273265238 M5.410598288405991 36.68977188437032 C12.10649108191172 27.020750117874314, 20.160891357522026 18.065936762433417, 37.250444290974485 1.0315567609947642 M5.260908226598358 35.00079836814451 C14.27101905273405 26.291585558232164, 21.583434857604495 18.795357255899354, 36.28737589512144 0.7570205387752971 M11.60343735843782 33.98377784899692 C24.824640663594252 23.150598617835712, 36.058543411978164 8.910750627646078, 41.64830045085006 0.7055065732776171 M12.558070683776183 35.08902525714855 C20.308699553445436 25.257948892298455, 31.177832681795252 14.246448458350216, 42.12900246362739 0.6723653477012164 M17.50392589557289 36.60530833525255 C25.188110465627645 26.201754511481397, 36.121210975390774 14.076221648567305, 47.025290452828884 1.529246532189493 M17.410386270166626 35.354050349422245 C24.95474259362927 26.419053134971982, 35.44709287992501 15.307280363334595, 47.65566497384596 0.3377505473967837 M20.33629133279222 36.47658480769166 C30.10585947615555 28.054271285862704, 34.782894234868024 20.20874479923223, 53.04314172989196 -0.012501897715150534 M23.314543356250702 35.68000917202004 C28.24913044800776 29.013515258529416, 34.23313930859726 21.108775535515072, 53.64530179625815 -1.1439383350835435 M27.63802498711479 34.60116705175979 C36.16838822180984 24.618617372542626, 47.338971022144676 12.327147001545384, 59.67684559905828 -0.3536789309907711 M27.17424419654739 35.43862557288749 C33.04768787479472 28.64114264592154, 40.80607322866258 21.386057352205995, 57.282865185382974 -0.18222745179422262 M32.50835429152161 37.02627653201139 C44.247728437732846 24.319596951517223, 52.961844429816644 11.136553118531317, 62.463129493308855 -0.8845631030829182 M33.54867716153771 34.45153507907903 C41.17386970691324 25.335715429843134, 50.598573715159375 14.286907477678497, 64.40879351170142 0.2632687243191967 M38.35977056303169 34.88047303389202 C51.23136314257665 21.423889039106115, 60.35311468514947 7.337439744707783, 69.25198472966268 0.08590537145395416 M38.40404450574066 36.027961538540225 C45.061344531984695 27.064048774600145, 51.93195877355832 20.32369311798064, 69.27053902973249 -0.27947595879773957 M42.16650123462602 36.33597802195612 C50.583542452242774 25.15145639696361, 56.5535980375196 18.661259358520116, 75.45513874110075 -0.7075520428256823 M43.362034599637234 35.92704047832552 C55.36037649156401 21.849850377866268, 67.20690919278523 9.667279333364792, 74.77104010995718 -0.8325759740905596 M47.216037623323594 34.64635128164925 C60.53206862783448 21.936648517977787, 69.04836360517587 13.113058010722991, 80.79758284464208 0.5511244395236901 M49.45134969774643 35.39549574638047 C57.540005869781496 24.315977643957456, 67.42044246254295 12.802041563173525, 80.2202490068945 0.06944252638625414 M54.35760716210542 36.10881427752585 C59.961792399353314 26.449908802653646, 65.24111328259454 20.294477960563096, 84.56604447326765 -1.2783437169434535 M53.35617817054925 36.12996286975951 C66.74339637180236 20.66460594371445, 77.27342159560163 6.299008480016692, 85.58360409102545 -0.658034930312823 M58.753701167990485 36.10192679503148 C71.69273440866174 21.304049838286428, 84.48532934480501 8.620197386964797, 90.36051494399646 -0.25489672678158115 M59.16772227256469 35.314665696408206 C72.51829672869677 21.219485787777256, 83.8158100613488 7.4708745146572895, 89.233557616869 0.38796550375774075 M65.12854707395982 35.04791029872058 C70.90672787778156 27.525725610137734, 79.5909360818144 17.37350822178796, 97.34272168980957 0.6061868745637753 M64.63267037427377 34.583739753380996 C72.74800645339991 25.166495815592846, 79.96197959553707 16.28260765568997, 96.19804795490623 0.0603293556524136 M68.51963619703238 34.45032457403872 C80.72077594059539 26.083959290259436, 87.31763816418282 12.650738316570184, 100.98765602772588 1.3709668725381547 M68.90472473019545 35.05890888862345 C80.68346546353393 21.87495758693286, 90.77323213187229 10.031359159917628, 99.91202735965604 -0.30046952668326554 M73.52619597018922 36.85639108554032 C82.36645806698562 28.939684365979446, 87.96825577831007 17.80635808490612, 104.33204539072645 1.1491647316960112 M74.79307371081079 34.31180862918999 C83.20467111226039 27.514453009850484, 89.63401016154596 20.076036331919674, 106.46593420159948 0.0959543838051573 M79.06071771044928 33.894669618670946 C92.6766138936739 21.568048132353024, 105.12757000110588 6.76825858919333, 110.72588109583027 -1.8681597625171165 M80.51391957063872 35.401662823026186 C87.21775485917411 28.86616229178655, 93.06808982047063 21.34734501535864, 110.35722073525555 0.5275749350632211 M85.59742885079362 34.23738163798505 C96.92694760506521 21.960348127832674, 108.0007711699242 8.535449487322651, 114.42483154702785 2.30842443467602 M85.9389506801603 35.837606997186484 C94.37091075400235 26.447925013272886, 103.18990749604153 15.791976595244293, 116.08276630211475 0.47698723436817403 M91.9238207082412 35.638086928928175 C102.83889978988356 24.169665425467176, 110.75650974591403 11.167256445690846, 120.62206514830967 -0.26915163194738057 M90.3468692938945 34.61636499961642 C102.28994095981174 23.399374942597724, 113.25446855970822 10.490214792616957, 121.17070024366757 0.8955363889972148 M98.389120715773 36.89400695605478 C103.22016167362918 26.20385323282039, 113.05683779355844 14.510140470754123, 125.48007321669473 0.7776718230582489 M96.6718637823223 35.18457235737047 C108.48952554894669 22.352010239838286, 120.44157427258433 8.423994032081467, 127.212224814433 -0.5325537531040894 M103.65582019040808 33.88370150481042 C110.65849807911823 28.0060857691128, 118.91586622400777 15.988626634817134, 130.06702415617357 1.6258258444701283 M101.25513639996275 34.47645291839417 C110.69105373617785 24.568995043824415, 120.09875185435818 14.800654518448045, 132.79796935590159 1.0815619153414815 M107.2920875361369 36.28410161997228 C114.17387030252728 27.01473243006175, 120.49827971096164 19.147141870396457, 130.48405510982207 7.307127699070421 M107.43731648830632 36.63085178996473 C112.89511968839972 28.571036834412368, 119.08941117387121 22.512076437754846, 130.6452819486492 7.88786472361609 M113.80359115694998 35.83463834631765 C117.32569307298834 28.392194107588615, 123.2923607415889 24.352089684169773, 132.92280671355485 14.085831789854211 M112.59028338884352 36.25536407935941 C119.68858957505812 28.64115380768834, 124.99187838070753 19.613357157205996, 131.65576416609048 12.675023137214822 M116.6653223698663 34.601371469292026 C119.31137102203206 33.06077790577102, 125.86454592481915 25.772323561364672, 133.29577028439087 20.590497902267018 M117.14898935609334 35.69046363452373 C121.19886532063082 30.970247757547856, 126.13437700415356 24.631055529761717, 131.54561826274437 19.002261004083195 M124.33185568690551 34.19037472667566 C125.53102944207247 31.711028205961078, 128.03151791266933 28.769321031572254, 132.8015188618766 25.98012202292941 M122.43476059377444 34.91313419701925 C125.43205473859969 31.94393600607252, 128.07482543556554 29.236429493548467, 131.82807040952312 24.84987846821807 M127.9422523518253 36.18714150958504 C129.33029255499142 34.91955771696036, 130.16215590722908 32.798313683048015, 131.94416000019461 31.59064805870495 M127.74807575244195 35.68851267569507 C129.4031270138087 34.2300084517681, 130.94666945179074 32.58888764460092, 132.18497075508984 31.366597605399704" stroke="#7950f2" stroke-width="0.5" fill="none"></path><path d="M-1.1003437638282776 1.306176245212555 C39.06769465850615 0.9945914116134982, 81.56965642068432 1.5567538109054904, 131.6293793822454 0.3344603180885315 M0.45757248997688293 -0.5183363258838654 C43.5579274319325 0.8335653029848348, 87.73204336021624 1.039743014471651, 130.98179694067701 0.8824233710765839 M130.70971690665945 -0.692898690700531 C132.07976425330799 9.60809720154942, 131.87462700050037 15.91989631645562, 129.3462582732366 34.3366851027447 M131.21933813940748 -0.7663727104663849 C131.91840294409937 10.021366753609641, 131.19997242499537 21.21141945010754, 130.23494501959547 34.134618591828946 M130.53841220390066 32.79907218770564 C91.78131554373506 34.99335179753148, 49.58861097341321 36.615450720260974, 1.5407561659812927 36.38216583089412 M131.03767176520094 34.55735571341098 C82.03450495621023 33.88359347100156, 33.02111475854764 34.01390448326963, 0.5807938873767853 34.04301531271518 M-0.014648497104644775 35.443674009605054 C-0.740436021561631 23.853595009587032, -1.8199629228067482 10.356350482225256, 0.6237239241600037 -0.22245687246322632 M-0.24660632014274597 34.60759813742221 C-0.3713797013516771 20.415674758389827, 0.596408041263069 7.0537989867793165, 0.5151553452014923 -0.9363317787647247" stroke="#000000" stroke-width="1" fill="none"></path></g><g stroke-opacity="0.9" fill-opacity="0.9" transform="translate(233.30882352941194 184.7183620199171) rotate(0 62.84558823529403 13.389949368561943)"><path d="M0 0 C0 0, 0 0, 0 0 M0 0 C0 0, 0 0, 0 0 M-0.25613610890227057 5.6340254657465145 C1.4851135715847605 4.248983134284394, 2.916586594272654 2.5874475542326434, 4.294483106168455 -0.0666277032497114 M-0.18266969357150292 6.331359897230856 C0.9936459781023068 4.750247169873942, 2.068187516514648 3.786325987306067, 5.123510670619553 0.3229359157231861 M-0.8788170344103468 11.60311057162243 C2.5626492241217873 8.233397564040756, 5.3702267165438 5.759278961699643, 11.915388619852198 1.0226797829463843 M0.22027756134976018 11.598342507749377 C2.871625743377085 8.767226117748807, 6.722907941522781 4.703696640782722, 11.016782119077575 0.3882808911695841 M0.3544340235600014 17.04506814563709 C3.0434657233020648 12.635376332623533, 8.027539471102195 9.092498759307881, 15.914479499220331 -1.1221277986723015 M-0.9064819831913571 19.368506250810498 C4.296935109671994 13.746670021443695, 9.967229777039167 6.7191635392295925, 14.632193767003198 -0.3367076519015262 M-0.17732419984421988 22.34390650661206 C3.1329960805139025 20.296782333959275, 10.28836258473342 12.379835283212016, 23.03976093632903 -1.9026206662714955 M1.0470269259250973 24.997098517320214 C7.799838062771219 16.653664411010126, 14.635775547998476 7.85278315491102, 20.450402058007086 -0.8450361449108001 M3.3207613885167504 29.473186623279187 C7.881781735002688 20.28769942910177, 13.940546942259209 13.504209802183986, 28.018396109950157 1.935199638271028 M1.9108985600757862 27.98459494949523 C11.317814574027848 17.59797663715382, 20.4124105233371 7.665774079506381, 26.323253262464316 -0.30519135072708714 M6.987949418583186 28.445940399501396 C12.371941323867624 20.06986127120899, 19.529438318627996 13.477453197781292, 31.847256496033467 -0.38584727595902635 M6.369038765997859 29.009829453151596 C12.624216220163351 23.310355585819764, 17.432765032071742 15.787259118030562, 31.099883260621525 -0.8392938458115573 M10.83788219236181 27.31011992570103 C18.690978722061047 21.827955888102533, 24.944465164862056 14.203016697477542, 38.553274329566705 1.9403496460151395 M12.732666749994912 28.455501433164784 C19.243088581587596 20.39794864588538, 24.300286130091052 13.98721072531841, 37.13116837926333 -0.5359774482342878 M18.350616944840358 26.66871125685488 C25.709088959203044 20.640644220485342, 34.67967777945601 9.542199365151308, 44.12941483649962 -1.421983736720776 M18.501096338851557 28.459539571464706 C25.55196246999708 20.632863443010326, 32.815754429359075 12.856573253305662, 42.174447623636354 0.3556841405435449 M21.47224390196859 29.482815252048653 C28.720227431795117 22.515570022285054, 37.693520603911736 14.300516141583003, 48.97370400181997 1.399669880810027 M22.33010403781443 27.249432666590195 C31.40914944633701 18.041994679400887, 40.32564540861873 7.759493524433623, 47.80130044552523 0.3076039774518655 M29.053914048734246 28.421824216259147 C36.74160723698428 19.490790468040785, 42.12814177976702 10.98918999603367, 54.82520080147749 1.7609426076932557 M28.439706798668144 28.023656275471176 C34.80139692533753 18.971277171940706, 43.62581717616565 11.106726060736655, 53.302268975176574 0.3187552360295065 M35.78781136108709 27.138245258572063 C42.98580843655321 17.977500499758165, 48.14913406675382 11.353806205954907, 57.20302497045995 1.8507579989057028 M34.51888425165934 28.757746071646473 C41.967014512459976 19.863154255294326, 49.24889762338039 10.290088553569788, 58.09463578937502 0.7965978482063854 M38.64618057401485 27.617876933964194 C43.65658972889048 21.894191196462764, 51.282264602998154 16.781057945854357, 62.342329234717084 -0.033845586466931366 M38.13335647357262 29.085724487046004 C46.97148477129054 19.570781376750745, 55.80317151903348 9.374142594308847, 63.627146143367185 -0.6368481374786725 M45.81729941346731 27.454632601521247 C49.05919075150467 21.62398587551329, 56.58358799437383 16.036909541796526, 67.63332707923665 1.8624616565521492 M44.63030621965464 28.106174070208603 C49.377793931468915 21.943985494255077, 56.70543546079455 13.708016714555741, 67.7877857389377 -0.2635759140957461 M49.144506364432175 27.200717066220026 C57.9570209915542 17.05473918027495, 69.64386148763211 8.463782173380057, 74.5572649799684 -1.9718756629513337 M49.54615669168999 29.263664128064196 C55.98701136485133 20.414263166341588, 63.219085518596835 13.664476407422532, 74.80850295633319 -0.46351855810598863 M57.062172902859245 27.64144993714622 C62.104262872717115 21.286243030193102, 65.60918635032851 17.231493691058716, 81.12545017190007 -0.9651214900006124 M54.51129376992533 28.1548240841516 C65.35511917406835 18.122699770524623, 73.72064513383677 6.762413831612346, 79.67298662233827 -0.8331223875795075 M59.03473126373622 29.145442269276632 C63.75282310138644 21.169489136506858, 71.66295637054694 15.040915734906578, 86.81522288098142 0.8125750344900382 M59.657843781145246 27.40977012040074 C68.13085917041386 18.886573785695795, 76.15932415623914 9.741596350287395, 86.02138824219958 -0.37927360397745247 M66.4926466730129 28.939419921696967 C76.13645346424408 18.93585256348624, 83.30028327150926 7.708383713955936, 89.0089840922002 -0.0006437845025999422 M65.52439573059641 28.498178535350448 C72.00126818428852 21.52516506042495, 77.14442905625957 15.071213914947716, 90.55809976770172 -0.6378716503699167 M69.27144511567698 28.45840019938402 C75.56116216300164 22.425116411286414, 82.91950166822774 13.215805588460332, 95.93016778150619 -0.7835208378928087 M71.4637790700634 28.610712385930643 C78.0256822039336 19.34466465628308, 86.86860498678037 8.50879025394702, 94.95647582909137 0.13224414678194307 M75.89162653868776 27.375224791646275 C79.98869928362923 21.518117791209598, 87.18331994054405 12.737653916594212, 99.08226868388707 -1.581507570703799 M74.89172690080237 29.219804425902936 C80.94921071771486 23.41959698114497, 86.19727537840404 16.34595883083097, 100.26661150315309 -0.16927878059195933 M81.27798776400448 27.177188512792195 C87.19787329724338 20.75868979371827, 95.61943861233338 10.170811480374674, 106.18481452529264 0.16805937615013278 M80.97494888656945 29.187535846528913 C88.23976224940625 20.28603442128209, 94.6076245261032 13.101937141574957, 106.82006454513353 0.3217671160472051 M84.47894540161485 28.742668042798584 C90.53610065300606 21.48093911110767, 97.19945365438024 17.505666452127514, 109.61239379071064 0.9861348076457759 M87.31920416664923 28.873515017238503 C95.58503883006892 17.613662492063686, 105.5629494780508 5.998096642055636, 110.63763315681733 0.31557614362935027 M90.94644905246867 28.370654865751153 C99.51944593666023 19.467952144577488, 104.64224203712233 13.021659701265982, 114.67456892710032 1.3814979130916285 M92.21796455878837 27.695660424070542 C97.8811115227228 21.184760725402718, 105.56392047313796 12.812254041602227, 116.6780191894606 -0.0708876940839005 M98.97500907655368 27.130931911626682 C104.01392158035173 21.133438204441376, 108.59190014689183 14.480162864863157, 123.33519925642094 1.4273810067961392 M96.0601923272715 28.011627311454937 C102.79005934155899 22.49558517159686, 107.21195995156577 16.890898237029226, 122.52590105681946 -0.20601195583097365 M102.63766882481958 30.13889691451088 C113.71381148327379 16.77388732666326, 121.57597248780509 5.719410819164864, 127.27570485966972 3.0928078489588984 M102.23506241484519 27.92488104043052 C111.73785511833044 19.79563822882219, 119.00800962422645 8.424888259914077, 126.42394761918804 1.9190525580408462 M106.22503240725419 27.90573905438056 C112.59347108613119 21.456505812815298, 120.69790245919611 11.370757954770191, 127.55074366385338 5.290964905002234 M108.53974021079412 29.16612373042723 C112.67179549339491 22.699924015627847, 117.35301195891839 16.98505714548585, 126.89724527036992 6.270013064907012 M115.18123692480724 27.613262315321393 C118.41392013250784 20.44504569900031, 122.70378728620338 15.482378231522596, 124.83630173189323 11.644605543343523 M114.08410378286491 27.89936761748386 C117.85786389581787 23.073881190653438, 121.90571463018343 18.25137837483372, 125.97013822758328 13.066088997638026 M118.43971625498791 29.808363906226482 C121.5851537555742 25.828877949239285, 125.05548714729295 19.93643783991712, 125.78076287712187 17.52858718220576 M118.54081817010713 28.598908625894587 C121.6984452430368 24.782889281399218, 124.28916700170593 21.34638588046861, 126.8891983018651 18.71497496218852 M123.88791041874104 27.94809889174294 C124.62800257644132 26.890037755739336, 125.91836021677751 25.963090170991453, 126.68319263675004 25.49565247997432 M123.88052677769923 28.332362162277512 C124.90950936980431 27.410098673861256, 125.61261950643241 26.165907962365832, 126.49745572780012 24.98932055879175" stroke="#fd7e14" stroke-width="0.5" fill="none"></path><path d="M-0.904916288331151 -1.2141540329903364 C32.60976985627642 -0.6405043094981835, 64.37567479666036 1.1377921015392616, 124.13471579014794 0.08649447746574879 M-0.105804487131536 0.7116016736254096 C32.24648771190271 0.08956069329027594, 65.09543918980658 -0.4694955589508587, 125.5380634490727 -0.9186615655198693 M124.79016518055931 -0.7159809749573469 C124.66180695767082 4.421091937249905, 127.74980063910164 11.090179696258915, 126.63819163500801 28.14890045536188 M125.3524400417088 0.8538415720686316 C125.52821027000479 6.168652489884112, 125.41297920306258 12.6545134794159, 125.00525147955403 26.494656536294794 M127.6345376318647 26.76651472461847 C101.5666306753326 28.736529152758052, 73.24542591301437 25.59445736921542, 0.7369423490017653 27.72402740133432 M124.73499519865499 26.95372125835595 C100.92147450895605 26.0784271236598, 74.014097961408 27.71933158003683, -0.8648160239681602 27.245605770065165 M1.7817044835537672 27.4370243610206 C0.09601582997813285 20.012077444290174, 1.1902541708327776 11.570927600924005, 1.1679961662739515 0.34294220991432667 M-0.40549619402736425 27.07311684222398 C0.17289636724302745 21.808867675617048, 0.35236401551077345 15.316925904945178, 0.34039576444774866 -0.7560543427243829" stroke="#000000" stroke-width="1" fill="none"></path></g><g stroke-opacity="0.9" fill-opacity="0.9" transform="translate(234.30882352941194 58.718362019917095) rotate(0 59.84558823529403 13.889949368561943)"><path d="M0 0 C0 0, 0 0, 0 0 M0 0 C0 0, 0 0, 0 0 M-0.4918618447752544 6.117029140939109 C1.280962687176168 4.702745661150056, 3.874443749448181 2.857704501000494, 4.2963175709866945 0.48482353797529276 M-0.015565264937455414 6.229234491338127 C0.8944720262057189 5.286041977930243, 2.318343387843099 3.821800752239322, 4.6135843809270325 0.07100616803739607 M1.6958781250845303 13.113154548823417 C4.0780478765156225 8.69474998023518, 5.327292932033025 4.252004747225552, 10.201192034733428 0.639319514770782 M-0.08138635073791878 11.579642123400747 C4.532194608024067 8.347610222812653, 7.661548803194744 2.7622941157864913, 11.126107276928556 -0.7770244841382145 M-2.0414020894607763 19.64005651967662 C7.224927418151994 12.784505594406095, 9.93798627616061 5.314503911541102, 14.697935886218627 -0.8988710039365122 M0.3770939530292292 18.86252355473178 C4.654545823300513 11.69877734504128, 9.991163528292219 4.9818805774845565, 16.52043221099623 0.8212223357451132 M-1.477600894663551 24.687570882677196 C6.682228615716491 19.195086416783365, 12.064140633966982 13.102388732387007, 21.378434410596157 0.20465568212564023 M0.09528452923514585 23.439867896675228 C6.993081550611544 15.973847448122628, 15.391864014887236 6.718653376959164, 21.288822314048076 0.5391432097345117 M0.27210552053042925 29.18588103654875 C7.374965741570853 23.895901038953646, 13.821826191772553 16.190958671543704, 27.87998572238943 0.7273816945043148 M0.38185713247844255 29.005941379099028 C8.151813788699656 21.130173839048908, 14.053240742433614 14.922544154886996, 25.824218573656292 0.7913451971498073 M7.700711955064209 30.206338874954653 C14.884451356856392 17.264598278027155, 23.782389985877195 8.546415425751285, 32.63384850457946 1.1969972477539663 M6.004220624202164 28.873306833166552 C14.474750475547271 20.16928488007278, 20.321718340462525 12.251177910020504, 31.48854373530189 0.19047945004545497 M10.178886802013732 30.32373041467708 C18.280497605366172 21.686330666702894, 25.383651501631725 10.361708842477341, 35.50954532418524 2.0975308773201427 M11.013707459982253 27.951711213159975 C16.921747216986994 22.21166347587639, 22.195131484031954 15.943908419986876, 36.48823442850386 0.3992854413670024 M15.044329715369507 30.257955450493252 C26.81569531254152 17.71235939787909, 35.584582157965464 8.351117422204354, 41.063334864187766 -0.16832720224270759 M16.83493135630922 28.38976525135652 C23.235093613081872 21.6851810869229, 30.266152141542907 13.409967671205012, 42.1227133987432 -0.9070856768311018 M23.69724034912204 29.666413777180402 C30.19383780852339 17.752016795681243, 41.58975385280072 9.127929758127756, 47.289739691606044 -1.2415484554890348 M23.36125602967357 29.367329680033414 C28.146760727667157 21.818516587683533, 35.049765354759884 15.13984078984144, 46.53591727553892 0.9966055683966921 M27.63214127029031 27.40813393018408 C35.91854840520732 17.612753048694998, 46.171413193145355 7.7676691413832835, 52.87001848942107 -0.8444426678643815 M27.986618109594282 28.35964397213621 C33.556341958591695 20.701989944060564, 41.46922262007352 12.30661415643154, 52.964768804372014 -1.1519896708951585 M35.030291161855345 30.260806124058732 C40.28269281516515 21.36955559933118, 46.67324565650771 11.066897674795381, 57.92369382465185 1.2570186960767948 M33.19794034155238 28.85435927971936 C40.10053171173859 18.795938068506306, 48.39401752711686 9.814275429869422, 57.49070461476148 0.43486807823888896 M39.51121259083612 28.958458894249905 C46.06534793742415 18.623577957113508, 54.005257710243704 10.301398447497306, 63.257024380279375 1.2155258508889446 M38.326659355066845 29.389215075728405 C47.97293097365557 17.563707211355364, 56.79706832233233 8.790756070938308, 63.288147452188326 -0.4426700321467152 M43.38116424021365 30.153782455312054 C51.29695935474551 16.90813760150933, 59.175014674886064 7.810845782231926, 67.11453272332265 -0.8598926679823862 M43.797197895618694 28.5143625122178 C51.813437353257584 19.669116480076674, 59.021926501414306 11.252974780455364, 68.37603394617155 1.0656354708935751 M50.38466867700692 28.455805342690734 C55.42328751958417 23.08536474571627, 59.45293476853709 15.988008949843632, 72.42747753676268 -0.9415466459827257 M48.87849259272691 29.830041062133102 C55.35796998622178 22.22912295027872, 60.31711126482713 16.83819165772899, 73.86628684219214 -0.17756426058576835 M52.952984584196955 30.392217770940384 C64.7716885026772 18.761557811521122, 73.2024936202901 9.922145577447274, 79.56538138761846 0.9545924523334435 M53.93246619187251 28.948901877528748 C61.04465186999392 20.66745301853488, 68.68888858708696 11.276172904275754, 79.71534276976911 -0.25952975363922803 M60.955634528802726 30.447048275506557 C66.2616642409568 21.586702631272647, 70.82131222577381 16.69621180760396, 85.58450295887098 0.7312148415205968 M60.16555532257447 28.53368443135029 C68.21407308569609 19.033925212489162, 77.47463503655854 7.78299456560951, 84.97262447438345 -1.2551098562123286 M64.94887719380526 27.022987070943707 C69.69091441743781 21.6533935367464, 78.05163475338492 15.991106248255962, 88.97936481753925 -1.752650942975734 M65.87718273031382 29.259539875652187 C71.17794567762176 20.697542271782766, 79.03535982622806 12.683141863038465, 89.53206858555416 -0.1890650953595383 M68.92723514622354 30.47906269269738 C77.07205170773186 21.667352620539408, 82.2429589239651 12.604308377119438, 96.9312256466043 1.2806853133989193 M70.21128504460954 28.85170768337998 C80.15005612325069 18.13613444363322, 90.51413796419533 6.743560784627476, 96.38059784876228 -0.0737443190263889 M77.57196706903856 27.092965355322036 C85.19444080380573 19.38865533124151, 89.89974496671016 9.65183281218614, 102.05960801308507 1.5652521460900957 M75.40478501094263 29.047839006588134 C81.91341688617028 21.607379409790706, 89.26463611036777 13.780606098096653, 101.34964889352673 -0.8714080542673415 M81.00259552926934 27.09872359426321 C87.56484616112918 20.49014299758606, 91.78995123362074 14.985350973478345, 105.6707705999626 -1.246260230347751 M80.5391192588321 28.635673318222178 C90.1697188592633 18.820686445794617, 98.5889382423951 8.720048528358046, 105.36364446532858 -0.5319051490279421 M86.02537920989687 28.64902762407536 C91.64759781122078 21.543912147942297, 97.94499958140138 12.951315317147928, 110.50923597425587 0.4551767195309182 M85.78871053375894 28.415361770336574 C94.12033273808498 19.183569908663177, 100.99569461853461 11.3799521545143, 112.1915211936868 0.04500386963734826 M92.88484067794015 29.85290598020404 C101.37203371746718 19.301442874298605, 110.17249397384361 9.168702144314079, 115.3502037899554 -1.0480372094966484 M92.17249546524216 28.237143835876875 C98.61156092377571 20.003211599193158, 105.27910197629323 13.087053023192915, 116.03914279509189 0.7266797340057778 M98.51223861638019 28.73804887720369 C103.27924822633699 23.191721217166137, 106.824907972253 17.815359036248765, 122.37531467206118 0.21870735756952087 M97.80239679876277 27.96367066689752 C103.52681905979831 21.121308435670265, 110.77025534812121 12.729138992457997, 121.92506395704386 0.1664427565773181 M101.27709559223595 27.288484850519858 C104.75808426694532 23.092033427658908, 109.66063790329468 19.86795969488712, 122.58023701364914 7.205196437511617 M101.63485116383973 28.50768173634406 C109.63263884429374 21.88304220142944, 115.59247634876901 12.952407570216408, 120.08811713511864 8.08653989163416 M108.23567028848848 27.406904114707018 C111.27466963425164 21.898276171721697, 117.05531303398857 16.505069917190564, 121.52008367164336 11.723362763547478 M107.71928130595407 28.794328196270968 C109.5937033340266 24.976332950505306, 112.3275366053476 21.552349886870463, 120.7328292487403 14.165114809894142 M112.13531847463803 30.263852178586955 C116.37491258166402 27.01209101121086, 118.36063773853641 23.592634669206166, 121.83980692466525 18.28454968998169 M112.82895855324224 28.86408648295545 C116.26194740479859 25.697024249716996, 118.9187149538995 22.177143150926383, 121.65781323900251 18.667349063548794 M118.07811207526659 28.413004578116713 C118.70924604665726 28.244714482762358, 119.521041961194 27.578244530259017, 121.05767541596006 25.3946312688223 M118.0609125410888 28.574290282491027 C119.01906381641018 27.689483502742352, 119.77563040489716 27.146150495285546, 120.9559927351148 25.469944187246906" stroke="#82c91e" stroke-width="0.5" fill="none"></path><path d="M-1.8946027159690857 1.6322974562644958 C34.599201455054875 -1.3922291842146823, 67.80888697373508 0.6970671567277005, 119.9863568509325 0.6521396040916443 M-0.58576300740242 0.6338696777820587 C32.02433247368999 -1.9492146859931585, 64.35607712470427 -1.6859557519721624, 118.81702521092738 -0.155455082654953 M120.59278690464343 1.6372622847557068 C119.7999968528836 10.267741931879577, 121.47428083420684 18.040738668847197, 119.76993572361316 29.56780150955049 M118.93727209813441 0.28203728795051575 C119.85280113447348 8.75396055009779, 119.24852352369467 15.80159792357319, 119.00041582829799 28.072934750965512 M117.7723618710741 28.68036559646455 C92.49598612903662 28.613460148260096, 67.64252298465539 27.04711684076498, -1.744534432888031 29.3582887989792 M119.98907091863002 27.44280016844598 C92.87508364131335 29.412718465602673, 66.09797990891856 28.00282066134242, 0.6920623481273651 28.32150519316522 M-0.2367371916770935 28.23891929214326 C1.270272922662288 20.21734619568849, 0.008399677423030105 12.318758939077465, -0.49306005239486694 -0.5017891526222229 M0.11943814158439636 27.178431157520688 C0.299192268216436 21.698042264011306, -0.7891551667811225 16.334383106830046, -0.9571276009082794 0.4935765564441681" stroke="#000000" stroke-width="1" fill="none"></path></g><g transform="translate(453.07425268177417 96.5096675226466) rotate(0 62.36262918686339 11.182264543851367)"><text x="0" y="15.364529087702731" font-family="Virgil, Segoe UI Emoji" font-size="17.203483913617493px" fill="#000000" text-anchor="start" style="white-space: pre;" direction="ltr">restknot-agent</text></g></svg>