<svg version="1.1" xmlns="http://www.w3.org/2000/svg" viewBox="0 0 420.18687074434024 506.3488331490424" width="1260.5606122330207" height="1519.0464994471272">
  <!-- svg-source:excalidraw -->
  
  <defs>
    <style>
      @font-face {
        font-family: "Virgil";
        src: url("https://excalidraw.com/Virgil.woff2");
      }
      @font-face {
        font-family: "Cascadia";
        src: url("https://excalidraw.com/Cascadia.woff2");
      }
    </style>
  </defs>
  <rect x="0" y="0" width="420.18687074434024" height="506.3488331490424" fill="#ffffff"></rect><g><g transform="translate(56.08123441481655 398.9720130336543) rotate(350.5482302579449 76.22177564178736 -56.42295301798187)"><path d="M0.04654410593211655 0.33053744919598094 C25.6074425892692 -18.523759299080243, 127.0967528440859 -94.36839269330437, 152.3970071776427 -113.1764434851597" stroke="#000000" stroke-width="1.5" fill="none" stroke-dasharray="3 6"></path></g><g transform="translate(56.08123441481655 398.9720130336543) rotate(350.5482302579449 76.22177564178736 -56.42295301798187)"><path d="M17.07606997894148 -24.449778750616424 C11.94518658210212 -19.860616688213696, 9.429194281798296 -14.76621704708107, -1.8649775691330432 1.2677603788673877" stroke="#000000" stroke-width="1.5" fill="none" stroke-dasharray="3 4"></path></g><g transform="translate(56.08123441481655 398.9720130336543) rotate(350.5482302579449 76.22177564178736 -56.42295301798187)"><path d="M29.334845327833474 -7.992487681572362 C21.522543998869764 -7.007677093251809, 16.31818563591316 -5.522383707355004, -1.8649775691330432 1.2677603788673877" stroke="#000000" stroke-width="1.5" fill="none" stroke-dasharray="3 4"></path></g><g transform="translate(56.08123441481655 398.9720130336543) rotate(350.5482302579449 76.22177564178736 -56.42295301798187)"><path d="M136.47894285220798 -87.8124064013237 C138.59468120445803 -94.23274833432325, 143.30414012703628 -100.13507338752287, 150.48548550257755 -112.23922055548829" stroke="#000000" stroke-width="1.5" fill="none" stroke-dasharray="3 4"></path></g><g transform="translate(56.08123441481655 398.9720130336543) rotate(350.5482302579449 76.22177564178736 -56.42295301798187)"><path d="M124.21382102739096 -104.26496817778383 C129.01237109921226 -107.08199823857204, 136.41158787522244 -109.37625417681463, 150.48548550257755 -112.23922055548829" stroke="#000000" stroke-width="1.5" fill="none" stroke-dasharray="3 4"></path></g></g><g><g transform="translate(197.544880149081 415.6375596792372) rotate(350.5482302579449 11.391845906850278 -69.4534289483189)"><path d="M0.10231368653476247 -0.41603728048503397 C3.771927816777282 -23.421422516189, 19.03746551975038 -115.64722699116656, 22.68137812716575 -138.49082061615275" stroke="#000000" stroke-width="1.5" fill="none" stroke-dasharray="3 6"></path></g><g transform="translate(197.544880149081 415.6375596792372) rotate(350.5482302579449 11.391845906850278 -69.4534289483189)"><path d="M-6.161212626645568 -28.787006650702537 C-4.802228924389423 -19.510513598892878, -1.134415463007529 -9.671347104609122, 1.841298120468855 -1.8984268479049207" stroke="#000000" stroke-width="1.5" fill="none" stroke-dasharray="3 4"></path></g><g transform="translate(197.544880149081 415.6375596792372) rotate(350.5482302579449 11.391845906850278 -69.4534289483189)"><path d="M14.090274280348776 -25.47079187453437 C8.266418110350486 -17.35530902653879, 4.738720741224226 -8.694419438429659, 1.841298120468855 -1.8984268479049207" stroke="#000000" stroke-width="1.5" fill="none" stroke-dasharray="3 4"></path></g><g transform="translate(197.544880149081 415.6375596792372) rotate(350.5482302579449 11.391845906850278 -69.4534289483189)"><path d="M27.58307775739948 -107.90980033323294 C25.200220077531313 -119.56988815290305, 24.900941909055682 -130.6768221586596, 24.420362561099843 -139.97321018357263" stroke="#000000" stroke-width="1.5" fill="none" stroke-dasharray="3 4"></path></g><g transform="translate(197.544880149081 415.6375596792372) rotate(350.5482302579449 11.391845906850278 -69.4534289483189)"><path d="M7.328789495694227 -111.2088622298315 C12.129832570809837 -121.71403678570199, 19.027060575962352 -131.648788436824, 24.420362561099843 -139.97321018357263" stroke="#000000" stroke-width="1.5" fill="none" stroke-dasharray="3 4"></path></g></g><g><g transform="translate(196.1832214273045 176.31977419297516) rotate(350.5482302579449 9.639047445254732 -41.4918546942994)"><path d="M0.8777625370770694 0.8754272472113371 C4.055990196019521 -12.68362902797448, 16.66798927411492 -68.02165463006435, 19.398645750806395 -81.8892493421398 M-0.12055086029693496 0.2894226066581904 C2.9538504146971905 -13.603013238177322, 15.673191693667874 -70.29566038951587, 18.948641609866833 -83.85913663581013" stroke="#000000" stroke-width="1" fill="none"></path></g><g transform="translate(196.1832214273045 176.31977419297516) rotate(350.5482302579449 9.639047445254732 -41.4918546942994)"><path d="M-1.4315101783242854 -27.305877844360865 C-1.3046042337307646 -21.149619799356877, -0.8055256816241165 -9.874948760956414, 0.2611947484314443 2.5317015342414377 M-3.1333832004559072 -28.418529159878588 C-2.4990248731981914 -22.707140444142592, -1.333604535750066 -17.33628396594296, 0.3655244061723353 0.6286103447899223" stroke="#000000" stroke-width="1" fill="none"></path></g><g transform="translate(196.1832214273045 176.31977419297516) rotate(350.5482302579449 9.639047445254732 -41.4918546942994)"><path d="M18.5810034502146 -22.765029833979447 C12.175253542970736 -17.94924169527051, 6.121434970840667 -8.161425852630721, 0.2611947484314443 2.5317015342414377 M16.879130428082977 -23.87768114949717 C13.503752225086775 -19.006256065712424, 10.650550527584311 -14.547226667838066, 0.3655244061723353 0.6286103447899223" stroke="#000000" stroke-width="1" fill="none"></path></g></g><g><g transform="translate(11.795569669421184 391.51760700783956) rotate(350.5482302579449 78.23250274696113 -142.41703516025518)"><path d="M0.18457699227041166 -0.0020874813758393926 C58.39877751997194 -104.91742448558591, 115.88437421054375 -211.26471802948896, 155.52584921528302 -285.2151862940919 M-0.30027414751315706 0.3811159735815255 C31.161804114722226 -58.9892898529657, 62.53515692995277 -115.69179853751942, 156.7652796414354 -284.20701058873425" stroke="#000000" stroke-width="1" fill="none"></path></g><g transform="translate(11.795569669421184 391.51760700783956) rotate(350.5482302579449 78.23250274696113 -142.41703516025518)"><path d="M4.976494685290497 -29.661813185132257 C1.2699847263416189 -17.70129220145881, -0.4396820861143751 -9.195444785424645, -0.8202767909049375 -1.2990551386587879 M4.276458499496918 -29.10853762696605 C3.5328749644363446 -24.55396533082562, 1.9602499717135924 -16.75703212622431, 0.9692335905030982 0.15656580863514932" stroke="#000000" stroke-width="1" fill="none"></path></g><g transform="translate(11.795569669421184 391.51760700783956) rotate(350.5482302579449 78.23250274696113 -142.41703516025518)"><path d="M22.98071384609495 -19.81457525789798 C12.741260196485548 -11.324115180103117, 4.403028941201114 -6.443698592340443, -0.8202767909049375 -1.2990551386587879 M22.28067766030137 -19.261299699731776 C17.847457160690276 -16.64443928532253, 12.607178914179567 -10.853494449451523, 0.9692335905030982 0.15656580863514932" stroke="#000000" stroke-width="1" fill="none"></path></g></g><g><g transform="translate(350.01222263343163 412.2474286146786) rotate(350.5482302579449 -21.624432785641375 -161.03803662762581)"><path d="M0.8661629149505571 0.16867894201156272 C-9.530527478883792 -66.59403411897706, -19.373060874677282 -132.68141062597311, -43.56278418502324 -322.1892013723803 M-0.6634887082687638 -0.35108953104910634 C-10.752592512569116 -90.20050597748128, -22.68622359015561 -181.64896378212478, -44.11502848623327 -322.24475219726315" stroke="#000000" stroke-width="1" fill="none"></path></g><g transform="translate(350.01222263343163 412.2474286146786) rotate(350.5482302579449 -21.624432785641375 -161.03803662762581)"><path d="M-12.046841865192025 -26.031070274514168 C-11.071847697471686 -21.500230751148578, -9.277692084222458 -16.177930015487185, 2.026458369735785 0.7905768797415175 M-14.262017699676424 -26.783776670907645 C-10.12186638937563 -17.950802824245027, -5.309284098478223 -11.288942623684575, 1.2267218727433757 0.710130559155611" stroke="#000000" stroke-width="1" fill="none"></path></g><g transform="translate(350.01222263343163 412.2474286146786) rotate(350.5482302579449 -21.624432785641375 -161.03803662762581)"><path d="M8.265577383158213 -28.950937851150147 C5.083394906072983 -23.8872661257195, 2.7205131921335237 -17.96740001105926, 2.026458369735785 0.7905768797415175 M6.050401548673815 -29.703644247543625 C4.43920228826384 -19.997782608292518, 3.528402792174869 -12.513198304600543, 1.2267218727433757 0.710130559155611" stroke="#000000" stroke-width="1" fill="none"></path></g></g><g><g transform="translate(335.0824183157671 419.9821643377271) rotate(350.5482302579449 -51.39846850948379 -74.75036745059718)"><path d="M0.8337767768651247 -0.7612039435654878 C-16.38440830290927 -25.398838453700904, -86.3880654439635 -124.03528916294756, -103.63071379583262 -148.7395309576289" stroke="#000000" stroke-width="1.5" fill="none" stroke-dasharray="3 6"></path></g><g transform="translate(335.0824183157671 419.9821643377271) rotate(350.5482302579449 -51.39846850948379 -74.75036745059718)"><path d="M-25.080949414382616 -17.99187537244129 C-16.125061653729617 -11.809109037054423, -9.803639723587363 -8.653983444050628, -0.28190439268946643 0.1930604867637158" stroke="#000000" stroke-width="1.5" fill="none" stroke-dasharray="3 4"></path></g><g transform="translate(335.0824183157671 419.9821643377271) rotate(350.5482302579449 -51.39846850948379 -74.75036745059718)"><path d="M-8.320154495280583 -29.83230425258085 C-4.033468630105894 -20.298279673837612, -2.291091238639132 -13.908352183855332, -0.28190439268946643 0.1930604867637158" stroke="#000000" stroke-width="1.5" fill="none" stroke-dasharray="3 4"></path></g><g transform="translate(335.0824183157671 419.9821643377271) rotate(350.5482302579449 -51.39846850948379 -74.75036745059718)"><path d="M-80.27509616654558 -131.72941142550926 C-84.51913080986252 -134.55888247819527, -91.65835319158151 -140.75833151047874, -104.74639496538721 -147.78526652729968" stroke="#000000" stroke-width="1.5" fill="none" stroke-dasharray="3 4"></path></g><g transform="translate(335.0824183157671 419.9821643377271) rotate(350.5482302579449 -51.39846850948379 -74.75036745059718)"><path d="M-97.05092814929091 -119.91029709013966 C-96.6218150722398 -126.0853077380634, -99.17788479365268 -135.5137355395862, -104.74639496538721 -147.78526652729968" stroke="#000000" stroke-width="1.5" fill="none" stroke-dasharray="3 4"></path></g></g><g stroke-opacity="0.9" fill-opacity="0.9" transform="translate(140.60548216260122 196) rotate(0 71.09343537217012 33.57807134958969)"><path d="M0 0 C0 0, 0 0, 0 0 M0 0 C0 0, 0 0, 0 0 M-0.7597554929228374 5.822739408959739 C1.3476962627850897 5.192362168792391, 2.7341342217734774 3.8931294010270534, 5.27917312938208 0.7054828416404538 M-0.5291018850775311 6.103043709744804 C0.9055386712131458 4.554189097062897, 2.6777509919377636 3.028924369214344, 4.680349427046722 0.48654741159055764 M-0.8460035315621985 11.543706554591237 C2.5853248749368305 6.938596083387574, 7.805199247773757 2.7763188021608824, 9.442742384922635 0.7162734980776668 M0.008088565720211216 12.22333447378832 C3.8460607760237857 8.77546015318833, 6.999315051857123 4.715039394385009, 10.964124979031217 -0.6245262865826725 M-0.75188480602114 17.9288454343571 C4.670671659085133 12.579114465341133, 8.778915946166004 8.082103473527916, 17.143378920390685 -0.9181684845197031 M-0.011800545319006872 18.53619378702777 C6.754014153781536 11.009080243418579, 11.100703496430766 3.8992121220524396, 16.421281136109908 0.6996864980948141 M1.108741797711632 26.03567452514088 C7.8167632231896516 14.999648730871742, 16.45574847688437 5.903529269794873, 21.74655734589126 1.8668653121381524 M-0.5872558278777387 24.53428970062649 C8.420728993494365 14.581697869328918, 16.93913080458845 5.326271045752435, 21.931730946803356 0.38175493983323605 M0.4035803685476438 30.368465637553683 C7.521433407574372 22.93239463302896, 16.081329275761497 13.447189753482895, 27.305432113495083 -1.5498732445749699 M-0.03333923122385585 29.82246506749486 C9.839336049194713 19.57798009189191, 19.52897686184973 8.462281770103345, 25.576435449209423 0.052145022341305136 M-2.0492006895225963 35.35414981637274 C11.983931964657437 22.39199038005411, 20.916391396174728 11.425853351716182, 33.73173065618316 1.0663373098953848 M0.3655785861331502 37.16456499491011 C9.206133340813663 24.937343908645317, 21.17958981582608 13.781077442725088, 32.00833301380912 -1.0612577273265238 M-0.49393297250857415 43.482158106375266 C7.557245837595056 32.2714538832656, 16.98622583523619 21.7353674423938, 37.250444290974485 1.0315567609947642 M-0.6436230343162066 41.79318459014945 C9.837649709782607 31.457507164104825, 18.576913549513183 22.319877960563534, 36.28737589512144 0.7570205387752971 M-0.20562516339131065 47.56855029300682 C17.361516247740717 31.605544101811677, 32.95896018424719 12.346016185198224, 41.64830045085006 0.7055065732776171 M0.749008161947053 48.67379770115845 C12.112714713087975 34.739517803332916, 26.469940233597637 19.715426079976034, 42.12900246362739 0.6723653477012164 M1.102450170810208 55.47304784082185 C13.876630713381516 39.11777754617269, 29.97190577271685 21.053842168870382, 47.025290452828884 1.529246532189493 M1.0089105454039426 54.22178985499154 C13.239468236463543 39.849663721741635, 28.5833158552525 23.15688169108705, 47.65566497384596 0.3377505473967837 M-1.9697156528850286 62.136710535265905 C12.584615893758887 48.1697112033109, 22.19851849973456 34.64496791456364, 53.04314172989196 -0.012501897715150534 M1.0085363705734522 61.34013489959429 C10.471642954928145 49.55977020827756, 20.939719134820518 36.496701105284984, 53.64530179625815 -1.1439383350835435 M0.08354576951348491 66.29896942111621 C18.196481102914376 45.50222681735363, 38.87951441117705 22.267933906782766, 59.67684559905828 -0.3536789309907711 M-0.38023502105391316 67.13642794224391 C11.42895319217692 53.69561500491858, 25.140230252842763 39.59251116009467, 57.282865185382974 -0.18222745179422262 M2.329638957958281 71.74291722225891 C24.694880892969866 46.988351637446115, 43.83625087124394 21.81012424467759, 62.463129493308855 -0.8845631030829182 M3.369961827974379 69.16817576932655 C19.92862908306657 49.765001541062176, 38.18661145892203 28.554669222611004, 64.40879351170142 0.2632687243191967 M8.837114258458865 68.84240414391675 C32.88905711590455 42.614731409953876, 53.359670769745875 15.47290968484473, 69.25198472966268 0.08590537145395416 M8.881388201167834 69.98989264856496 C22.32663016930927 53.320253351054575, 35.979485155813606 38.77782221129969, 69.27053902973249 -0.27947595879773957 M11.98778590106268 71.05261871220364 C27.120872760943186 51.71724562278506, 39.94876387741036 37.33801124734247, 75.45513874110075 -0.7075520428256823 M13.183319266073894 70.64368116857304 C36.40081575925554 43.65956433286802, 59.49614780867738 18.536729899028273, 74.77104010995718 -0.8325759740905596 M17.693381318750763 68.608282391674 C41.099993602293324 44.13676640681412, 59.7266291748239 23.682559492609606, 80.79758284464208 0.5511244395236901 M19.9286933931736 69.35742685640521 C37.203603377494424 47.7852150392015, 56.360289949784644 25.600174044483147, 80.2202490068945 0.06944252638625414 M24.17889182854208 70.82545496777337 C35.588270021482614 54.29344431203699, 46.95321239409478 41.13730677026885, 84.56604447326765 -1.2783437169434535 M23.177462836985914 70.84660356000703 C48.16186931374811 41.42124091865483, 70.56693239105712 13.394975073725895, 85.58360409102545 -0.658034930312823 M29.231044863417655 70.06385790505622 C53.54847142688451 42.34507236025043, 77.5456509970632 16.771819729900464, 90.36051494399646 -0.25489672678158115 M29.645065967991858 69.27659680643295 C55.05004286155909 41.425222548669964, 78.06267665815972 14.199906807035198, 89.233557616869 0.38796550375774075 M34.949831740396476 69.7645509889681 C48.59917826353896 53.15435183422716, 64.94603302257124 34.18726793330513, 97.34272168980957 0.6061868745637753 M34.453955040710426 69.30038044362851 C50.26200880690092 50.95147061763707, 65.24083566328144 33.13514005817593, 96.19804795490623 0.0603293556524136 M38.99697989245956 68.41225568406345 C60.459444779239774 49.40311892347391, 76.08320944781315 25.58563456200674, 100.98765602772588 1.3709668725381547 M39.38206842562263 69.02083999864819 C61.369279177714205 43.68029025265875, 81.93675973188502 19.783460791480984, 99.91202735965604 -0.30046952668326554 M43.34748063662588 71.57303177578783 C58.643340118805995 56.06185248361964, 70.8592759524392 37.31983066564621, 104.33204539072645 1.1491647316960112 M44.61435837724745 69.0284493194375 C59.85147491869366 54.50988418556916, 72.81447109583459 39.55535476413919, 106.46593420159948 0.0959543838051573 M49.538061405876455 67.85660072869568 C74.56587805603021 42.549057815164815, 98.27463174573947 14.798653598464277, 110.72588109583027 -1.8681597625171165 M50.99126326606589 69.36359393305092 C63.814419213386664 55.75578163060046, 76.03604455319169 40.90763318950519, 110.35722073525555 0.5275749350632211 M55.41871351723028 68.95402232823257 C78.37969003639355 43.29793695160456, 100.99925908688792 16.591177466605018, 114.42483154702785 2.30842443467602 M55.760235346596964 70.554247687434 C72.78930232197882 51.577403517885614, 89.86047852242679 31.428408560185353, 116.08276630211475 0.47698723436817403 M62.40116440366836 69.60001803895292 C82.75131519390976 47.493261133255004, 100.00923778257112 23.746051587332808, 120.62206514830967 -0.26915163194738057 M60.824212989321666 68.57829610964117 C83.15050729976558 45.15005021874751, 104.65107468156741 20.120562766439072, 121.17070024366757 0.8955363889972148 M68.21040538220967 71.6106476463023 C81.27537845697965 51.189479070072764, 99.54113601605204 29.79921731852324, 125.48007321669473 0.7776718230582489 M66.49314844875897 69.90121304761799 C89.93161929798673 43.96017843505117, 113.36588432491291 16.823383347113207, 127.212224814433 -0.5325537531040894 M74.13316388583526 67.84563261483515 C89.01864470903193 52.606485814460434, 105.45653582974361 31.17841149423336, 130.72308318516406 0.8711162642473624 M71.73248009538993 68.43838402841891 C90.38027092168977 47.80297172013633, 109.00626076309192 27.430199627818652, 133.45402838489207 0.3268523351187156 M77.76943123156408 70.24603272999703 C95.224291181897 48.99895111830033, 111.98204858529529 29.129166643685878, 136.38858637073665 0.5147414770654706 M77.9146601837335 70.59278289998947 C92.16040527159262 53.10170912924904, 106.85486543163769 37.264423233312385, 136.54981320956378 1.0954785016111401 M83.62487582338665 70.55127903656516 C97.78557915061297 51.334552042801015, 114.14724359168625 35.3363717391652, 143.41975117740296 2.010478506289857 M82.41156805528018 70.97200476960693 C103.2712851284501 47.72166030930539, 122.358934008642 22.83677131531074, 142.1527086299386 0.5996698536504681 M87.14266606529347 68.56330257931677 C100.8216333402819 54.345955838990406, 118.08561688717397 34.736125614616, 144.4487737772295 7.760435038479898 M87.6263330515205 69.65239474454847 C103.609780217826 50.64130468236666, 120.9174418951506 30.069581972311283, 142.698621755583 6.172198140296075 M94.73529327430354 68.41066314369739 C108.73727581891943 50.87637100742566, 124.43339664573517 32.72687201348481, 143.57411771915923 14.41799421729894 M92.02515742697345 69.44317667275966 C106.91041274980628 52.819322857644664, 121.13840957611207 36.927103960328694, 142.18347707293998 12.803360567711309 M98.37698488339788 71.2655821942615 C111.60636777235601 57.262437552280545, 122.73316274814654 40.581541757261576, 142.55145140718275 20.472587087524246 M97.72972955212003 69.60348608129496 C114.86713806398254 51.326080329388546, 131.59120217809405 32.535650827816774, 143.35415392350012 19.72575224317343 M104.35523220959544 71.3816195164546 C110.52673476219977 60.935030363307476, 120.07140353623177 51.663278788263455, 142.07394324529054 24.476144693933023 M104.26875168147922 70.88004681809988 C115.80990367544526 55.167877146481786, 127.55923596049578 40.123200227762624, 141.9887816487539 25.64071827395965 M108.51926268587727 68.05599657483123 C117.26937038191411 58.251569368578224, 124.59542107321865 50.41731036155856, 141.80408455050156 29.30722682197083 M108.82641218553204 70.46949441022895 C116.03030969510623 61.74566224723931, 122.91405944842609 54.336170174263884, 141.9285625032203 31.982482508015522 M113.03156762926236 69.66727315483686 C120.25434789192066 60.92945815357855, 129.3528485916998 53.86349967120382, 142.9661027557968 34.88805493619211 M113.9939133187975 69.05605270562765 C123.70684768978346 57.92921010362339, 135.19151991506644 46.49328898328798, 142.6701848573803 36.6351804723955 M121.61637447273166 69.63767072102596 C126.68604916258866 58.46064314835267, 135.9473293823039 49.254459310695744, 141.0974891781953 42.22218882204241 M120.01794345175655 69.77385723135043 C126.72130070233275 60.800525304958995, 134.16810975821568 53.86804423674353, 143.1173509657529 42.97053601504511 M124.31117453330424 70.47074905884409 C130.03298061329428 66.11241664787188, 134.19583988295392 58.08247107788297, 140.64141222168757 50.11155952429897 M124.55220483892825 69.24463183534289 C129.31907915723414 62.70427638600758, 136.50968934029453 56.33184510993382, 143.17319016982867 49.56489424324161 M128.7958418572013 67.80639735256747 C135.18278759860812 64.07339340504853, 137.16812647804645 59.75167501737127, 142.96927572873017 55.41094828350448 M130.8769979336922 70.49136564379053 C134.40182053136465 65.28299502846745, 138.94832062067582 61.6057671173683, 142.77314017352245 55.45156285120153 M136.09932466942948 69.96458085682086 C138.14972290073317 67.97038472569938, 138.47754478540162 64.38054041228388, 142.49168209150497 61.46862407285059 M135.57916812051218 70.08780807014398 C138.49413440395935 66.32354821034305, 141.45791318505655 63.27415879418104, 142.7406194852299 61.52555656838501" stroke="#7950f2" stroke-width="0.5" fill="none"></path><path d="M-1.1003437638282776 1.306176245212555 C42.47486322270655 0.9895428424706796, 88.38399354908513 1.5517052417626718, 142.6293793822454 0.3344603180885315 M0.45757248997688293 -0.5183363258838654 C47.26163538025956 0.8890986390877972, 95.13945925687037 1.0952763505746135, 141.98179694067701 0.8824233710765839 M141.70971690665945 -0.692898690700531 C142.89619894165762 17.62660929222555, 142.69106168885 31.95692049780788, 140.3462582732366 66.95155005401107 M142.21933813940748 -0.7663727104663849 C143.20982885418078 19.98263970733187, 142.49139833507678 41.133965357552, 141.23494501959547 66.74948354309531 M141.53841220390066 65.413937138972 C99.30985121079686 67.6369562473535, 53.645682307536816 69.25905517008299, 1.5407561659812927 68.99703078216048 M142.03767176520094 67.17222066467734 C88.9047454865819 66.47353255763103, 35.761595819290974 66.6038435698991, 0.5807938873767853 66.65788026398154 M-0.014648497104644775 68.05853896087142 C-1.0335096444330465 45.464235296665194, -2.1130365456781637 20.96276610511523, 0.6237239241600037 -0.22245687246322632 M-0.24660632014274597 67.22246308868857 C-0.10973554044866585 40.336329836724445, 0.8580522021660802 14.280244192182188, 0.5151553452014923 -0.9363317787647247" stroke="#000000" stroke-width="1" fill="none"></path></g><g stroke-opacity="0.9" fill-opacity="0.9" transform="translate(108.60548216260122 10) rotate(0 98.59343537217012 33.578071349589685)"><path d="M0 0 C0 0, 0 0, 0 0 M0 0 C0 0, 0 0, 0 0 M-0.3349299087794373 6.97851159503042 C1.1691834294666976 5.784184903881356, 2.7186185346491696 3.7565005152231032, 4.668529348405547 1.1195313233730606 M-0.6544243935169527 6.260238830422155 C1.4730282303787752 4.337346554551173, 3.3449408580035884 2.356243422775921, 4.859073132234163 0.4585205145028644 M0.10398614342321033 12.495307775258599 C4.351971523733982 8.4399167790646, 6.769978674149976 4.2626961055142445, 10.05213848347677 -0.7246531953022122 M-0.2639899714757098 11.520265489488422 C3.7448432998794603 7.991657121203988, 6.898297111266442 4.52325497195514, 10.115789046090972 -0.2483452451333641 M-0.08675785833506389 20.271737188939625 C6.728634771526971 10.59784085564683, 10.93540985752557 6.446674953612961, 14.01999953901716 -1.5642867659288475 M-0.22537698043046994 18.988094521593922 C5.585549872544603 11.69773940599222, 10.918703050376967 6.061210904564346, 16.285906859211106 0.04796631605597046 M-1.097263449598172 23.956381633593796 C7.940275712362915 18.173283985502938, 11.963985887329864 10.018329783216993, 23.0960074852201 1.1745408544480327 M0.32607952618964653 24.14516588737732 C5.746158947285142 17.905033002065238, 10.216454734219125 12.512748541676716, 20.712667606117094 -1.0247633267030594 M1.7122289827605144 32.14572230703031 C5.7962905820060575 22.577295057268685, 14.539457996061444 13.832217676167804, 26.640145779263587 0.41348706688850534 M0.33972594333341277 30.051506121408394 C6.6317717504959655 22.4922960530802, 12.506837244684982 15.979906512248027, 25.71554038268736 0.7863889358949603 M1.0174928232002536 35.71670246105765 C8.511572708959262 28.104742553360232, 15.004594710149474 18.74595596386141, 31.029168709597386 1.6986136679782753 M0.5052211535069624 37.85093469619875 C10.355461809445694 23.41781549164498, 23.097285472252306 10.759273310456045, 32.445907162918544 -0.9195060663611407 M0.24234833118030963 44.51696847248428 C8.510651115304332 29.759783314027878, 21.004980013988593 20.875341638847637, 36.95114132370924 1.3780239001941403 M-0.6586743982835657 43.248794521759976 C9.592838953949164 32.37380570950529, 19.28671880764192 20.61245410496749, 36.66626536734526 0.13073425470856037 M-1.7220144458115882 49.94149858378701 C7.477998311536654 39.465642592567136, 20.529489849340063 25.123545980572136, 41.34141166004889 -1.1233141898782009 M0.3839742084964328 48.11983068627201 C15.126617657719015 32.353472183316185, 30.12813264779069 14.819433151351397, 42.154950094964136 -0.8095223961071127 M-1.2371224693256764 53.96213584155153 C16.00666130895519 40.49417572135846, 29.33706305664215 23.35484482137963, 46.8216385161041 -0.9533911097619487 M0.9349395728435965 53.56897339452367 C15.456894283158025 36.413133185204835, 31.03466123477486 19.463963983059294, 46.6139118913098 -0.1252965556282355 M-0.4781919418742149 59.47776473825465 C12.840933554632764 44.14001974209329, 27.647994000555492 31.11632217465406, 51.635763680324615 0.44166743712860423 M-0.030390259707459677 61.31276460969488 C19.943004011277928 37.923548478179974, 39.24052441212731 16.551248926534782, 53.07343898037887 0.46607635593402463 M-2.1542151039979487 67.34384415070484 C14.023875584123864 50.762906684854386, 28.819152258928536 35.5095041468898, 59.089039700198185 1.6677771932702505 M-1.1143485941506057 66.74014099179725 C17.724777447252528 46.12892724630931, 35.92522881781887 25.746748649553425, 57.799935032705974 -0.7036273232404149 M1.8355987947244046 71.93019775981949 C21.199539926433886 49.05392351210076, 36.74784106289364 29.09891305427773, 63.48400211417456 1.6577187052486906 M3.3153189429823158 69.50147431745128 C15.386097305462226 55.364971679056545, 28.41665378405008 38.9136213871745, 63.70064139728774 -0.9474461383627286 M8.5287332057711 70.98060985285261 C27.4192319924789 45.91282429605763, 49.25610523262637 21.67330731733135, 67.55949721974149 2.0213139655407204 M8.721114113716435 69.39941728211411 C21.434229311867323 53.89400845808498, 35.853887357265464 36.638966381973134, 68.23141486965879 0.15819312374700445 M11.898982339658332 68.41590616294934 C30.865955810779386 48.63936542980439, 48.72516184546426 29.0894619402239, 72.42665430534872 -0.6797502292679383 M12.864154126614821 70.22323433963402 C30.901453971922866 50.073084600493516, 47.52532264109755 31.26134547710346, 74.80144992381575 -0.9204512071223689 M18.760600484835887 68.34464848669536 C40.7072762833766 44.69105154326953, 61.42029544372532 21.23137652343253, 79.00791341848401 -0.5817456367005178 M19.177070955674136 69.7907463197998 C35.16536599184059 49.75377230308652, 51.155232258387755 30.080147405172617, 78.68105648029325 -0.2930090427909562 M24.23915268879148 71.67744006656747 C38.52295605449271 55.84772147828431, 49.13854536259579 40.53793206022664, 85.9729975975971 -2.244079210171293 M24.70361202142897 69.59388581079136 C46.37037514224644 45.23307090954522, 65.76192163773581 22.150126123749637, 84.4063821380879 -0.338925178469907 M29.707486989974885 68.40174894915138 C51.46378970240794 44.01902991253146, 72.92057178232938 21.746183231518458, 91.17794064017573 1.700883542796518 M29.50336242287597 69.10477051739757 C52.15958954986583 44.622033850966574, 74.25895779174495 19.559538760951924, 89.68718994273434 -0.32603265097931455 M36.22476218587384 67.93208462692388 C52.71715294537904 47.78312996835783, 74.39330411767406 23.360104989395552, 97.60105933466971 -1.1773580812113664 M34.55952270554975 69.15712990279832 C57.3973356842355 44.07703205495744, 81.75632548990245 17.53729087061282, 94.81158061822921 -0.10447938053033567 M38.47242006493811 71.38482139647068 C64.27740885371227 45.703239344398625, 85.47759909338036 20.852133033338966, 98.7819812285667 -0.7572633397181576 M41.183631093446955 70.25237854678245 C62.1223191490821 44.86849860978279, 84.83537839576324 20.25666134996117, 100.55377033510709 -0.7253015289430564 M46.19321317465543 69.92837500026857 C63.58369282799964 47.13321502562115, 84.49586167322369 26.303674184155796, 104.75761686031652 -0.09042668613815152 M44.92334125710219 69.94104278752988 C57.92804113067133 56.197900944496624, 68.73228254644604 42.87886610019724, 105.57881294236464 -0.13435014142864787 M50.127177053475556 69.05802598490327 C66.66983721252419 49.28460741127905, 85.29473874494187 29.488749822901568, 111.50118752740688 -1.0514011279945592 M50.96714454551208 69.12883407982945 C69.66451085387189 47.898169848884564, 86.9375230581202 27.108167060200238, 110.35037773553647 0.20913549519280394 M55.450657998886236 70.94609634285156 C69.69906341513875 52.0345633594211, 84.65891167823335 33.82834611624346, 118.20213848929706 0.6918347115211176 M56.052147754211255 69.45807563686107 C77.02287813829327 45.579535115409726, 97.9612089203884 20.25713034788989, 115.87941265962871 0.3933107909329223 M59.712285299337225 70.71677287069915 C74.22940090477586 57.43354504998385, 86.29883360793964 40.46572711487321, 119.98546188044628 -1.7454946657826724 M61.86879535719635 69.61377578841356 C81.96124737695351 47.076805203606185, 102.62398199612447 22.67662350976139, 122.91221722214749 -0.3383954066967192 M66.27199900231625 70.79628381092282 C88.46189388191304 42.81176650007338, 110.13895213276905 19.22168039300378, 126.6310196233423 2.111667107570888 M66.96864727500196 70.70505462266685 C81.01148251065781 53.529061760921195, 95.98951274981745 35.5216296812113, 126.11851540612741 1.0205979279838218 M70.2370221462731 69.18772221010829 C91.2696384541893 50.25395732639281, 108.76305473654112 29.710266947295352, 133.85345663143488 -0.8722587968324973 M72.16910110662475 68.57121734440977 C95.56151043782815 43.75017816940152, 118.6614498150249 15.999759955112538, 131.84011887306514 -0.6991930627366258 M75.9008885286955 69.82122256073235 C91.45295566027686 53.09583012058965, 110.11292960020963 31.543799617939385, 138.74122857721179 0.9066902384839324 M76.46116989759932 69.16318091682224 C90.28356906683679 53.59975660399, 103.89328099204951 37.73203091120081, 136.99870473099529 -0.4618904781781765 M82.02335590904269 71.5834937396035 C101.15225421088456 49.17862051459436, 115.63467579412665 30.667963254296666, 143.69257412412273 -1.9331583648940551 M81.75814534293178 69.60425699991588 C101.05251896974808 49.638475204730724, 119.42386928351523 27.812541042773823, 143.50053776641445 0.27981869894806266 M86.54972892177395 70.89444774853018 C110.16246799927444 42.153226992345665, 132.7615162549525 18.863418936228406, 147.85454269465546 0.5910642605102794 M88.0836707001283 69.79803069120226 C105.52616028957715 48.20349002150684, 123.4581257041485 27.565314342717734, 149.14424821235727 -0.033890755678044115 M93.33018198937701 70.2838284549892 C114.97890923825155 43.22075904421684, 138.88490147389308 14.827867641139889, 155.0589667022598 0.1015917862826683 M93.75981370222347 71.0362392663613 C113.37654235622462 46.38370104877852, 132.60891402042273 24.2741212088074, 154.0255539803204 0.23609105023236054 M99.39967252530164 69.42074453056628 C110.81346981887214 56.58664585397564, 121.2797605939988 40.2311011660836, 157.2614893194234 2.2101993298998934 M99.15572976071394 70.05955511768187 C112.7124709833698 55.419896699527314, 126.07218511272325 39.33303443706708, 159.44503842833842 0.30923576735918346 M102.41696870203555 69.46384609273818 C113.72374519845827 54.45565231364793, 127.9467604031951 40.77712420221847, 162.47753670959605 0.793026812947673 M103.5954397336343 69.43901239584383 C127.1412457460716 42.173691685104814, 151.46830593826212 14.849023873588251, 164.31287259290798 0.2914501629912678 M108.60062168302852 71.33614806309066 C130.18060828086422 48.18673664173296, 148.37499427539976 23.60776740617242, 170.2213457952655 -1.6592443970972113 M109.7625521574812 68.88208036813609 C132.34059743344866 43.28140224412779, 156.28650037334057 16.776393180409862, 170.05659295706369 -0.4434972371914796 M112.16799339076832 68.07520680910048 C139.24045632054367 43.227571115049585, 163.62770749507254 13.028634864646563, 175.44193648988153 0.2334318713509731 M114.60804101528927 69.61409006023851 C129.38960113301738 52.845585842432286, 144.64004848609545 35.587077458816466, 175.0258236823022 0.05209720909979865 M119.27122873870464 71.10794350235332 C136.75653594649222 50.345575695201, 150.68262487491006 32.088053140367464, 179.96213946593184 -0.9093567642310347 M119.7549679685551 69.68430761443992 C138.59170421890573 47.562462625531765, 158.43705638295023 25.00540159863204, 179.4000543766581 0.6812989025449667 M123.43628339932528 70.60082076032603 C136.95134505537075 54.768322438686276, 148.4549166450726 39.89105613678764, 184.41456838686625 1.0463421177425403 M124.40626012531337 70.34736093142027 C144.19941827620033 50.01357311910278, 161.9110920880268 29.793236319185013, 185.59336232662807 0.6086083604329247 M129.49889603607997 69.73466600460426 C149.84602125105974 47.52985682768116, 166.5393646281434 25.450264685193922, 191.68064767517245 2.099022384748423 M129.74943227206066 69.36931302846835 C144.94916865479584 51.99032473398333, 160.80007222267992 34.55971824247543, 191.1621902652467 -0.3586121415564776 M137.04361607145648 69.05484810266486 C157.31464083847422 43.82167099596002, 181.08171961283705 18.548046845207793, 194.8265847443002 -1.6134572916276113 M135.86436464183163 69.40908868126414 C159.278967462467 41.48287754112712, 183.49542030054778 13.68595254936261, 197.2100686040106 -0.46406521113433996 M140.33977591890454 68.7461007260935 C158.6805300268647 49.678163463018265, 176.0104869017826 25.533211477774728, 198.5742206797657 0.8004319467595025 M140.12802514612287 69.32454778209642 C158.86087825913145 48.784080316500095, 177.39352734082098 27.253380318539705, 199.32721611398284 2.643037043047528 M147.78051875091188 68.98269899236698 C166.58896800897472 45.4548110537647, 183.72125013655545 26.361833227947606, 197.86123858703775 6.241874181941 M146.122247142969 70.55391198164511 C159.67445532133257 54.00525304667892, 174.36601944224086 38.22395811131453, 200.61949827367914 8.195208048723487 M149.8187707309283 68.203282823071 C167.40519366430175 48.93315947254483, 186.758492165223 29.939383317972265, 201.2165455335566 13.443627880279863 M152.03845166886668 70.42183804719907 C164.93883014344425 53.464742450249496, 178.60915059152865 38.344472509030325, 198.5525592110866 14.159855930459642 M158.4062687814415 71.46103358568237 C170.94928695885267 50.72018846705409, 188.6394600371441 31.756310170849872, 198.823536432772 18.30136421336178 M155.58542520685052 70.5208445044382 C166.56465447387123 59.47102702325978, 175.112650926813 48.007987475873435, 199.4838355877018 19.60187183054481 M162.9295328159013 68.69849745178679 C170.81708643333215 58.23743164099847, 178.30991011514925 49.03016274279895, 201.2394169571717 26.450295798663518 M162.39404191841717 70.01738499565134 C173.68112305885563 56.42802713727295, 186.49748586634743 42.54321977066766, 198.85062951155945 27.29150864965888 M165.64889350679536 71.09776203886105 C178.25953818999713 55.516193647402346, 189.82777978151077 45.914119647431214, 198.67511674121496 32.29470963799359 M166.9250414116012 70.0332749215184 C177.76266360543812 58.34289713324613, 187.62417740764184 46.980066598767436, 198.91877174016562 33.76516398531349 M173.63446451757352 69.35527976849087 C183.5080699768093 56.05454820650853, 193.605082972453 47.6677018064489, 199.71461229436102 39.58459585816047 M172.8737509728993 68.95176479932823 C183.70243872960754 56.52097522658958, 194.57345813220297 45.490681048480724, 198.97069459352645 37.93325887252024 M178.20517027072344 70.032044508153 C186.34289429821789 61.50031100504075, 191.5129712687571 53.00827645219837, 200.03424991409764 43.99227645164092 M178.07786333534602 68.7989669047607 C185.60737342445026 60.099074237509626, 193.50274871703425 51.859440777339785, 198.49350486717657 44.68811652445902 M182.86471817969493 69.82841492943322 C189.23738472930108 62.20254935774917, 193.51873158165054 56.14844957698118, 199.68265888887458 50.14193821502069 M182.92215891043804 68.54992863010472 C187.73766904843856 65.44017121441217, 192.31877380682653 60.38024790955776, 199.9276470351126 49.9647452709187 M186.99937127546042 68.20735506549678 C189.9276404277787 65.9256432972043, 193.5707908371792 62.30256533865751, 200.38460172120946 57.804536140751765 M189.12917984380954 70.39675784529388 C191.0547926111276 65.39927574438937, 194.4516472225857 61.80670440612522, 200.43126821014565 56.24262357865899 M192.73779585409963 69.63954499831972 C195.75426678611637 68.58691438290941, 196.06899860526553 66.35560139280433, 199.4199751199037 63.49400279680066 M193.74096945251392 70.2323140543661 C195.47509571103117 68.25962124279697, 196.84740160760225 66.74417732710741, 199.35210176839496 63.17945211785644" stroke="#fd7e14" stroke-width="0.5" fill="none"></path><path d="M1.0157435219734907 -1.044450817629695 C38.822589303433816 -3.1760020272872027, 77.56208088262363 -0.18901783396216, 196.44693340722486 -1.5151998978108168 M-0.7826349129900336 -0.5698849419131875 C56.12749594255803 0.9592171495519004, 114.21578937287416 0.8779321795068107, 197.60881700262442 -0.23216636572033167 M195.55617155496046 0.5194294471293688 C199.02218069390932 12.185672813019512, 196.18671913699785 27.705921992508287, 197.6094182318823 67.94591384066375 M197.84211220487967 -0.8394583025947213 C198.22543472441504 17.896908031685687, 197.36469403299162 34.015643407408966, 196.3096643005313 67.52389359625163 M196.4430979079382 68.49755673540862 C143.27330635384317 70.65484495520317, 92.40078462091515 70.65194191097939, 1.702080575749278 68.28761469258102 M197.2528822933139 67.59962320478739 C124.6130471935831 67.63292664765146, 53.23566421940163 68.42259237645891, -0.35419174935668707 67.96620950253786 M-0.29009118862450123 68.16437660588058 C1.1235862240620893 42.13823563069285, 1.419552432043199 15.642492070666243, 0.8644700329750776 0.8329617399722338 M-0.9454357316717505 68.02793917210879 C0.8010667383938619 47.63188691265518, 0.7471402406960317 26.7477813313632, -0.44220667984336615 0.2413572808727622" stroke="#000000" stroke-width="1" fill="none"></path></g><g stroke-opacity="0.9" fill-opacity="0.9" transform="translate(10 428.192690449863) rotate(0 61.09343537217012 33.57807134958969)"><path d="M0 0 C0 0, 0 0, 0 0 M0 0 C0 0, 0 0, 0 0 M0.3169000856904437 5.864174650658958 C2.1306079360916246 4.34268720821903, 3.5622421067958947 2.788193803844186, 4.523455661120361 -0.1324276197853273 M0.10804639983457826 6.687904702176445 C0.38365079090932513 5.306462622362971, 2.2369224909941527 3.7954227530387357, 5.025481110396332 0.33803438058469826 M1.457405281914364 12.190541881739675 C3.3220092680258286 6.605401443602001, 7.726867836167214 4.228943894214039, 10.172030104649199 0.9637924189761047 M0.04718005741942988 12.808730286776601 C3.229949995055456 8.889846145499163, 5.680945908561858 5.553408250400957, 11.148870767605436 0.4394339795306088 M1.397029531137063 20.172814397980147 C3.14073270650779 12.580768023932547, 8.76537049043506 7.1749015235023705, 16.062923140361388 0.40087372129084375 M0.42079184664876657 18.20354646341937 C5.1313272228474585 11.301815403052458, 10.146667752089554 6.292114078698122, 14.885550774171431 -0.5406146341073343 M0.7343407051823352 25.320537043451427 C6.159038799855674 17.118137408873118, 14.675179420438095 6.379414666497233, 21.006067386174465 1.6760198226361993 M-0.40570103356621523 24.365765912174343 C7.285354490257119 15.088188241848593, 16.154856039944676 6.018685891591524, 20.93207236220863 -0.1377820322126624 M-1.162104903669153 29.17469046055173 C5.539642586839395 21.8007502828331, 10.688279429314361 17.441637550832034, 24.361939224090786 1.104862320610577 M0.6999123404314176 30.609080439198962 C9.337130914885254 20.849380216723326, 15.951081159508526 12.328387510843385, 26.853083016958447 1.1068878354516567 M-0.34913889142689314 35.03720569405829 C11.21008509945272 27.24661475558498, 18.957610379441007 12.639513665880646, 33.16726608709136 1.7971226797684317 M-0.10923868986782637 37.25983515177046 C9.948701906832666 25.55243452496856, 20.302864191386092 13.129918071181088, 32.739021108901895 -0.01621950405992223 M0.05390714589962897 44.27251378874831 C10.859477255524876 29.521038563376795, 24.309206653719084 12.754854686437369, 38.77203929219519 1.943860685555311 M-0.6487747829734332 43.11312515716605 C11.698670985536664 27.423232195749314, 25.117121026803666 14.935943866961786, 37.087338892557966 -0.22913020280185137 M-2.1029754746706075 48.57167453006737 C13.204112818463004 35.12184558436874, 28.06489775354798 16.711069639099918, 44.08798627238326 -1.220202197474336 M0.32875631563357643 48.6969243033313 C12.001486852318621 34.73563205677851, 24.773936985641217 18.874688126892863, 43.05097473840766 -0.8039587337196821 M-1.408059320156589 54.669409382569896 C14.936004152852078 35.37192303463856, 32.54981189369884 14.773798376985063, 48.34009834467459 0.6209938161250399 M0.7262929764342161 53.98911811732064 C18.97581152520107 33.73504402137368, 37.74779543757691 13.394121717583452, 48.18988090096998 -0.5252312488678648 M-0.13635307353932546 60.38177813170145 C18.352040717414326 42.66689830419388, 32.99824438914763 19.983954168073247, 54.31510294205016 -1.1728298090921037 M0.8537874539474757 61.45518044707964 C14.158237432245835 43.09700093518617, 30.244728361150354 25.868561707321106, 52.719495750725926 -0.7275622211919419 M-1.657188330828312 67.32321182223926 C12.617071213392656 52.57699587092824, 27.760994820662745 35.97039221124502, 57.112991381528985 -0.1606132876802242 M-0.9793809103361397 67.76520639988551 C23.02777309151361 40.73398138880437, 45.46314010473737 15.340750566632977, 57.2622715421945 -0.25797780274637105 M4.221839427928984 70.15180317806946 C19.934348901538844 49.271023222977824, 39.30437319685449 29.917061266808773, 63.39549109609206 1.1423648449151287 M3.1916533410359023 70.0392027621244 C26.42718487870165 42.67060463178796, 48.979677156030164 17.06143501048608, 63.09614664585669 -0.5135924664767018 M8.694280548742068 70.1164024044148 C30.72311585581461 43.61522818646236, 55.550401754912265 12.985843112301808, 68.13759340275838 -0.697835625860499 M7.426651491573107 70.39418380151906 C21.397697924831814 53.60800834435062, 36.25878395821331 37.36046526011731, 67.90607331623151 -0.403932364437388 M15.266949261658382 71.54719802738919 C31.638277131805335 50.042451971812895, 47.614446169861864 34.60794845518473, 73.87602573450896 -2.0714932354526354 M14.192388708822918 69.43475210668339 C27.306877430043208 53.64313023746182, 41.65741744625504 37.853711333360884, 74.03248992379996 0.611388030426042 M20.976572999658966 67.55391151154704 C38.99209652082518 48.69695024109775, 54.79105806396127 29.31097262757327, 79.46077940836278 -0.28754819841576307 M18.579303363266373 68.95129320467181 C40.76853768477268 46.194767250465105, 60.078742967376854 21.742680522300297, 80.22284872308103 -0.4396574339408943 M23.173143079762784 70.32760264233391 C43.2790198412264 46.398127243539975, 61.973529795850226 24.08135782249152, 83.30358185730086 -1.6112790501954066 M24.084847709422437 69.22178094342988 C39.01843200301134 52.370280582942556, 52.09310161697762 36.97056318149914, 85.88008808455572 -1.0791832304837214 M30.768386934950858 71.10299288430427 C45.62095615964919 49.60672824355471, 59.36140844556097 34.16455335352113, 88.12942439834217 -1.2266260053460343 M28.86196011777213 69.97410085001205 C47.01801068140161 49.344017957164546, 64.8071395818884 31.05140716205318, 90.81416026274303 -0.3417155112569077 M32.98729588224218 68.19614202290364 C49.56188987834868 53.28832773761141, 59.42789551166018 41.37641879918408, 96.22503446446777 0.7261324006868222 M35.47059284283445 69.42372677236386 C56.10992227835777 44.218758197005855, 76.67712923061907 20.37358952789821, 95.490503628124 0.18813125079401516 M38.61659735461776 70.9667715226865 C51.92976278262472 55.01627263333329, 66.67665453190608 40.48477803464954, 102.19040337269658 -0.8119440466512984 M41.1261842550904 69.23604423753979 C64.8234545608687 41.82756522306174, 87.62893914284025 14.57989923609236, 100.78157043521756 -0.586669096385414 M44.756282669096585 67.85594116909837 C65.18310925292678 47.51580078661002, 84.67349221781649 25.76253532438126, 108.18725855600965 0.14386611719405806 M45.45118660905897 69.56402709348535 C62.025109558001354 50.68706100316504, 79.44221504673834 31.70318248047259, 106.21529905450475 -0.31323102574074113 M52.06807925865966 70.34837242669373 C64.21495671273874 53.995248174203, 74.14624180119662 42.136129670707355, 112.69059133142598 0.6596226776684304 M50.723538275221166 70.01056086725502 C72.39404500117931 45.764931084111986, 94.02861508954769 20.100760975798465, 111.72664174050458 -0.15108068932642738 M57.52697844032598 69.01012508091812 C70.47553703201572 52.625082606971944, 86.12270061857382 36.076053597866924, 117.08107010293605 1.599756679549067 M55.62819150809599 70.66611940679435 C71.74047773956167 52.672181269685524, 87.335140460199 33.59738491815323, 117.24997783470752 0.9448770201347756 M61.669707647076564 69.45092059632597 C79.13801621323702 49.66846286094316, 92.56252520524768 31.5665704234285, 121.67686327453038 -0.10880083238683369 M61.50558467816444 69.07108823915777 C83.288378140356 43.68197135699138, 106.03664818826286 17.60462563400069, 121.75093667860409 -0.5115127900799337 M65.34625819593037 68.36181875836284 C83.20321410436047 50.21606120797172, 105.09888235119945 27.792357991165694, 123.79728507625643 3.0516386679746077 M66.1031700399455 69.25344121229084 C85.74751899985819 48.19787798002717, 105.41514226969744 25.539616653438934, 124.29004343974177 2.990602468643324 M72.96835751986846 69.4775410315832 C87.97430678683729 49.79363550215146, 107.94987377981224 30.95032056148856, 126.9794448831142 6.887715805633398 M71.8238859639202 68.69106385324801 C86.41058490327572 53.98905017427612, 98.08642647799596 38.26131909361027, 126.23936843062053 8.657277483804556 M77.26099693590979 71.61414720143257 C88.77492647511549 55.532644727960424, 100.11512336271034 41.66682041100272, 125.6661291570752 15.00444246492119 M77.47768470460753 69.34943000997482 C87.0433586734429 59.706482017800035, 95.71497515246162 47.29952411348606, 124.97040905071191 13.899188202235415 M81.85484484804485 69.38606831268821 C97.91579020774593 52.05741668452649, 108.7528313781426 36.909020838453046, 123.92550630212997 20.578749690615247 M81.87394560349796 69.39863478974853 C95.66959854160322 55.38482608374762, 108.65229583831352 41.224475239222144, 125.57379464150642 21.105179731213163 M89.31806966026417 69.47023541012732 C96.90036138158696 58.24831916532588, 104.65126450720177 49.60736137604199, 126.76324472226898 26.850068527492787 M86.85329800208203 70.47752329984633 C101.68402542055486 52.82645865356234, 117.81999697835853 34.949478279526225, 125.17140454449455 27.13284717801502 M93.18816268958675 70.87020827919544 C102.42235786927763 60.83650541290317, 113.68063341514126 48.15661175614028, 124.15433573451125 31.38445876099933 M92.31944415487872 70.95781938821376 C98.68290351097481 61.9705770069448, 105.39765542989808 54.76048717277308, 123.94819101419532 32.5726643905865 M96.56435136899358 69.63320838444704 C107.06875207293042 60.31239116292737, 116.07648636951582 51.77657652498225, 125.63550677183778 38.79164185568936 M97.83157243236906 69.66115858190531 C108.29899853536745 57.541837367835214, 118.26439845871532 46.30474368607562, 124.74459242108972 39.4650168959821 M104.85912701550365 70.88779551132765 C107.61022337813895 63.0168893545644, 113.87852417235572 54.16976399260329, 125.05674915126752 44.76267759700841 M104.35588508907199 70.89676472886649 C112.90217200977654 61.31354135407375, 120.38637157872948 49.739963125320706, 124.80806101969671 44.337878542147344 M109.04671706209797 68.80619112439177 C115.17893419998194 64.33467492632855, 120.01527501166095 57.776540995403025, 123.17373127679105 52.78699702973372 M108.51407049546856 69.4237733561518 C113.98641395557185 63.788236710742886, 119.14073036493673 58.76608770808812, 125.38547615150685 51.92384443635947 M114.36066538600579 70.54508891699908 C116.58445224424526 67.11156842250402, 117.52006944356482 63.12228467611458, 123.90887332754436 58.228969248554954 M114.29285075424566 69.56499922422763 C116.09022664769033 66.30682214799143, 118.39415619563275 64.29652708286898, 124.82291709231438 56.53553846272017 M119.74363929426106 69.23787076613475 C121.381347751854 68.39971259982843, 123.35509418806143 66.44515914554142, 125.06267045562846 64.35027728475296 M119.61976447498233 69.67646936318447 C121.57993386831582 67.5264720839218, 123.79489214616292 65.19391390465492, 125.07100045507534 63.247680584561465" stroke="#228be6" stroke-width="0.5" fill="none"></path><path d="M1.5086535811424255 0.2170153260231018 C46.78072427310873 -1.423059729528702, 94.49999955491879 -0.9257166661742098, 121.46603786002862 0.6758413910865784 M0.37399056553840637 0.8985891044139862 C33.639134148903445 0.6014870291104527, 68.14014809359661 0.3937853460660191, 122.67012663733232 -0.7547893822193146 M123.97118007194268 -1.6044473052024841 C122.12043577950772 16.71038389013412, 122.5289459876376 33.11023705812698, 120.82366382133233 67.79476218169661 M122.51557799231279 -0.9724331200122833 C122.21369309015788 17.10166118135171, 121.55660290308512 32.822209340137576, 122.52770586859452 67.60842557495566 M122.9093724394964 67.03546957915755 C82.7261931300078 68.97613760748193, 43.47068716036296 66.04122969427392, -0.7590599656105042 66.57254271453353 M121.45396777044999 67.19669004028769 C78.40638576654877 65.56058550605742, 35.38568974897565 66.71061087379424, 0.15572026371955872 67.92899270599814 M-0.9521599411964417 65.44362120574446 C-1.370261916810667 44.041335028897294, -1.718953857118284 22.556102074706367, -1.7462826371192932 1.1908236145973206 M0.46748021245002747 66.89347787445517 C1.421108347484287 52.28457430578326, 0.20414267213028314 37.87485896953322, -0.5125183761119843 0.22546669840812683" stroke="#000000" stroke-width="1" fill="none"></path></g><g stroke-opacity="0.9" fill-opacity="0.9" transform="translate(152 428.192690449863) rotate(0 61.09343537217012 33.57807134958969)"><path d="M0 0 C0 0, 0 0, 0 0 M0 0 C0 0, 0 0, 0 0 M0.1539846659032752 5.773946104248159 C1.5171577062229806 3.853441435269219, 3.482610512532853 3.4639192316470875, 4.833065957161135 1.0661725643870645 M-0.3765203665615866 6.565523992900841 C0.9999504341632262 5.198416168245815, 1.8978683301826462 3.468005579940818, 4.912331043886489 0.07117388395939406 M-0.12849535708319082 12.780796830772935 C2.599838059537155 8.672472671916012, 6.7623962992679 5.529526205502579, 9.035821095061433 -0.18130939201565965 M-0.1410217403341426 11.319750924080193 C3.370347979112405 8.105814128828449, 7.536049616079859 2.5624998385017586, 10.544382954341305 0.408199906636751 M-1.9603736261418323 18.96500938842135 C4.43875857823831 14.0976181513916, 9.19302100100224 8.474936386894404, 13.811825880318363 1.6850341844302585 M0.5611097476864 17.488947451022142 C4.520057449038734 12.150377991409087, 10.68863474411094 6.762095961462755, 15.138490548826237 1.1152477280166915 M1.2828416621498082 26.010230820342063 C6.708752251612145 16.154459888001945, 12.964907261176654 8.18510469256276, 20.66728483913269 0.30369156917328866 M-0.03523782713345547 24.995203627920805 C9.351573828996742 15.560262047377222, 17.363155684415826 5.921280274108703, 21.902476434873307 0.23720956446374686 M-1.5001936526457413 29.292688611660353 C8.664689180100641 20.06071459452306, 17.8704367981557 10.593403338100675, 27.716524933141084 -1.6883761124673544 M0.23428912465920604 30.51083189877515 C8.10641747229872 20.835710863432908, 15.841572521620604 13.093206459658248, 26.195270197142275 -0.17573751099289048 M0.7184666654932776 37.4250437876222 C11.990924301352226 22.283500380116365, 21.269955608387786 11.701049650868658, 33.0048795523558 -0.7632955404684658 M0.5697864972892681 36.48464441187804 C7.496413114763214 29.64809048904644, 13.395190020053873 21.5449879696223, 32.114237696348525 -0.9363268677831407 M-0.6250280224113709 43.393004248473574 C9.700021968035331 31.1284551323079, 21.921582993956775 16.70946383075616, 35.17414909582709 0.18619180108425226 M0.5141236224816197 43.3820548780223 C12.508145223514257 29.05589048665386, 22.63450811913901 16.910331060699708, 37.569032114745426 -0.4156019919458309 M-1.3420023173094577 49.50695351012878 C7.480538106352414 40.920252855125895, 17.056861578049915 29.61162706494266, 43.023573203567196 -1.5034470177860015 M0.328516182489615 49.10545731116913 C11.46104820754187 35.31584358545577, 23.01540990837866 21.342176674235454, 42.87381618804835 -0.4243431279108876 M0.4136584208112808 54.80648364261101 C18.342709108013754 35.19724612407969, 36.40698029473083 11.595653913908947, 48.573858524626374 0.45864026883507236 M0.9286894130286427 53.86750896688859 C16.01841317583722 36.40692493324022, 31.01977075349508 16.879437043807307, 47.84253997351068 0.9808593632828639 M1.2095358410010846 59.78557191183458 C21.19497874809655 37.568351620154075, 40.931632841942466 14.643387192144957, 52.62815094901687 -0.03248551902931851 M0.9801558713520677 61.38505698414187 C20.17232297414323 38.056644800193084, 40.62133847629147 16.431076517425396, 52.38116308184779 -0.38382163779449385 M1.2395918042817087 65.79711371804545 C18.555198719130974 45.294946010951136, 34.175920761067985 24.497762014475605, 57.83606337578894 -0.7523783654648817 M-1.16562136081523 67.7524213237218 C18.455533805505574 44.691164435360854, 38.494485020503205 21.92540712834561, 57.58293244531305 0.3644766328182065 M3.2927274126369355 68.98571301559852 C22.766455134911354 47.0666881646536, 43.055927211757464 23.392050522651708, 62.254647944954826 -0.49738370044841673 M3.528580351713657 69.84293518803017 C25.279537934516604 43.716293533339126, 46.9839650706435 19.36071896641956, 64.32060454962183 -0.7061198193089595 M6.504692719107521 68.52227811518529 C23.726317103279065 51.51337975817691, 39.04716817554357 32.79268047500452, 68.41242380556479 1.6405382419343724 M7.5689029076826095 69.01229082330534 C21.50524667096557 55.08044827478428, 34.23107301775434 39.8417643440787, 68.34172320202752 0.8517048947851791 M13.982704785772157 71.7821025233884 C36.39039856174548 44.98415339045852, 56.28508158443911 20.07110625611253, 72.87034934763106 0.9236357817067073 M12.586275527373445 70.74537035917683 C34.81583875859318 45.842299942475606, 53.16328933874051 23.36317820658867, 74.86084176324549 -0.016970094329280982 M20.334597002643132 70.73055956023104 C41.90176776974603 45.44334722531983, 60.64214263706704 19.587103222112873, 79.28584997020391 -0.3064575652171442 M19.896814071501577 70.51069042621471 C38.06804071730288 49.4879992497976, 55.09262204292847 27.879331893538108, 79.65480091552911 -0.6753757726911971 M22.764669768770663 68.9124077416275 C40.330733210877 50.71639206524228, 57.06962606338164 29.220055751920967, 83.97379031329558 -1.978899728813957 M23.628921722320346 69.21845753838014 C47.013135060056186 44.97176700220244, 68.16740686280986 19.219245115339497, 85.65495089459375 -0.6764798847304689 M30.63466272416702 68.101614137601 C51.600937260994925 45.45506466724531, 71.05618469551169 22.826814454764097, 88.9705020259563 -1.568463443169449 M29.315511215545147 69.33914145124321 C44.51569451773405 53.5003151408516, 59.520948809029186 37.22926993144692, 90.04242925769279 -0.5690602914859397 M34.52778251788244 69.02653101406582 C60.41052135140052 41.43462215669695, 82.7508370875473 13.065870586573467, 95.5947559981984 0.5542871117395975 M34.98928260842935 70.09740180376508 C58.131633495046856 42.22221050505934, 82.99060301205418 14.81964096358741, 94.84038311554164 0.22086838761248373 M39.809675039929196 70.01971919104518 C53.72594044594944 50.939586157611075, 69.18090933267032 34.44644289330771, 101.51179012907201 1.8481729518274719 M39.77494551168834 69.59066147651585 C59.36103903330019 47.03178672130433, 77.75724495655564 26.1648712904696, 100.0092469003936 0.5839814165259654 M43.692453189357515 71.74312468445336 C65.42420648522761 45.27235303327869, 86.98861941820067 20.51087750160145, 106.29428155858946 0.2512236471173779 M44.98449685757547 69.98303323345667 C69.14164821452785 43.76255486718475, 92.50861595535646 15.232727587916571, 106.03896459796411 -0.15378269917541587 M52.79566910617965 67.83790206431358 C69.6273853499965 49.35759823796883, 85.33360233480684 29.672082952045223, 112.48637443580098 -1.0941460364763955 M50.70944313180613 69.62389308015763 C70.6196565352051 47.37978595288932, 91.4699823547019 22.714729145224204, 111.04426751550652 0.962704429469504 M56.21034193944586 69.64959109654014 C78.73305763463746 40.92793505331062, 102.21188373709018 13.827504845256925, 114.50859312172832 1.56339680129215 M56.9160781416337 70.2418069055799 C74.52400147313271 47.819819600493666, 93.97299844619891 24.965461700516755, 116.7008374847457 -0.6089559867464018 M63.059930079168396 68.87794010115621 C81.28799686956854 46.009675208080836, 103.26212867367536 19.508190719794207, 123.00216510239323 1.535731935668963 M62.037705247773545 69.06310384029356 C82.19975237516945 47.39634887267019, 102.3949863386998 24.23112293289045, 122.62087977490654 0.5116888254696903 M67.56435892439748 70.30208259407611 C79.36369373448787 57.81828352566148, 90.35399813198562 41.15398901113302, 125.20516681487445 2.9110434982366726 M66.06991513247903 70.00580289825977 C89.69475329577986 43.04719441451097, 112.73527665767145 17.28038480551684, 125.76051891877088 2.3124506832472846 M70.60099311514541 70.43036064532305 C84.20542716797823 58.195995900612964, 93.50367994137488 43.74832417218225, 126.48167296620319 6.939514594464036 M73.16280803146556 69.79818633504863 C87.6607177602911 53.026121220038604, 100.06810895490638 35.96511462175645, 125.9801980315731 8.242945065102013 M76.7686643004624 70.2255015208113 C88.24440672041804 59.128983016405556, 97.64718996919456 43.47448359381222, 125.32213847538225 14.230246464151456 M76.71627150198648 69.17272628962128 C88.88779660898734 56.47709217147959, 99.15971765265947 43.384229245837176, 124.07631075301907 14.880260271381154 M83.2925843413702 70.50915062078688 C91.76807956801505 59.142516755274976, 103.2410657312001 44.77760241500552, 124.37560332843339 19.212306382544945 M81.31614362576667 69.73936772277061 C96.03962263896632 53.926670162548376, 109.69706198105678 38.32659762007611, 124.84465610233372 20.858755325377594 M88.36866822389058 68.91350022049573 C97.9234376032607 56.18402022802896, 109.26705132539874 43.351286226248064, 124.07431063637833 25.312808499890473 M87.10978592203102 69.40590715778944 C100.197678013061 53.75438700669776, 114.58748385642268 40.06812649219842, 125.73630653624187 27.516890812884178 M93.50785697207378 70.83291821085216 C102.75902359830968 57.77483145916544, 112.10387070406705 47.034100073076985, 122.97802954826736 33.90854258210231 M93.1816562605329 70.79837142113895 C100.09670345770394 61.485493169745844, 105.42861540449042 53.740698203508835, 125.23318086199694 32.31760762286205 M98.44103085093207 70.82848103687937 C108.28403823150002 58.081081312014526, 117.02344642993552 49.77613322810663, 126.67896845411272 39.730506949203686 M98.4894720644877 69.13430058088923 C108.13598021736725 58.62208817427235, 118.03347434671944 47.767805467398205, 124.7842074403143 39.72160988588132 M104.18303713451564 71.35315033949163 C110.65428033780137 62.03228160017918, 114.08738653230697 56.99277578599547, 124.86580275296461 43.58908511710889 M103.95948807864875 70.41667458850142 C109.96427643288357 63.5996648471121, 115.82687213393686 56.40603601089883, 125.90060195344728 44.381291615903145 M108.5936623378368 71.40159631371222 C113.20356288278731 63.87630935205787, 116.83385183729463 57.914587173587265, 124.22858805584485 51.7785787360639 M108.07871860123146 70.55248663704566 C113.23339169897112 64.7062115092296, 117.54719620234634 61.00235286208959, 124.09203060812081 52.014019648720385 M113.5336554712835 69.34949535716396 C116.61233996458971 65.61828576470282, 119.69720246098886 61.320671729406925, 124.86381564196425 57.04942861132632 M114.84992744827039 69.61409649181252 C117.81219961912795 65.34759847143616, 122.38754538196227 59.80576133422392, 125.23705059928115 56.87405325494083 M119.80511173477204 70.17404667204787 C121.18799328562653 68.08377130377347, 122.92347796214786 66.53654896811568, 125.49393499990686 64.32109414659107 M119.85293828008504 69.20921547590365 C121.54548380701036 67.81612582358245, 122.83835034330598 65.99392165934697, 124.96164404539151 63.70442873671317" stroke="#228be6" stroke-width="0.5" fill="none"></path><path d="M1.97141301818192 -1.9221993405371904 C31.35139796707238 0.1619554173272617, 60.61969048737397 -0.303936361141824, 122.0729926748948 -1.0082902032881975 M-0.288965598680079 -0.6584138860926032 C41.39100311722628 -0.44531273723457976, 82.43130718316927 -0.8313687133869998, 121.93475568749028 0.15409079287201166 M122.34701716143655 -1.5723003465682268 C121.29162883589454 21.31103878366765, 120.21807378361412 40.66541482491427, 120.95246284443903 69.05240656493338 M122.88098395325261 -0.4612925937399268 C122.77724414635331 15.403403981143917, 121.5262165920797 30.340641792905203, 121.26806852675992 67.65429787675025 M123.74203603703546 68.53998638747366 C79.56847100003804 65.088804518512, 37.18616763601425 67.786200856498, 1.2920826096087694 65.27579112408789 M122.3003945098074 67.06182556191565 C75.28417798488474 67.18182880438796, 29.08209319671745 66.58568028367988, 0.45029915776103735 67.54678698221328 M-1.5790650229901075 68.10841794369848 C-0.106738538326554 41.882395103391374, 2.035385578094192 14.9021894475325, -1.59611308388412 -1.974672170355916 M-0.26111112628132105 67.06096597353103 C0.255774500347441 45.533582099237734, 0.6440081918013747 23.801700887603126, -0.7902271905913949 0.9432829627767205" stroke="#000000" stroke-width="1" fill="none"></path></g><g stroke-opacity="0.9" fill-opacity="0.9" transform="translate(288 429.192690449863) rotate(0 61.09343537217012 33.57807134958969)"><path d="M0 0 C0 0, 0 0, 0 0 M0 0 C0 0, 0 0, 0 0 M-0.20864758488255242 6.752568421562307 C1.0296941536899078 3.6954731186992227, 3.2964849117105532 2.12810470350583, 4.70366200837726 1.0081608179805093 M-0.31947506178634855 6.5994307984161305 C1.850211480713115 4.159293493110892, 3.8695332340355857 1.6213886703563642, 5.159909414457625 0.5266997232881598 M-1.3795517898071898 13.435732810616075 C4.0641695001933495 8.873883521290509, 7.072465163712836 3.576426092437319, 9.92255915696634 0.3516768197610738 M0.012856924636255429 11.9967877101596 C4.568193457702918 7.522459659003684, 8.320325270871296 4.0460806678118715, 10.549518180590999 0.29070620565561067 M1.7939687510439892 16.82589852521258 C4.335806417946685 13.49287714470216, 9.615586948193535 7.203286585615395, 16.751411864071567 -1.55994406464277 M-0.22015279909132524 19.16455194344806 C3.637007291874268 15.39147143259814, 7.547098740472604 10.586846767514114, 15.218997678257008 1.2748924807575515 M-1.6985470855423 23.393990974589347 C6.960526017138237 15.957729080597145, 14.382485902923595 8.281170988940012, 20.620468311289216 0.4230760367750648 M0.24806623833247166 24.36574773368901 C7.70955693384667 16.467742944622465, 13.91395276472512 8.45813847033784, 20.898960088657105 -0.500338637812483 M-0.9880044431845292 29.17801851383244 C9.034078735203394 20.356497593121354, 16.91771326367085 11.685492219999233, 24.96144310073218 -0.2435083227220236 M0.025610730103160506 31.396048283901266 C9.898759963762606 19.03015225311153, 18.492590150012127 9.488169136419522, 25.448642240513475 -0.6538319397705852 M-0.4507539608609399 37.976189043187844 C11.384180050627192 23.139054307984612, 22.269292929688437 11.614289193319642, 33.22787274741272 -0.6587769481108303 M-0.9383999920543751 36.814617304877686 C9.492535077501651 26.951258315213323, 17.433988028884674 16.052559163915124, 32.8081834320415 0.5182807679533248 M0.2575568474502319 42.64725733790152 C9.914171237378195 31.516203525113276, 17.68397883699678 22.078467499993376, 35.782260775381076 -1.6549244484770576 M0.9916768410847538 43.35347006991111 C9.890916962388975 30.74512734193101, 20.992011555298554 18.63117193221218, 37.073760282994556 0.3178075618204197 M0.5463065057992154 48.062153788887784 C10.743861072902202 35.752315047806434, 20.087435202185826 25.495962947025312, 41.4570499496495 0.8525631212024933 M0.5135803492739015 48.33785215546273 C10.248945032339053 37.50936329640204, 19.439397071504 25.99224801649745, 42.08980896658801 0.7630697599007732 M1.7948127791982742 56.50851734116982 C15.358869473511174 34.50171493396427, 34.80403780129385 16.13110603835824, 48.61865004426825 -1.409915098157878 M0.32330920572845656 55.5595223796026 C12.357906997364879 39.05696553534466, 26.752479926972093 25.242223381333048, 47.54430297757524 0.7828285636555599 M-1.5836395583023517 62.41587213566194 C13.847523175091444 46.79079776091892, 27.99998231474462 29.290618927268802, 52.72841007424957 -0.42425141153496426 M-0.7896005947982161 61.47067944379191 C10.692334322501118 47.98761175685195, 24.313241746826233 32.65451363832943, 52.560975364171625 -0.6651415838451378 M0.7631144793190927 65.76016044761012 C21.03733917714254 45.04765158417949, 41.759841658708254 20.655599156959447, 57.406646063643706 -1.1554529280144727 M-1.0059125330812364 67.0572448713235 C17.937976523057262 48.5568429701082, 34.84015517101187 28.210881703357686, 57.79459649613054 -0.40012635614015224 M4.09467911904639 67.99653310636924 C21.934845334972895 46.185712273644754, 42.192255575128975 24.824231029345825, 61.99361327746291 -0.9018182025732031 M2.523119463566303 69.24040342709915 C18.015567628952446 51.569417247458, 33.91461145546926 35.28459801109187, 63.02319629666735 0.10010181484059189 M8.330007538920295 70.29394529763081 C31.46715464119425 42.81092262323648, 53.46414805907394 19.16019285184889, 68.61353398975744 1.4302394057031407 M7.458910731388283 69.57994891985723 C23.545701380919652 52.623504481985044, 38.6448649904433 36.137211852540204, 69.24334201053544 0.8932103805582656 M11.672019926019502 68.71323740297748 C32.11978391707376 47.35822797218963, 51.709234212164674 25.93323455210269, 73.73556971553954 -2.0239849081622197 M12.93141392816652 70.92111504172726 C31.497666069044627 48.79956437270001, 48.30783422205826 28.427309987159774, 74.26236043595019 0.6908800340829657 M20.136752795356298 68.59282961743243 C31.27557547750468 55.36431436166045, 43.95702031984263 37.85316127630801, 79.23784897885946 -1.3623107532550165 M19.09951835211643 70.2490199857793 C38.57476966868377 45.77060327897707, 59.83540090896666 21.753510837194227, 78.79361569266496 1.0527313518758348 M24.6492096709809 69.53802733190994 C36.40409138451391 54.9887657928103, 51.205090291345144 36.62791821956782, 83.96843954472945 -0.26584918455202455 M23.27815062299135 69.14672182847451 C41.79895754895974 48.46488003107671, 59.87049103415845 28.17334029505342, 84.04873145389513 -0.4951018479930269 M28.604333317905574 70.07084449143325 C47.92902065568991 49.043752490467355, 64.29122760406422 30.844854943484826, 90.80937618719975 -1.273826061138962 M29.53049691400668 68.913791887883 C51.5584061841794 44.48110409291183, 72.77693039971726 20.255948107698927, 89.83286871439407 -0.26604586406246256 M34.93103351018057 70.35518023691662 C51.102574771331874 49.785573063605234, 66.62649787934123 29.36856654564491, 94.23763292128265 -1.1337586879926107 M34.763280719915784 70.7602413654659 C48.15446635333056 55.379967577798055, 59.92002616309495 40.2962638523845, 96.1369480223772 -1.294513753262379 M41.65315926281814 68.84664226338329 C63.16103012389762 44.798454537000524, 80.81670171328233 22.936883071848158, 99.38915077102834 -0.07627917419868169 M40.31898508893405 68.92509470429333 C61.61674733195906 44.335376872402485, 83.03468288931084 20.90203923150675, 101.23292724759781 0.8580213108683878 M44.95352659986853 69.01772346174752 C68.52400287929237 44.9381893317441, 90.61606129367631 20.244023191328544, 105.61981000144911 -1.165311074733971 M46.07113039081484 68.87031623082643 C63.824916098087286 47.51688524555635, 84.22430094037855 24.30634465613761, 107.26602381327135 -0.7784006036000832 M50.73489078634399 68.00762527703255 C72.62260216365019 44.45646478557034, 97.76013889706695 18.50317893191665, 109.5694578865952 0.4271072513158103 M50.016496548773524 70.3993835131353 C73.93535354428711 45.25000897987924, 95.32468455081425 20.41285972224251, 110.34999246415116 -0.38829954520662824 M57.68397409629477 71.34743435015265 C77.534917409298 45.43708282811767, 100.93809541584967 21.547903278609844, 116.06682191248836 -1.1746444208033395 M56.37040080756349 69.85121400268112 C74.46853249200906 47.89755384383434, 94.25616678462 26.748063262247598, 115.50328846946212 0.5025272593416261 M60.832438044733124 69.60994587613104 C74.6352938863415 56.12246993156133, 83.87087114937313 43.717799914514366, 120.47383269015035 0.4018605591545281 M61.158919965400116 69.21873839253394 C78.14847712452313 49.610410409625125, 95.86128308041607 30.048978395788737, 122.02464053592911 -0.5526158541624966 M66.62091115570928 69.13484024588199 C84.96031905717277 48.51782112691913, 100.58350660995177 28.706049243365364, 123.06176978165988 2.9928531977720425 M66.31416814203675 70.34282725915493 C80.53221603614622 52.859300981924946, 94.88306762552759 35.85209448453645, 125.90044663383398 2.763184493910508 M72.45996119423553 68.67850640442873 C91.17173923398121 48.47715694643108, 109.17330421325155 25.29750424203352, 124.5404110190482 8.28406347551796 M71.26651901068881 70.0308644206142 C83.05037991049652 58.273619322266086, 93.71924714164646 44.45872958856023, 124.3651733159111 7.384895344576272 M77.7941229343621 70.13921849268554 C93.36708395662797 52.71404615139579, 110.72297442246358 31.487528917992805, 127.05841444631807 14.007639507192685 M77.03988356610964 70.25067357837288 C94.53590802836452 48.66033593241083, 111.87770880805256 29.384134624239366, 124.93298765936635 15.531206560682072 M83.00681136211071 71.96166878589842 C92.87408345183411 59.477522059289015, 103.71890928586957 45.44761845764101, 123.23552317449128 22.40319544304223 M81.1878733275241 70.00380125572387 C95.423585584809 56.42765439551364, 107.7795580870605 42.00382551167486, 125.46121212092464 20.634328728020797 M87.76464458850316 68.08859643431333 C101.96017229157255 55.04465189877037, 116.28383952629505 36.213202144316334, 123.78718343958954 25.39589230831256 M87.1693732516571 69.74589553845999 C96.88878827314616 59.17404612801462, 108.17276370695934 46.15022427980583, 125.80619259481082 26.98682399488529 M91.36176676258968 68.91241620384456 C99.32511701003588 60.91077148176001, 106.36285809137891 52.39169035829068, 123.86886751566314 31.54806674391795 M92.72411464576201 70.80708481554241 C102.74869972324883 59.066421791252026, 110.44875134218546 49.283257169416174, 125.1988713257783 32.1619848127367 M97.62476127438254 68.67975141451532 C106.97342799250006 61.76574042269956, 114.85206585557421 51.31817800706504, 125.98098691772432 39.463763944881634 M97.80883837055421 70.26526071754122 C108.44237112728288 57.28541226599304, 118.53334222280424 47.030789464763814, 125.18095011204244 38.88711687464513 M103.97667852293193 70.2166105822399 C109.16773197651074 62.032716898235755, 114.93737299211692 55.375885779902994, 127.03292016982329 44.51391430211789 M103.69257260828704 70.14000475841758 C111.12645420925531 60.63434257691956, 119.65002388976244 50.3830007037552, 125.70016807335656 45.23746575707174 M110.99800814825016 71.57821077704153 C115.16280058544312 63.109715419625914, 118.59235054449559 59.19393533265572, 125.24792600798185 52.24086634087271 M109.5488550946759 69.5111616937416 C112.4748528830292 66.46085809081069, 114.81142062652404 61.615217157663736, 124.04646485394562 52.50949985830939 M115.27534526355892 70.65745828438622 C117.86277604003722 68.62391865688785, 120.25066366192783 64.65591053913934, 126.31254135724383 57.288430871892075 M113.62660373800762 69.75527839738015 C115.58848419577839 66.93223508266614, 118.62984110221078 64.57390535752054, 124.37461551320965 57.57001349798712 M119.83449074497254 69.12824806040693 C121.60350086023074 67.34091118832998, 123.74260373931085 65.40848575575531, 124.84611750742181 63.92291440091693 M119.60457243678898 69.94159373222459 C121.56672977812927 67.9270979562711, 122.92226840922484 65.63798466055866, 125.10570335773511 63.19149487450385" stroke="#228be6" stroke-width="0.5" fill="none"></path><path d="M-1.1175349336117506 -0.528780372813344 C26.24314639082839 1.6625430550282116, 55.60474514996091 1.17639714142729, 121.04117553669977 0.1466319840401411 M-0.8360372046008706 -0.3519032886251807 C24.15666611425578 1.8601090872521604, 49.39822407025843 1.5954930448765958, 122.54349062301236 0.39816337917000055 M123.3468620105462 1.9384110253304243 C122.95476646832154 16.871246836800164, 122.71643747500107 34.9232518834994, 124.16697024542856 68.53915973065527 M122.39197871543485 0.7668727049604058 C122.4919195705109 19.273861339345125, 123.22051104242138 37.96731332974791, 122.1290531799944 66.24449415842177 M123.64006089407968 66.09786076901587 C87.4851207805431 68.3603842491267, 52.394208453261385 68.02885945979335, -0.0763701181858778 68.69416774867209 M122.69474250532704 66.63391729036452 C97.36301997239539 67.10568242396991, 72.4976203383285 68.59917452063243, -0.3699686685577035 66.39854275027396 M-1.5652698259800673 66.016372815353 C-2.2036830689637994 48.25513482687796, -0.11415027639559272 28.665190097069924, 0.8438925165683031 -0.46433273144066334 M-0.8153495946899056 67.41585742274405 C0.2329536230716519 52.121384826211596, -1.1847771553840825 38.75391513647845, 0.2112737437710166 0.3948855707421899" stroke="#000000" stroke-width="1" fill="none"></path></g><g transform="translate(151.19891753477134 216.5780713495897) rotate(0 59.5 13)"><text x="59.5" y="18" font-family="Virgil, Segoe UI Emoji" font-size="20px" fill="#000000" text-anchor="middle" style="white-space: pre;" direction="ltr">knot Master</text></g><g transform="translate(46.59343537217012 448.77076179945266) rotate(0 24.5 13)"><text x="24.5" y="18" font-family="Virgil, Segoe UI Emoji" font-size="20px" fill="#000000" text-anchor="middle" style="white-space: pre;" direction="ltr">Slave</text></g><g transform="translate(188.59343537217012 448.77076179945266) rotate(0 24.5 13)"><text x="24.5" y="18" font-family="Virgil, Segoe UI Emoji" font-size="20px" fill="#000000" text-anchor="middle" style="white-space: pre;" direction="ltr">Slave</text></g><g transform="translate(324.5934353721701 449.77076179945266) rotate(0 24.5 13)"><text x="24.5" y="18" font-family="Virgil, Segoe UI Emoji" font-size="20px" fill="#000000" text-anchor="middle" style="white-space: pre;" direction="ltr">Slave</text></g><g transform="translate(128.69891753477134 31.578071349589692) rotate(0 78 13)"><text x="78" y="18" font-family="Virgil, Segoe UI Emoji" font-size="20px" fill="#000000" text-anchor="middle" style="white-space: pre;" direction="ltr">Message Broker</text></g></svg>